<?xml version="1.0" standalone="no"?>
<!DOCTYPE svg PUBLIC "-//W3C//DTD SVG 1.1//EN" "http://www.w3.org/Graphics/SVG/1.1/DTD/svg11.dtd" >
<svg>
<metadata>
Created by FontForge 20120731 at Thu Dec 14 17:51:28 2017
 By www-data
Copyright (c) 2000 Adobe Systems Incorporated.  All Rights Reserved.Lithos is either a registered trademark or a trademark of Adobe Systems Incorporated in the United States and/or other countries.
</metadata>
<defs>
<font id="LithosPro-Regular" horiz-adv-x="850" >
  <font-face 
    font-family="Lithos Pro"
    font-weight="400"
    font-stretch="normal"
    units-per-em="1000"
    panose-1="4 2 5 5 3 14 2 2 10 4"
    ascent="727"
    descent="-273"
    x-height="600"
    cap-height="700"
    bbox="-173 -254 1343 920"
    underline-thickness="50"
    underline-position="-50"
    stemh="60"
    stemv="87"
    unicode-range="U+0020-FB02"
  />
<missing-glyph horiz-adv-x="500" 
d="M0 0v700h500v-700h-500zM250 395l170 255h-340zM280 350l170 -255v510zM80 50h340l-170 255zM50 605v-510l170 255z" />
    <glyph glyph-name=".notdef" horiz-adv-x="500" 
d="M0 0v700h500v-700h-500zM250 395l170 255h-340zM280 350l170 -255v510zM80 50h340l-170 255zM50 605v-510l170 255z" />
    <glyph glyph-name="space" unicode=" " horiz-adv-x="300" 
 />
    <glyph glyph-name="exclam" unicode="!" horiz-adv-x="300" 
d="M87 0v98h100v-98h-100zM166 224l-56 -8c-4 141 2 380 -4 489l107 -5c-10 -84 -38 -340 -47 -476z" />
    <glyph glyph-name="quotedbl" unicode="&#x22;" horiz-adv-x="305" 
d="M182 716h85l-21 -200h-44zM38 716h85l-21 -200h-44z" />
    <glyph glyph-name="numbersign" unicode="#" horiz-adv-x="507" 
d="M471 397h-91l-18 -139h85v-65h-96l-25 -193h-66l26 193h-101l-26 -193h-65l25 193h-82v65h93l18 139h-86v65h96l25 188h65l-26 -188h102l26 188h65l-26 -188h82v-65zM314 397h-101l-18 -139h101z" />
    <glyph glyph-name="dollar" unicode="$" horiz-adv-x="707" 
d="M303 787h73l-3 -114c18 9 87 27 103 28l10 -80c-79 1 -206 -52 -206 -115c0 -47 37 -72 113 -109c67 -34 128 -68 128 -144c0 -82 -98 -160 -148 -182l3 -156h-73l3 133c-24 -9 -80 -23 -98 -25l-14 77c142 12 231 80 231 130c0 45 -23 68 -97 108
c-76 41 -144 83 -144 150c0 71 74 125 122 154z" />
    <glyph glyph-name="percent" unicode="%" horiz-adv-x="943" 
d="M231 321c-128 0 -191 86 -191 182c0 87 73 197 208 197c110 0 185 -62 185 -188c0 -63 -51 -191 -202 -191zM233 377c68 0 124 50 124 133c0 92 -53 134 -115 134c-90 0 -127 -81 -127 -138c0 -66 46 -129 118 -129zM701 0c-128 0 -191 86 -191 182c0 87 73 197 208 197
c110 0 185 -62 185 -188c0 -63 -51 -191 -202 -191zM703 52c68 0 124 49 124 132c0 93 -53 135 -115 135c-90 0 -127 -81 -127 -138c0 -66 46 -129 118 -129zM290 -21l-61 42c35 50 131 212 229 369c88 141 174 278 203 331l63 -35c-30 -45 -126 -190 -217 -338
c-96 -156 -187 -316 -217 -369z" />
    <glyph glyph-name="ampersand" unicode="&#x26;" horiz-adv-x="615" 
d="M226 59c73 0 130 27 186 80c-82 63 -172 139 -211 178c-50 -38 -93 -91 -93 -156c0 -54 43 -102 118 -102zM636 66l-54 -66c-28 22 -71 54 -118 93c-65 -63 -148 -109 -256 -109c-101 0 -190 66 -190 163c0 95 84 175 134 218c-37 39 -60 74 -60 117
c0 107 136 205 272 236l22 -76c-62 -10 -203 -59 -203 -143c0 -59 58 -109 120 -166c35 -32 97 -84 166 -137c42 52 67 93 83 116l64 -47c-26 -34 -55 -74 -93 -112c50 -39 92 -69 113 -87z" />
    <glyph glyph-name="quoteright" unicode="&#x2019;" horiz-adv-x="160" 
d="M10 525l56 191l80 -36l-97 -173z" />
    <glyph glyph-name="parenleft" unicode="(" horiz-adv-x="300" 
d="M248 776l48 -60c-49 -25 -177 -154 -177 -376c0 -182 108 -321 177 -356l-48 -64c-76 49 -210 195 -210 410c0 232 134 394 210 446z" />
    <glyph glyph-name="parenright" unicode=")" horiz-adv-x="300" 
d="M52 -80l-48 60c49 25 177 154 177 376c0 182 -108 321 -177 356l48 64c76 -49 210 -195 210 -410c0 -232 -134 -394 -210 -446z" />
    <glyph glyph-name="asterisk" unicode="*" horiz-adv-x="350" 
d="M314 609l3 -61c-14 1 -95 7 -99 5c4 -5 54 -74 63 -86l-62 -31c-6 21 -38 129 -40 138c28 5 111 29 135 35zM69 680l55 42c8 -16 48 -96 51 -99c4 6 36 80 43 99l57 -38c-12 -13 -95 -98 -101 -105c-20 21 -92 91 -105 101zM129 436l-60 27c10 15 59 86 62 91
c-6 -1 -85 -7 -99 -9l5 65c16 -5 123 -33 132 -36c-7 -26 -35 -114 -40 -138z" />
    <glyph glyph-name="plus" unicode="+" horiz-adv-x="596" 
d="M263 532h70v-232h223v-66h-223v-234h-70v234h-223v66h223v232z" />
    <glyph glyph-name="comma" unicode="," horiz-adv-x="270" 
d="M54 -101l65 227l98 -44l-123 -202z" />
    <glyph glyph-name="hyphen" unicode="-" horiz-adv-x="350" 
d="M29 305l-5 75c51 -1 281 -3 299 -2l3 -63c-16 3 -259 -7 -297 -10z" />
    <glyph glyph-name="period" unicode="." horiz-adv-x="270" 
d="M79 0v111h112v-111h-112z" />
    <glyph glyph-name="slash" unicode="/" horiz-adv-x="339" 
d="M414 659c-29 -40 -123 -180 -213 -323c-95 -151 -184 -305 -214 -356l-65 43c33 46 128 202 225 354c86 136 171 268 200 319z" />
    <glyph glyph-name="zero" unicode="0" horiz-adv-x="707" 
d="M342 17c-151 0 -306 110 -306 332c0 202 156 335 325 335c178 0 310 -133 310 -327c0 -174 -128 -340 -329 -340zM356 95c101 0 227 85 227 266c0 131 -101 245 -231 245c-131 0 -228 -110 -228 -262c0 -117 78 -249 232 -249z" />
    <glyph glyph-name="one" unicode="1" horiz-adv-x="707" 
d="M424 0h-94c0 26 6 152 6 287v259c-29 -34 -106 -108 -135 -138l-45 54c19 17 242 225 271 258h3c0 -33 -8 -166 -8 -301v-154c0 -144 -1 -234 2 -265z" />
    <glyph glyph-name="two" unicode="2" horiz-adv-x="707" 
d="M561 78v-86c-25 3 -231 7 -376 8h-113l-2 10c134 91 354 256 354 417c0 140 -160 202 -278 208l18 82c227 -27 357 -148 357 -281c0 -162 -171 -294 -259 -365l1 -4z" />
    <glyph glyph-name="three" unicode="3" horiz-adv-x="707" 
d="M188 645l12 77c116 -6 302 -70 302 -189c0 -71 -73 -139 -124 -161v-2c78 -20 146 -66 146 -146c0 -136 -194 -244 -377 -249l-6 81c114 -8 281 47 281 163c0 90 -136 124 -211 127v30c81 8 198 63 198 141c0 83 -118 127 -221 128z" />
    <glyph glyph-name="four" unicode="4" horiz-adv-x="707" 
d="M499 731v-498l109 3l-7 -75l-103 3v-47c0 -40 1 -88 2 -117h-89c1 28 5 72 5 128v35h-356l-2 8l435 560h6zM418 234v297h-2c-33 -50 -185 -247 -221 -297h223z" />
    <glyph glyph-name="five" unicode="5" horiz-adv-x="707" 
d="M270 625l-19 -108c220 -37 268 -131 268 -213c0 -150 -193 -292 -352 -326l-22 78c109 20 279 102 279 232c0 87 -98 144 -256 159l41 251c30 1 269 8 321 12l-1 -87z" />
    <glyph glyph-name="six" unicode="6" horiz-adv-x="707" 
d="M428 726l52 -69c-51 -30 -150 -117 -199 -219c167 6 294 -84 294 -210c0 -144 -122 -244 -240 -244c-57 0 -103 16 -141 55c-40 42 -61 97 -61 177c0 198 159 414 295 510zM223 222c0 -102 50 -165 119 -165c83 0 139 71 139 151c0 111 -114 169 -231 161
c-18 -42 -27 -84 -27 -147z" />
    <glyph glyph-name="seven" unicode="7" horiz-adv-x="707" 
d="M127 625l-4 84c74 -3 362 -9 457 -9l2 -3c-16 -26 -257 -658 -278 -713l-88 43c21 31 246 571 256 596z" />
    <glyph glyph-name="eight" unicode="8" horiz-adv-x="707" 
d="M354 651c-90 0 -126 -68 -126 -129c0 -64 47 -128 121 -128c72 0 128 50 128 131c0 83 -57 126 -123 126zM363 716c121 0 206 -71 206 -178c0 -58 -34 -133 -114 -169c79 -33 124 -97 124 -180c0 -84 -68 -205 -233 -205c-150 0 -218 88 -218 191c0 75 50 148 117 185
c-66 27 -109 91 -109 161c0 90 80 196 227 195zM351 49c78 0 133 53 133 134c0 89 -59 144 -134 144c-84 0 -129 -70 -129 -149c0 -66 50 -129 130 -129z" />
    <glyph glyph-name="nine" unicode="9" horiz-adv-x="707" 
d="M284 -26l-52 69c51 31 145 117 197 227c-169 -8 -296 81 -296 206c0 134 113 240 233 240c127 0 208 -96 208 -227c0 -210 -154 -419 -290 -515zM480 475c0 112 -49 169 -120 169c-79 0 -134 -71 -134 -149c0 -116 111 -169 231 -158c12 30 23 82 23 138z" />
    <glyph glyph-name="colon" unicode=":" horiz-adv-x="270" 
d="M81 40v107h108v-107h-108zM81 388v107h108v-107h-108z" />
    <glyph glyph-name="semicolon" unicode=";" horiz-adv-x="270" 
d="M56 -60l46 216l92 -41l-101 -190zM81 388v107h108v-107h-108z" />
    <glyph glyph-name="less" unicode="&#x3c;" horiz-adv-x="596" 
d="M65 236v60l467 236v-76l-386 -189v-2l386 -189v-76z" />
    <glyph glyph-name="equal" unicode="=" horiz-adv-x="596" 
d="M556 335h-516v66h516v-66zM556 137h-516v66h516v-66z" />
    <glyph glyph-name="greater" unicode="&#x3e;" horiz-adv-x="596" 
d="M532 298v-64l-468 -234v76l390 189v2l-390 189v76z" />
    <glyph glyph-name="question" unicode="?" horiz-adv-x="430" 
d="M33 643l23 77c162 -30 321 -110 321 -227c0 -146 -169 -237 -242 -269l-29 64c65 22 174 86 174 183c0 115 -140 160 -247 172zM107 0v98h100v-98h-100z" />
    <glyph glyph-name="at" unicode="@" horiz-adv-x="791" 
d="M339 319l116 2c-7 15 -54 103 -58 112c-7 -12 -50 -99 -58 -114zM591 31c-58 -32 -121 -49 -199 -49c-193 0 -336 134 -336 325c0 196 152 361 349 361c191 0 330 -139 330 -326c0 -56 -13 -103 -36 -137c-21 -31 -58 -49 -90 -49c-43 0 -73 21 -95 54
c-10 14 -29 50 -35 61l-161 -4c-8 -15 -39 -81 -46 -96l-60 34c28 47 166 305 179 325h15c40 -68 128 -229 153 -270c18 -30 34 -47 55 -47c39 0 53 49 53 123c0 154 -117 277 -263 277c-164 0 -276 -137 -276 -301c0 -159 115 -275 265 -275c68 0 124 21 172 50z" />
    <glyph glyph-name="A" unicode="A" horiz-adv-x="800" 
d="M102 -19l-82 52c55 96 343 664 367 702h2c88 -142 325 -593 393 -697l-85 -56c-20 38 -126 243 -137 259l-347 -14c-12 -19 -94 -212 -111 -246zM247 293l283 12c-11 22 -134 255 -144 271c-15 -22 -130 -267 -139 -283z" />
    <glyph glyph-name="B" unicode="B" horiz-adv-x="640" 
d="M150 370v111c0 30 -2 198 -5 219c53 0 99 -1 138 -6c202 -17 230 -95 230 -151c0 -38 -20 -107 -126 -156v-2c69 -11 157 -66 157 -156c0 -119 -151 -234 -391 -235h-8c5 55 5 357 5 376zM236 336v-270c109 11 208 63 208 157c0 70 -82 119 -208 113zM236 636v-243
c110 3 183 70 183 137c0 90 -114 104 -183 106z" />
    <glyph glyph-name="C" unicode="C" horiz-adv-x="660" 
d="M612 74l10 -80c-30 -6 -76 -10 -136 -10c-341 0 -426 204 -426 296c0 164 151 373 504 436l15 -84c-229 -26 -418 -163 -418 -335c0 -122 96 -237 335 -237c40 0 82 6 116 14z" />
    <glyph glyph-name="D" unicode="D" horiz-adv-x="826" 
d="M150 316v124c0 21 -1 232 -5 260c57 0 168 1 255 -10c326 -41 366 -186 366 -256c0 -310 -394 -439 -622 -439c4 46 6 294 6 321zM240 625v-542c273 24 428 185 428 325c0 152 -169 220 -428 217z" />
    <glyph glyph-name="E" unicode="E" horiz-adv-x="574" 
d="M480 76l4 -86c-16 0 -317 10 -337 10c3 53 3 267 3 290v134c0 16 -2 257 -3 276c24 0 285 15 317 19l4 -79c-32 0 -212 -5 -228 -5v-254c18 0 146 5 195 11l3 -79c-22 0 -178 4 -198 4v-244c24 0 158 -3 240 3z" />
    <glyph glyph-name="F" unicode="F" horiz-adv-x="536" 
d="M243 0h-101c8 53 8 267 8 291v133c0 16 -2 257 -4 276c25 0 276 11 316 15l4 -77l-226 -5v-255c18 0 160 6 207 9l3 -77l-210 4v-95c0 -16 -1 -205 3 -219z" />
    <glyph glyph-name="G" unicode="G" horiz-adv-x="740" 
d="M650 229v-73c0 -38 3 -127 3 -140c-45 -17 -138 -32 -221 -32c-227 0 -372 127 -372 292c0 113 117 341 495 443l20 -87c-228 -44 -416 -198 -416 -357c0 -104 96 -220 294 -220c42 0 83 7 107 15v167c0 29 -2 63 -3 69h94c-1 -24 -1 -47 -1 -77z" />
    <glyph glyph-name="H" unicode="H" horiz-adv-x="926" 
d="M244 0h-97c2 44 3 278 3 304v108c0 17 -3 264 -5 288h100c-2 -18 -5 -222 -5 -240v-78l446 19v80c0 17 -2 197 -4 219h102c-3 -24 -8 -294 -8 -318v-100c0 -13 2 -263 4 -282h-100c3 34 6 212 6 231v104l-446 -19v-64c0 -45 3 -229 4 -252z" />
    <glyph glyph-name="I" unicode="I" horiz-adv-x="390" 
d="M240 410v-108c0 -100 3 -279 4 -302h-97c2 44 3 278 3 304v108c0 17 -3 264 -5 288h100c-2 -18 -5 -170 -5 -290z" />
    <glyph glyph-name="J" unicode="J" horiz-adv-x="406" 
d="M277 460v-156c0 -218 -96 -322 -198 -368l-46 72c94 43 154 122 154 298v156c0 17 -3 214 -5 238h100c-2 -18 -5 -120 -5 -240z" />
    <glyph glyph-name="K" unicode="K" horiz-adv-x="722" 
d="M245 -10h-100c2 29 5 198 5 312v106c0 87 -5 279 -5 302h100c-1 -16 -5 -205 -5 -292v-108c0 -77 3 -301 5 -320zM667 66l-66 -70c-10 14 -311 324 -354 372c17 16 303 298 326 324l58 -66c-38 -36 -219 -198 -272 -251c31 -38 270 -272 308 -309z" />
    <glyph glyph-name="L" unicode="L" horiz-adv-x="533" 
d="M146 700h102c-4 -22 -8 -219 -8 -345v-283c24 0 142 0 238 4v-86c-14 0 -311 10 -336 10c8 53 8 267 8 291v133c0 16 -2 257 -4 276z" />
    <glyph glyph-name="M" unicode="M" horiz-adv-x="1093" 
d="M124 -26l-82 31c19 42 233 687 238 711h2c31 -63 219 -433 249 -483c35 56 243 421 262 452h2c35 -82 214 -569 257 -674l-86 -37c-25 75 -178 494 -194 531c-36 -56 -213 -369 -254 -434h-2c-58 108 -182 351 -222 442c-20 -62 -158 -500 -170 -539z" />
    <glyph glyph-name="N" unicode="N" horiz-adv-x="915" 
d="M211 -7l-94 7c5 75 32 637 37 740h2c28 -32 512 -535 544 -567c0 28 6 499 7 532l93 -5c-4 -60 -23 -469 -27 -721h-2c-27 27 -533 546 -551 571h-2c0 -35 -8 -524 -7 -557z" />
    <glyph glyph-name="O" unicode="O" 
d="M402 -16c-218 0 -342 154 -342 330c0 222 157 402 398 402c189 0 332 -125 332 -341c0 -156 -104 -391 -388 -391zM411 58c150 0 282 115 282 312c0 179 -118 272 -249 272c-179 0 -288 -142 -288 -313c0 -149 98 -271 255 -271z" />
    <glyph glyph-name="P" unicode="P" horiz-adv-x="614" 
d="M240 0h-94c2 43 5 284 5 355v110c0 23 -3 220 -3 235c42 0 126 -3 188 -13c134 -22 218 -86 218 -192c0 -137 -126 -248 -316 -286v-59c0 -20 0 -129 2 -150zM238 626v-347c126 27 219 91 219 201c0 30 -17 143 -219 146z" />
    <glyph glyph-name="Q" unicode="Q" horiz-adv-x="849" 
d="M808 -5l-18 -87c-112 22 -234 48 -345 70c-24 5 -42 7 -54 7c-24 0 -152 7 -237 93c-58 58 -94 139 -94 245c0 216 166 393 393 393c193 0 336 -124 336 -329c0 -129 -61 -290 -241 -361v-4c94 -9 190 -22 260 -27zM155 332c0 -153 102 -277 253 -277
c163 0 285 135 285 323c0 178 -130 266 -246 266c-218 0 -292 -186 -292 -312z" />
    <glyph glyph-name="R" unicode="R" horiz-adv-x="692" 
d="M240 633v-327c0 -38 3 -291 5 -306h-97c4 24 2 341 2 362v82c0 30 -2 237 -5 256c47 0 131 -1 208 -10c132 -16 207 -72 207 -157s-57 -151 -139 -203c25 -34 205 -257 233 -287l-76 -61c-11 14 -236 309 -266 351c50 27 150 88 150 186c0 45 -33 112 -222 114z" />
    <glyph glyph-name="S" unicode="S" horiz-adv-x="527" 
d="M146 -18l-26 75c98 20 223 70 223 151c0 50 -32 76 -104 115c-85 46 -144 88 -144 159c0 106 148 205 285 236l21 -77c-61 -10 -209 -58 -209 -142c0 -52 71 -84 113 -109c76 -45 137 -77 137 -158c0 -98 -104 -205 -296 -250z" />
    <glyph glyph-name="T" unicode="T" horiz-adv-x="650" 
d="M382 0h-108c5 26 6 318 6 477v149c-115 0 -257 -5 -283 -9v85c40 -8 277 -12 288 -12h87c19 0 237 4 281 12v-85c-14 4 -199 9 -283 9v-165c0 -203 10 -441 12 -461z" />
    <glyph glyph-name="U" unicode="U" horiz-adv-x="833" 
d="M201 531v-68c0 -162 7 -236 46 -305c39 -68 101 -97 173 -97c86 0 141 43 174 95c48 75 49 197 49 354v35c0 69 -4 128 -6 165h95c0 -22 1 -88 1 -167v-46c0 -192 -11 -314 -86 -407c-59 -72 -134 -106 -240 -106c-54 0 -163 8 -233 119c-47 75 -64 153 -64 396v54
c0 46 1 119 1 142h95c-2 -26 -5 -73 -5 -164z" />
    <glyph glyph-name="V" unicode="V" horiz-adv-x="735" 
d="M655 716l82 -48c-35 -52 -340 -632 -376 -701h-2c-21 31 -314 655 -344 701l86 48c16 -45 249 -534 269 -565c17 24 273 533 285 565z" />
    <glyph glyph-name="W" unicode="W" horiz-adv-x="1070" 
d="M977 700l84 -35c-11 -26 -253 -609 -280 -666h-2c-36 70 -213 364 -239 414c-40 -74 -207 -374 -248 -448h-2c-31 80 -206 594 -247 708l87 37c33 -115 167 -506 183 -560c25 55 161 296 230 422h2c59 -105 176 -306 231 -401c16 49 181 473 201 529z" />
    <glyph glyph-name="X" unicode="X" horiz-adv-x="757" 
d="M120 -18l-65 66c24 23 239 274 270 311c-40 46 -196 230 -236 276l73 67c26 -36 150 -194 223 -282c34 38 212 248 240 284l68 -68c-35 -33 -235 -242 -258 -275c30 -33 234 -264 270 -309l-72 -68c-23 32 -233 289 -258 317c-12 -15 -242 -301 -255 -319z" />
    <glyph glyph-name="Y" unicode="Y" horiz-adv-x="684" 
d="M394 0h-100c1 23 5 129 5 142v75c0 130 -61 235 -129 310c-40 45 -93 88 -147 111l41 78c64 -33 130 -88 156 -117c47 -54 108 -132 130 -215h2c29 83 67 141 121 202c44 49 130 110 192 130l30 -78c-64 -19 -135 -65 -191 -130c-68 -78 -115 -185 -115 -291v-94
c0 -14 3 -103 5 -123z" />
    <glyph glyph-name="Z" unicode="Z" horiz-adv-x="688" 
d="M92 643l4 76c65 -6 529 -24 555 -24v-2c-46 -50 -436 -613 -446 -627c54 0 387 3 415 7l-4 -83c-25 0 -519 10 -571 10v2c45 44 429 599 453 632c-39 0 -377 9 -406 9z" />
    <glyph glyph-name="bracketleft" unicode="[" horiz-adv-x="350" 
d="M106 764l222 22l5 -70l-139 -5c-3 -82 -4 -165 -4 -247v-128c0 -118 1 -236 4 -354l134 2l5 -70l-227 8c4 133 4 267 4 400v82c0 120 0 240 -4 360z" />
    <glyph glyph-name="backslash" unicode="\" horiz-adv-x="339" 
d="M417 23l-65 -43c-30 51 -119 205 -214 356c-90 143 -184 283 -213 323l67 37c29 -51 114 -183 200 -319c97 -152 192 -308 225 -354z" />
    <glyph glyph-name="bracketright" unicode="]" horiz-adv-x="350" 
d="M244 -64l-222 -22l-5 70l139 5c3 82 4 165 4 247v128c0 118 -1 236 -4 354l-134 -2l-5 70l227 -8c-4 -133 -4 -267 -4 -400v-82c0 -120 0 -240 4 -360z" />
    <glyph glyph-name="asciicircum" unicode="^" horiz-adv-x="596" 
d="M539 187h-77l-163 382h-3l-163 -382h-76l207 463h68z" />
    <glyph glyph-name="underscore" unicode="_" horiz-adv-x="500" 
d="M0 -125v50h500v-50h-500z" />
    <glyph glyph-name="quoteleft" unicode="&#x2018;" horiz-adv-x="160" 
d="M94 716l56 -191l-39 -18l-97 173z" />
    <glyph glyph-name="a" unicode="a" horiz-adv-x="710" 
d="M91 -18l-77 44c48 85 308 566 328 599h2c77 -121 293 -504 352 -593l-81 -49c-16 32 -110 200 -119 215l-309 -12c-12 -27 -82 -175 -96 -204zM221 249l244 10c-10 19 -115 211 -124 225c-13 -20 -112 -221 -120 -235z" />
    <glyph glyph-name="b" unicode="b" horiz-adv-x="580" 
d="M132 315v94c0 25 -2 168 -5 186c48 0 108 0 144 -3c183 -14 212 -83 212 -130c0 -33 -23 -97 -121 -135v-2c67 -9 149 -54 149 -130c0 -114 -136 -200 -366 -200h-18c5 47 5 303 5 320zM216 283v-223c101 7 202 44 202 130c0 66 -89 98 -202 93zM216 536v-199
c99 1 179 57 179 114c0 76 -115 86 -179 85z" />
    <glyph glyph-name="c" unicode="c" horiz-adv-x="587" 
d="M547 68l9 -75c-17 -3 -59 -7 -114 -7c-310 0 -386 170 -386 252c0 144 136 317 447 372l14 -76c-198 -24 -368 -134 -368 -282c0 -100 85 -194 302 -194c37 0 75 5 96 10z" />
    <glyph glyph-name="d" unicode="d" horiz-adv-x="722" 
d="M132 269v105c0 18 -1 197 -5 221c52 0 145 1 224 -5c297 -23 323 -164 323 -223c0 -272 -309 -371 -548 -371c4 39 6 250 6 273zM218 528v-458c244 16 364 153 364 277c0 131 -135 185 -364 181z" />
    <glyph glyph-name="e" unicode="e" horiz-adv-x="528" 
d="M448 67l3 -76c-30 0 -304 9 -322 9c3 45 3 227 3 247v113c0 14 -2 219 -3 235c22 0 259 13 304 16l4 -72c-39 0 -203 -4 -218 -4v-208c17 0 133 4 188 9l3 -73c-15 0 -58 1 -100 2c-41 0 -81 1 -91 1v-202c22 0 144 -2 229 3z" />
    <glyph glyph-name="f" unicode="f" horiz-adv-x="495" 
d="M222 0h-98c8 45 8 227 8 247v113c0 14 -2 219 -4 235c23 0 251 9 303 13l4 -72l-216 -4v-208c17 0 146 5 199 8l3 -71l-202 3v-78c0 -13 -1 -174 3 -186z" />
    <glyph glyph-name="g" unicode="g" horiz-adv-x="658" 
d="M582 195v-62c0 -33 2 -109 2 -120c-41 -15 -125 -27 -201 -27c-206 0 -328 108 -328 249c0 100 106 289 440 376l18 -78c-197 -37 -365 -164 -365 -299c0 -89 74 -183 254 -183c38 0 76 5 94 12v138c0 25 -2 54 -3 59h89v-65z" />
    <glyph glyph-name="h" unicode="h" horiz-adv-x="823" 
d="M223 0h-94c2 37 3 236 3 258v92c0 15 -3 225 -5 245h97c-2 -15 -5 -189 -5 -204v-62l385 16v64c0 14 -2 167 -3 186h97c-2 -20 -7 -250 -7 -270v-85c0 -11 2 -224 4 -240h-96c3 29 5 180 5 196v86l-385 -16v-52c0 -38 3 -194 4 -214z" />
    <glyph glyph-name="i" unicode="i" horiz-adv-x="352" 
d="M219 349v-92c0 -85 3 -237 4 -257h-94c2 37 3 236 3 258v92c0 15 -3 225 -5 245h97c-2 -15 -5 -144 -5 -246z" />
    <glyph glyph-name="j" unicode="j" horiz-adv-x="365" 
d="M252 391v-133c0 -185 -90 -279 -183 -318l-44 67c86 36 140 104 140 253v133c0 14 -3 182 -4 202h96c-2 -15 -5 -102 -5 -204z" />
    <glyph glyph-name="k" unicode="k" horiz-adv-x="658" 
d="M223 -9h-96c2 25 5 169 5 266v90c0 74 -5 237 -5 257h96c-1 -14 -5 -175 -5 -249v-91c0 -66 3 -256 5 -273zM607 60l-62 -68c-11 12 -281 279 -320 321c15 14 275 257 296 279l53 -65c-36 -28 -196 -163 -245 -208c28 -33 242 -227 278 -259z" />
    <glyph glyph-name="l" unicode="l" horiz-adv-x="492" 
d="M128 595h99c-4 -19 -8 -186 -8 -293v-235c22 0 130 0 227 4v-80c-29 0 -299 9 -322 9c8 45 8 227 8 247v113c0 14 -2 219 -4 235z" />
    <glyph glyph-name="m" unicode="m" horiz-adv-x="940" 
d="M112 -22l-82 26c15 36 200 584 205 605h4c27 -54 191 -364 218 -413c29 48 216 361 232 387h3c27 -69 184 -484 221 -574l-83 -31c-21 64 -145 412 -157 445c-29 -47 -187 -307 -226 -369h-2c-51 95 -157 294 -197 371c-16 -53 -127 -414 -136 -447z" />
    <glyph glyph-name="n" unicode="n" horiz-adv-x="803" 
d="M193 -6l-92 6c5 64 30 541 34 629h5c26 -28 443 -448 471 -475c0 24 2 417 3 445l89 -4c-4 -51 -21 -399 -25 -613h-4c-26 23 -464 460 -475 472h-2c2 -16 -5 -432 -4 -460z" />
    <glyph glyph-name="o" unicode="o" horiz-adv-x="774" 
d="M363 -14c-199 0 -308 131 -308 281c0 189 139 342 359 342c176 0 305 -107 305 -290c0 -133 -94 -333 -356 -333zM371 52c137 0 255 95 255 263c0 152 -106 228 -225 228c-159 0 -254 -118 -254 -263c0 -127 85 -228 224 -228z" />
    <glyph glyph-name="p" unicode="p" horiz-adv-x="560" 
d="M219 0h-91c2 37 4 241 4 302v93c0 20 -2 187 -2 200c38 0 123 -1 180 -10c122 -19 197 -74 197 -164c0 -122 -119 -215 -289 -245v-48c0 -17 0 -110 1 -128zM218 528v-286c108 21 197 71 197 169c0 31 -20 115 -197 117z" />
    <glyph glyph-name="q" unicode="q" horiz-adv-x="773" 
d="M735 -1l-16 -81c-102 18 -214 38 -314 61c-22 5 -34 8 -45 8c-22 0 -141 8 -218 81c-51 49 -87 116 -87 207c0 183 148 334 357 334c176 0 306 -106 306 -280c0 -110 -58 -250 -214 -306v-3c80 -8 168 -17 231 -21zM147 282c0 -130 89 -229 224 -229
c147 0 255 109 255 268c0 152 -116 222 -219 222c-197 0 -260 -154 -260 -261z" />
    <glyph glyph-name="r" unicode="r" horiz-adv-x="616" 
d="M219 530v-270c0 -32 3 -247 5 -260h-94c3 20 2 290 2 308v69c0 26 -2 202 -5 218c43 0 122 2 198 -7c120 -14 190 -63 190 -137c0 -70 -54 -130 -129 -174c23 -31 184 -207 210 -232l-69 -61c-10 12 -216 264 -243 300c45 23 136 69 136 154c0 40 -31 91 -201 92z" />
    <glyph glyph-name="s" unicode="s" horiz-adv-x="480" 
d="M128 -16l-23 70c92 18 209 55 209 123c0 44 -31 65 -97 97c-78 38 -135 74 -135 136c0 95 139 178 268 201l19 -70c-59 -9 -195 -43 -195 -117c0 -46 65 -69 104 -91c69 -38 129 -65 129 -136c0 -88 -101 -177 -279 -213z" />
    <glyph glyph-name="t" unicode="t" horiz-adv-x="565" 
d="M338 0h-104c5 22 6 270 6 405v119c-103 0 -232 -4 -245 -8v81c26 -7 241 -10 251 -10h80c17 0 215 3 244 10v-81c-2 4 -170 8 -243 8v-132c0 -173 9 -375 11 -392z" />
    <glyph glyph-name="u" unicode="u" horiz-adv-x="740" 
d="M180 451v-57c0 -138 8 -201 42 -257c35 -57 86 -82 151 -82c78 0 123 36 153 81c42 62 43 164 43 298v29c0 59 -4 109 -5 141h91c0 -19 1 -75 1 -142v-40c0 -163 -12 -266 -80 -345c-54 -62 -118 -91 -215 -91c-49 0 -144 7 -208 102c-42 63 -60 130 -60 336v46
c0 39 1 101 1 121h90c-1 -22 -4 -62 -4 -140z" />
    <glyph glyph-name="v" unicode="v" horiz-adv-x="655" 
d="M576 610l80 -42c-29 -44 -305 -537 -337 -596h-2c-17 28 -284 557 -308 596l83 42c14 -39 216 -453 234 -480c15 21 239 452 250 480z" />
    <glyph glyph-name="w" unicode="w" horiz-adv-x="945" 
d="M858 599l84 -34c-8 -22 -225 -517 -250 -566h-4c-34 60 -189 303 -213 345c-36 -64 -180 -311 -218 -374h-4c-28 68 -188 505 -223 602l86 34c29 -98 143 -426 158 -471c25 46 140 244 204 358h2c56 -96 160 -259 207 -340c15 42 156 398 171 446z" />
    <glyph glyph-name="x" unicode="x" horiz-adv-x="659" 
d="M98 -18l-63 59c24 19 216 232 244 264c-37 41 -176 193 -211 232l66 63c24 -31 133 -165 199 -241c31 33 188 210 214 240l61 -60c-29 -28 -207 -204 -229 -232c27 -30 208 -227 243 -263l-69 -61c-24 28 -207 246 -229 271c-10 -15 -210 -256 -226 -272z" />
    <glyph glyph-name="y" unicode="y" horiz-adv-x="585" 
d="M341 0h-96c0 20 4 110 4 121v60c0 111 -52 198 -114 262c-37 38 -85 73 -123 88l37 73c48 -24 108 -69 131 -94c43 -46 98 -112 119 -183h1c27 71 61 120 110 172c40 42 117 92 164 107l26 -73c-48 -15 -110 -51 -161 -106c-62 -66 -103 -155 -103 -246v-76
c0 -12 3 -88 5 -105z" />
    <glyph glyph-name="z" unicode="z" horiz-adv-x="601" 
d="M77 538l4 73c51 -5 473 -20 487 -20v-2c-33 -43 -385 -518 -393 -529c49 0 349 3 370 6l-3 -75c-19 0 -469 9 -512 9v2c38 40 380 505 400 532c-35 0 -336 4 -353 4z" />
    <glyph glyph-name="braceleft" unicode="{" horiz-adv-x="350" 
d="M273 781l42 -60c-76 -35 -96 -103 -99 -221c-1 -58 -36 -121 -83 -142c51 -23 82 -74 82 -162c0 -100 27 -191 100 -222l-42 -60c-87 38 -135 101 -141 282c-4 117 -39 128 -102 128v57c63 0 100 11 103 122c5 175 53 234 140 278z" />
    <glyph glyph-name="bar" unicode="|" horiz-adv-x="247" 
d="M161 -250h-74v1000h74v-1000z" />
    <glyph glyph-name="braceright" unicode="}" horiz-adv-x="350" 
d="M75 -86l-40 60c76 35 94 103 98 221c2 66 37 127 84 149c-51 25 -82 74 -82 155c0 100 -27 191 -100 222l40 60c89 -38 137 -101 143 -277c4 -117 39 -128 102 -128v-57c-63 0 -100 -11 -103 -122c-5 -180 -53 -239 -142 -283z" />
    <glyph glyph-name="asciitilde" unicode="~" horiz-adv-x="596" 
d="M114 207h-66c-3 106 51 157 123 157c43 0 75 -14 141 -45c49 -24 85 -42 119 -42s51 28 52 83h66c5 -117 -53 -158 -118 -158c-41 0 -78 13 -144 45c-47 24 -82 44 -116 44s-55 -24 -57 -84z" />
    <glyph glyph-name="exclamdown" unicode="&#xa1;" horiz-adv-x="300" 
d="M213 700v-98h-100v98h100zM134 476l56 8c4 -141 -2 -380 4 -489l-107 5c10 84 38 340 47 476z" />
    <glyph glyph-name="cent" unicode="&#xa2;" horiz-adv-x="707" 
d="M346 -16l2 163c-124 29 -164 141 -164 186c0 102 68 190 164 242l-2 178h73l-3 -146c30 14 71 24 112 32l11 -82c-178 -18 -261 -116 -261 -211c0 -93 97 -144 200 -144c29 0 54 4 76 8l7 -76c-26 -5 -57 -7 -82 -7c-24 0 -46 2 -63 4l3 -147h-73z" />
    <glyph glyph-name="sterling" unicode="&#xa3;" horiz-adv-x="707" 
d="M565 75v-80c-35 0 -338 5 -398 5c30 103 44 195 57 284c-37 -3 -71 -5 -104 -7l-1 68c36 1 76 3 115 6c3 20 6 40 10 59c37 190 154 273 304 306l18 -83c-113 -15 -198 -42 -236 -239c-3 -13 -5 -26 -8 -39c77 5 146 10 185 14l-4 -72c-48 -1 -119 -3 -192 -7
c-12 -68 -26 -140 -49 -220c64 0 184 2 303 5z" />
    <glyph glyph-name="fraction" unicode="&#x2044;" horiz-adv-x="150" 
d="M322 686c-30 -45 -126 -190 -217 -338c-96 -156 -187 -316 -217 -369l-61 42c35 50 131 212 229 369c88 141 174 278 203 331z" />
    <glyph glyph-name="yen" unicode="&#xa5;" horiz-adv-x="707" 
d="M392 0h-93c1 25 5 138 5 152v71c-80 1 -142 0 -166 -1l-2 66c23 -1 84 -2 166 -1c-71 108 -186 289 -241 367l74 51c52 -88 148 -247 217 -352h2c67 106 175 273 220 352l72 -46c-36 -48 -179 -264 -258 -373c78 0 139 1 166 2l2 -66c-25 1 -88 2 -169 2v-92
c0 -15 3 -111 5 -132z" />
    <glyph glyph-name="florin" unicode="&#x192;" horiz-adv-x="707" 
d="M329 0h-89v47c0 28 -1 230 13 335c28 207 152 303 296 334l17 -88c-76 -5 -198 -25 -227 -256c-1 -9 -2 -21 -3 -36c47 0 147 7 187 11l-4 -72c-40 -1 -147 -5 -186 -7c-3 -58 -4 -125 -4 -185v-83z" />
    <glyph glyph-name="section" unicode="&#xa7;" horiz-adv-x="482" 
d="M433 292c0 -37 -17 -73 -83 -106c23 -20 30 -45 30 -65v-1c-1 -97 -94 -166 -274 -187l-17 74c116 5 206 40 206 97c0 51 -62 66 -126 97c-61 29 -121 51 -120 121c0 32 18 76 81 106c-20 20 -29 37 -29 69v2c1 79 111 154 247 189l21 -76c-115 -20 -183 -63 -183 -109
c0 -37 45 -55 73 -67s57 -23 84 -35c47 -21 91 -49 90 -109zM357 275v1c0 31 -17 48 -88 77c-30 12 -80 35 -97 46c-31 -17 -48 -38 -48 -62c0 -37 39 -53 67 -66c38 -17 91 -38 119 -54c28 13 47 35 47 58z" />
    <glyph glyph-name="currency" unicode="&#xa4;" horiz-adv-x="521" 
d="M497 524l-80 -72c18 -27 34 -68 34 -117c0 -55 -16 -97 -35 -123l77 -74l-49 -49l-69 79c-30 -28 -77 -42 -117 -42c-41 0 -87 14 -114 39l-68 -76l-47 49l74 71c-20 27 -37 70 -37 120c0 54 18 95 38 123l-77 72l48 50l70 -77c29 25 71 40 115 40h1c46 0 87 -15 115 -39
l72 76zM372 334c0 69 -41 133 -113 133h-1c-69 0 -113 -60 -113 -136c0 -94 63 -135 113 -135c54 0 114 39 114 138z" />
    <glyph glyph-name="quotesingle" unicode="'" horiz-adv-x="160" 
d="M59 518l-23 198h88l-23 -198h-42z" />
    <glyph glyph-name="quotedblleft" unicode="&#x201c;" horiz-adv-x="305" 
d="M85 716l81 -162l-37 -23l-115 137zM229 716l65 -190l-40 -19l-101 171z" />
    <glyph glyph-name="guillemotleft" unicode="&#xab;" horiz-adv-x="490" 
d="M185 510l50 -46c-22 -20 -88 -92 -111 -124c27 -31 87 -99 123 -131l-51 -49c-22 28 -124 142 -153 175c34 43 115 142 142 175zM378 540l50 -50c-32 -35 -114 -118 -135 -150c27 -30 100 -108 133 -140l-48 -54c-25 31 -141 156 -170 189c34 43 137 161 170 205z" />
    <glyph glyph-name="guilsinglleft" unicode="&#x2039;" horiz-adv-x="320" 
d="M208 540l50 -50c-32 -35 -114 -118 -135 -150c27 -30 100 -108 133 -140l-48 -54c-25 31 -141 156 -170 189c34 43 137 161 170 205z" />
    <glyph glyph-name="guilsinglright" unicode="&#x203a;" horiz-adv-x="320" 
d="M112 146l-50 50c32 35 114 118 135 150c-27 30 -100 108 -133 140l48 54c25 -31 141 -156 170 -189c-34 -43 -137 -161 -170 -205z" />
    <glyph glyph-name="fi" unicode="&#xfb01;" horiz-adv-x="846" 
d="M222 0h-98c8 45 8 227 8 247v113c0 14 -2 219 -4 235c23 0 251 9 303 13l4 -72l-216 -4v-208c17 0 146 5 199 8l3 -71l-202 3v-78c0 -13 -1 -174 3 -186zM714 349v-92c0 -85 3 -237 4 -257h-94c2 37 3 236 3 258v92c0 15 -3 225 -5 245h97c-2 -15 -5 -144 -5 -246z" />
    <glyph glyph-name="fl" unicode="&#xfb02;" horiz-adv-x="987" 
d="M222 0h-98c8 45 8 227 8 247v113c0 14 -2 219 -4 235c23 0 251 9 303 13l4 -72l-216 -4v-208c17 0 146 5 199 8l3 -71l-202 3v-78c0 -13 -1 -174 3 -186zM623 595h99c-4 -19 -8 -186 -8 -293v-235c22 0 130 0 227 4v-80c-29 0 -299 9 -322 9c8 45 8 227 8 247v113
c0 14 -2 219 -4 235z" />
    <glyph glyph-name="endash" unicode="&#x2013;" horiz-adv-x="500" 
d="M0 305v70c55 -1 163 -2 191 -2h120c22 0 171 2 189 2v-70c-16 2 -157 2 -189 2h-120c-16 0 -144 1 -191 -2z" />
    <glyph glyph-name="dagger" unicode="&#x2020;" horiz-adv-x="505" 
d="M463 393l-174 8l9 -450h-92l9 450l-174 -8v80l174 -8l-9 209h92l-9 -209l174 8v-80z" />
    <glyph glyph-name="daggerdbl" unicode="&#x2021;" horiz-adv-x="505" 
d="M463 145l-172 8l7 -203h-91l6 203l-171 -8v80l172 -8v195l-172 -8v80l172 -8l-7 198h91l-7 -198l172 8v-80l-172 8v-195l172 8v-80z" />
    <glyph glyph-name="periodcentered" unicode="&#xb7;" horiz-adv-x="270" 
d="M79 280v111h112v-111h-112z" />
    <glyph glyph-name="paragraph" unicode="&#xb6;" horiz-adv-x="572" 
d="M470 677c-2 -18 -4 -293 -4 -311v-112c0 -45 1 -279 2 -302h-73c1 23 2 258 2 303v112c0 8 -1 244 -1 244l-68 -5s-2 -231 -2 -239v-112c0 -45 1 -280 2 -303h-73c1 23 2 223 2 268v38c-105 16 -217 71 -217 182c0 170 202 238 430 237z" />
    <glyph glyph-name="bullet" unicode="&#x2022;" horiz-adv-x="300" 
d="M62 375c41 21 78 45 103 63c27 -42 47 -78 73 -107c-50 -31 -83 -54 -120 -81c-20 47 -36 87 -56 125z" />
    <glyph glyph-name="quotesinglbase" unicode="&#x201a;" horiz-adv-x="160" 
d="M10 -75l56 191l80 -36l-97 -173z" />
    <glyph glyph-name="quotedblbase" unicode="&#x201e;" horiz-adv-x="305" 
d="M139 -46l81 162l71 -48l-115 -137zM11 -74l65 190l76 -38l-102 -172z" />
    <glyph glyph-name="quotedblright" unicode="&#x201d;" horiz-adv-x="305" 
d="M139 554l81 162l71 -48l-115 -137zM11 526l65 190l76 -38l-102 -172z" />
    <glyph glyph-name="guillemotright" unicode="&#xbb;" horiz-adv-x="490" 
d="M112 146l-50 50c32 35 114 118 135 150c-27 30 -100 108 -133 140l48 54c25 -31 141 -156 170 -189c-34 -43 -137 -161 -170 -205zM305 176l-50 46c22 20 88 92 111 124c-27 31 -87 99 -123 131l51 49c22 -28 124 -142 153 -175c-34 -43 -115 -142 -142 -175z" />
    <glyph glyph-name="ellipsis" unicode="&#x2026;" horiz-adv-x="1000" 
d="M115 0v102h103v-102h-103zM448 0v102h103v-102h-103zM781 0v102h103v-102h-103z" />
    <glyph glyph-name="perthousand" unicode="&#x2030;" horiz-adv-x="1383" 
d="M231 321c-128 0 -191 86 -191 182c0 87 73 197 208 197c110 0 185 -62 185 -188c0 -63 -51 -191 -202 -191zM233 377c68 0 124 50 124 133c0 92 -53 134 -115 134c-90 0 -127 -81 -127 -138c0 -66 46 -129 118 -129zM701 0c-128 0 -191 86 -191 182c0 87 73 197 208 197
c110 0 185 -62 185 -188c0 -63 -51 -191 -202 -191zM703 52c68 0 124 49 124 132c0 93 -53 135 -115 135c-90 0 -127 -81 -127 -138c0 -66 46 -129 118 -129zM1141 0c-128 0 -191 86 -191 182c0 87 73 197 208 197c110 0 185 -62 185 -188c0 -63 -51 -191 -202 -191z
M1143 52c68 0 124 49 124 132c0 93 -53 135 -115 135c-90 0 -127 -81 -127 -138c0 -66 46 -129 118 -129zM290 -21l-61 42c35 50 131 212 229 369c88 141 174 278 203 331l63 -35c-30 -45 -126 -190 -217 -338c-96 -156 -187 -316 -217 -369z" />
    <glyph glyph-name="questiondown" unicode="&#xbf;" horiz-adv-x="430" 
d="M397 57l-23 -77c-162 30 -321 110 -321 227c0 146 169 237 242 269l29 -64c-65 -22 -174 -86 -174 -183c0 -115 140 -160 247 -172zM323 700v-98h-100v98h100z" />
    <glyph glyph-name="grave" unicode="`" 
d="M352 905l136 -118l-24 -35l-159 82z" />
    <glyph glyph-name="acute" unicode="&#xb4;" 
d="M381 787l137 118l48 -70l-159 -84z" />
    <glyph glyph-name="circumflex" unicode="&#x2c6;" 
d="M281 803l149 100l140 -100l-41 -48l-102 84l-110 -84z" />
    <glyph glyph-name="tilde" unicode="&#x2dc;" 
d="M305 762l-41 29c26 43 59 78 92 78c34 0 57 -13 79 -24c17 -9 32 -16 53 -16c23 1 43 21 58 43l41 -33c-26 -39 -59 -74 -92 -74c-29 -1 -51 12 -73 23c-20 10 -38 17 -59 17c-24 0 -43 -21 -58 -43z" />
    <glyph glyph-name="macron" unicode="&#xaf;" 
d="M287 770l8 56l268 3l-4 -64z" />
    <glyph glyph-name="breve" unicode="&#x2d8;" 
d="M540 878l35 -43c-33 -38 -97 -75 -151 -75c-51 0 -122 39 -149 73l38 45c25 -27 64 -55 119 -55c47 0 82 25 108 55z" />
    <glyph glyph-name="dotaccent" unicode="&#x2d9;" 
d="M425 765l-71 71l71 70l71 -70z" />
    <glyph glyph-name="dieresis" unicode="&#xa8;" 
d="M315 765l-64 64l64 63l64 -63zM535 765l-64 64l64 63l64 -63z" />
    <glyph glyph-name="ring" unicode="&#x2da;" 
d="M419 755c-51 0 -97 30 -97 77c2 53 51 88 105 88c67 0 101 -35 101 -75c0 -56 -52 -90 -109 -90zM424 793c25 0 49 15 49 47c0 23 -19 41 -47 41c-22 0 -48 -15 -48 -45c0 -26 21 -43 46 -43z" />
    <glyph glyph-name="cedilla" unicode="&#xb8;" 
d="M412 0h61l-38 -53c35 -10 74 -40 74 -75c0 -51 -78 -96 -163 -105l-10 43c47 2 95 22 97 59c0 27 -33 54 -65 65z" />
    <glyph glyph-name="hungarumlaut" unicode="&#x2dd;" 
d="M405 780l113 140l55 -54l-135 -114zM275 780l89 136l59 -49l-114 -114z" />
    <glyph glyph-name="ogonek" unicode="&#x2db;" 
d="M450 0l53 -2c-58 -34 -92 -76 -92 -102c0 -27 27 -63 89 -75l-13 -42c-74 13 -151 53 -151 105c0 45 55 87 114 116z" />
    <glyph glyph-name="caron" unicode="&#x2c7;" 
d="M430 755l-149 98l40 48l110 -82l100 82l39 -48z" />
    <glyph glyph-name="emdash" unicode="&#x2014;" horiz-adv-x="1000" 
d="M0 305v70c55 -1 163 -2 291 -2h420c122 0 271 2 289 2v-70c-16 2 -157 2 -289 2h-420c-116 0 -244 1 -291 -2z" />
    <glyph glyph-name="AE" unicode="&#xc6;" horiz-adv-x="935" 
d="M841 76l4 -86c-36 0 -347 10 -367 10c1 23 5 134 5 200v79l-242 -5c-22 -30 -173 -259 -190 -290l-76 58c55 62 413 562 487 658c22 0 331 15 363 19l4 -79c-32 0 -242 -5 -258 -5v-285c18 0 176 6 225 12l3 -79c-22 0 -208 3 -228 3v-213c24 0 188 -3 270 3zM284 337
l199 6v273h-5c-74 -110 -177 -255 -194 -279z" />
    <glyph glyph-name="ordfeminine" unicode="&#xaa;" horiz-adv-x="488" 
d="M102 344l-64 35c26 39 184 322 200 343h2c49 -76 181 -297 211 -337l-66 -40c-10 19 -58 96 -63 104l-170 -8c-6 -9 -42 -80 -50 -97zM178 495l120 6c-7 11 -54 90 -62 103c-11 -17 -53 -101 -58 -109z" />
    <glyph glyph-name="Lslash" unicode="&#x141;" horiz-adv-x="533" 
d="M478 76v-86c-14 0 -311 10 -336 10c8 53 8 267 8 291v13c-42 -15 -79 -30 -106 -42l-18 64c26 9 68 24 124 44v54c0 16 -2 257 -4 276h102c-4 -20 -7 -178 -7 -298c59 21 117 43 145 56l19 -65c-37 -13 -99 -34 -165 -58v-263c24 0 142 0 238 4z" />
    <glyph glyph-name="Oslash" unicode="&#xd8;" 
d="M790 375c0 -151 -101 -391 -386 -391c-97 0 -168 26 -222 70c-29 -27 -58 -56 -86 -86l-46 52c28 28 55 56 84 83c-48 55 -74 132 -74 211c0 222 157 402 398 402c80 0 153 -23 209 -69c30 31 58 59 85 87l53 -48c-29 -29 -58 -57 -88 -89c47 -55 73 -129 73 -222z
M409 58c145 0 284 111 284 312c0 60 -7 118 -39 163c-141 -140 -276 -277 -411 -416c44 -42 100 -59 166 -59zM156 329c0 -58 13 -118 42 -160c138 141 273 278 409 417c-46 41 -103 56 -163 56c-179 0 -288 -143 -288 -313z" />
    <glyph glyph-name="OE" unicode="&#x152;" horiz-adv-x="1147" 
d="M1008 392l3 -79l-232 4v-244c28 0 192 -3 274 3l4 -86c-36 0 -347 10 -367 10c1 20 2 63 3 126h-3c-65 -95 -169 -142 -303 -142c-205 0 -327 167 -327 332c0 205 143 400 395 400c87 0 177 -30 236 -102h2l-3 86c24 0 315 15 347 19l4 -79l-262 -5v-254
c22 0 180 5 229 11zM409 57c146 0 288 118 288 293v31c0 168 -121 260 -254 260c-209 0 -287 -182 -287 -310c0 -136 86 -274 253 -274z" />
    <glyph glyph-name="ordmasculine" unicode="&#xba;" horiz-adv-x="473" 
d="M215 350c-106 0 -172 80 -172 169c0 92 72 197 210 197c101 0 177 -62 177 -170c0 -76 -53 -196 -215 -196zM223 405c73 0 127 50 127 138c0 76 -53 118 -109 118c-77 0 -119 -68 -119 -136c0 -66 46 -120 101 -120z" />
    <glyph glyph-name="ae" unicode="&#xe6;" horiz-adv-x="831" 
d="M750 66l4 -75c-33 0 -316 9 -334 9c1 20 5 114 5 170v64l-210 -5c-17 -25 -136 -202 -164 -246l-71 51c47 56 358 477 425 561c20 0 302 13 331 16l3 -71c-29 0 -220 -4 -231 -4v-236c13 0 157 5 201 10l3 -71c-20 0 -189 2 -204 2v-178c18 0 168 -2 242 3zM258 289
l167 6v225h-4c-65 -90 -147 -208 -163 -231z" />
    <glyph glyph-name="dotlessi" unicode="&#x131;" horiz-adv-x="352" 
d="M219 349v-92c0 -85 3 -237 4 -257h-94c2 37 3 236 3 258v92c0 15 -3 225 -5 245h97c-2 -15 -5 -144 -5 -246z" />
    <glyph glyph-name="lslash" unicode="&#x142;" horiz-adv-x="497" 
d="M224 362c53 21 104 41 125 51l20 -57c-29 -11 -85 -31 -145 -54v-235c22 0 130 0 227 4v-80c-29 0 -299 9 -322 9c8 45 8 225 8 245v24c-38 -14 -67 -26 -92 -37l-19 55c24 9 60 22 111 43v28c0 14 -2 221 -4 237h99c-4 -19 -8 -157 -8 -214v-19z" />
    <glyph glyph-name="oslash" unicode="&#xf8;" horiz-adv-x="774" 
d="M368 -14c-89 0 -155 21 -204 58c-27 -23 -51 -47 -78 -72l-46 51c26 20 54 42 80 65c-42 46 -64 112 -64 179c0 189 141 342 361 342c73 0 139 -20 190 -59c27 27 57 58 80 82l47 -49c-28 -25 -52 -46 -81 -75c41 -45 64 -110 64 -189c0 -129 -90 -333 -349 -333zM372 50
c128 0 256 94 256 265c0 51 -3 98 -31 137c-129 -120 -247 -234 -375 -353c40 -35 90 -49 150 -49zM145 280c0 -50 8 -100 34 -135c131 120 250 235 374 354c-42 34 -92 46 -149 46c-159 0 -259 -121 -259 -265z" />
    <glyph glyph-name="oe" unicode="&#x153;" horiz-adv-x="1039" 
d="M917 335l3 -71l-209 3v-203c23 0 173 -2 247 3l4 -76c-33 0 -316 9 -337 9c1 17 2 54 3 110h-3c-56 -84 -151 -124 -273 -124c-188 0 -297 140 -297 283c0 174 130 340 359 340c79 0 161 -26 212 -91h2l-3 77c25 0 290 13 319 16l3 -71l-236 -4v-210c18 0 162 4 206 9z
M372 52c133 0 258 102 258 227v60c0 122 -106 204 -227 204c-189 0 -257 -153 -257 -262c0 -115 79 -229 226 -229z" />
    <glyph glyph-name="germandbls" unicode="&#xdf;" horiz-adv-x="960" 
d="M128 -16l-23 70c92 18 209 55 209 123c0 44 -31 65 -97 97c-78 38 -135 74 -135 136c0 95 139 178 268 201l19 -70c-59 -9 -195 -43 -195 -117c0 -46 65 -69 104 -91c69 -38 129 -65 129 -136c0 -88 -101 -177 -279 -213zM607 -16l-23 70c92 18 209 55 209 123
c0 44 -31 65 -97 97c-78 38 -135 74 -135 136c0 95 139 178 268 201l19 -70c-59 -9 -195 -43 -195 -117c0 -46 65 -69 104 -91c69 -38 129 -65 129 -136c0 -88 -101 -177 -279 -213z" />
    <glyph glyph-name="onesuperior" unicode="&#xb9;" horiz-adv-x="350" 
d="M231 274h-75c0 16 4 93 4 178v142c-19 -20 -73 -66 -86 -79l-31 43c11 10 166 133 189 158h2c0 -20 -5 -102 -5 -188v-93c0 -87 0 -142 2 -161z" />
    <glyph glyph-name="logicalnot" unicode="&#xac;" horiz-adv-x="596" 
d="M40 403h516v-285h-70v219h-446v66z" />
    <glyph glyph-name="mu" unicode="&#xb5;" horiz-adv-x="596" 
d="M81 502h96v-312c0 -76 42 -128 116 -128c82 0 132 76 132 152v288h90v-502h-90v76h-4c-30 -56 -78 -88 -138 -88c-44 0 -80 14 -106 50l-4 -4c2 -12 4 -54 4 -68v-158h-96v694z" />
    <glyph glyph-name="trademark" unicode="&#x2122;" horiz-adv-x="672" 
d="M179 366h-67c1 13 2 160 2 230v53c-40 0 -101 -3 -114 -6v62c10 -2 40 -3 69 -4c28 -1 55 -1 57 -1h38c9 0 102 1 124 5v-62c-8 3 -89 6 -114 6v-54c0 -99 5 -220 5 -229zM300 353l-57 18c8 22 103 320 112 351h4c14 -27 58 -146 86 -214c13 38 71 174 87 205h4
c13 -32 94 -289 112 -335l-54 -25c-14 37 -56 178 -67 209h-2c-14 -36 -59 -130 -84 -184h-6c-34 77 -59 141 -74 184h-2c-14 -54 -49 -170 -59 -209z" />
    <glyph glyph-name="Eth" unicode="&#xd0;" horiz-adv-x="826" 
d="M49 310l-3 69c20 0 53 2 104 4v57c0 21 -1 232 -5 260c57 0 168 1 255 -10c326 -41 366 -187 366 -256c0 -310 -394 -439 -622 -439c4 46 6 294 6 321c-48 -2 -81 -4 -101 -6zM396 398l2 -71c-44 -1 -103 -3 -158 -6v-238c273 23 428 195 428 325
c0 147 -170 220 -428 217v-237c56 2 116 7 156 10z" />
    <glyph glyph-name="onehalf" unicode="&#xbd;" horiz-adv-x="864" 
d="M799 -5c-17 2 -154 5 -251 5h-75l-2 5c89 57 226 161 226 258c0 75 -93 111 -171 108l11 67c152 -15 239 -91 239 -171c0 -101 -111 -179 -161 -213l1 -3l183 12v-68zM646 686c-30 -45 -126 -190 -217 -338c-96 -156 -187 -316 -217 -369l-61 42c35 50 131 212 229 369
c88 141 174 278 203 331zM220 716c0 -20 -5 -102 -5 -188v-93c0 -87 0 -142 2 -161h-75c0 16 4 93 4 178v142c-19 -20 -73 -66 -86 -79l-31 43c11 10 166 133 189 158h2z" />
    <glyph glyph-name="plusminus" unicode="&#xb1;" horiz-adv-x="596" 
d="M263 573h70v-190h223v-66h-223v-196h-70v196h-223v66h223v190zM40 66h516v-66h-516v66z" />
    <glyph glyph-name="Thorn" unicode="&#xde;" horiz-adv-x="624" 
d="M240 0h-94c2 43 5 284 5 355v110c0 23 -3 220 -3 235h93c-2 -29 -3 -62 -3 -91v-29c31 0 67 -3 98 -8c134 -21 218 -80 218 -182c0 -122 -126 -233 -316 -261v-29c0 -20 0 -79 2 -100zM238 511v-312c126 16 219 81 219 176c0 27 -17 137 -219 136z" />
    <glyph glyph-name="onequarter" unicode="&#xbc;" horiz-adv-x="816" 
d="M771 151l-5 -58l-64 2v-20c0 -23 0 -51 1 -75h-69c1 23 3 49 3 81v14h-221l-3 6l284 341h6v-293zM638 150v147c-29 -37 -90 -113 -118 -147h118zM652 686c-30 -45 -126 -190 -217 -338c-96 -156 -187 -316 -217 -369l-61 42c35 50 131 212 229 369
c88 141 174 278 203 331zM230 716c0 -20 -5 -102 -5 -188v-93c0 -87 0 -142 2 -161h-75c0 16 4 93 4 178v142c-19 -20 -73 -66 -86 -79l-31 43c11 10 166 133 189 158h2z" />
    <glyph glyph-name="divide" unicode="&#xf7;" horiz-adv-x="596" 
d="M298 383h-1c-32 0 -55 25 -55 59c0 35 23 59 57 59s56 -24 56 -59c0 -34 -22 -59 -57 -59zM556 234h-515v66h515v-66zM298 33h-1c-32 0 -55 25 -55 59c0 35 23 59 57 59s56 -24 56 -59c0 -34 -22 -59 -57 -59z" />
    <glyph glyph-name="brokenbar" unicode="&#xa6;" horiz-adv-x="247" 
d="M161 324h-74v350h74v-350zM161 -176h-74v350h74v-350z" />
    <glyph glyph-name="degree" unicode="&#xb0;" horiz-adv-x="325" 
d="M301 553c0 -81 -66 -136 -138 -136c-80 0 -135 60 -135 131c0 77 60 137 137 137h1c83 0 135 -62 135 -132zM242 551c0 38 -23 83 -78 83h-1c-49 0 -76 -44 -76 -85c0 -45 33 -81 77 -81c45 0 78 36 78 83z" />
    <glyph glyph-name="thorn" unicode="&#xfe;" horiz-adv-x="564" 
d="M218 453v-277c117 9 195 72 195 156c0 40 -23 120 -195 121zM219 517c23 0 44 0 68 -3c118 -13 220 -77 220 -171c0 -115 -108 -216 -289 -231v-15c0 -17 0 -86 1 -125h-91c2 58 4 269 4 330v100c0 20 -2 187 -2 221h92c-2 -37 -3 -72 -3 -106z" />
    <glyph glyph-name="threequarters" unicode="&#xbe;" horiz-adv-x="830" 
d="M785 151l-5 -58l-64 2v-20c0 -23 0 -51 1 -75h-69c1 23 3 49 3 81v14h-221l-3 6l284 341h6v-293zM652 150v147c-29 -37 -90 -113 -118 -147h118zM676 686c-30 -45 -126 -190 -217 -338c-96 -156 -187 -316 -217 -369l-61 42c35 50 131 212 229 369
c88 141 174 278 203 331zM323 412c0 -83 -140 -147 -273 -150l-2 60c81 -5 190 23 190 87c0 51 -76 73 -140 79v13c47 2 130 38 130 89c0 47 -78 71 -147 68l8 56c85 -2 217 -40 217 -114c0 -43 -52 -84 -89 -99v-2c57 -11 106 -37 106 -87z" />
    <glyph glyph-name="twosuperior" unicode="&#xb2;" horiz-adv-x="390" 
d="M344 337v-68c-17 2 -154 4 -251 5h-75l-2 5c89 57 226 161 226 258c0 75 -93 111 -171 108l11 67c152 -15 239 -91 239 -171c0 -101 -111 -179 -161 -213l1 -3z" />
    <glyph glyph-name="registered" unicode="&#xae;" horiz-adv-x="852" 
d="M421 -16c-205 0 -361 156 -361 361c0 210 161 371 371 371s361 -151 361 -361s-161 -371 -371 -371zM422 38c175 0 297 138 297 313c0 170 -127 311 -287 311c-175 0 -299 -136 -299 -311c0 -170 129 -313 289 -313zM368 489v-150c0 -19 2 -145 3 -153l-66 1
c2 12 1 170 1 181v41c0 15 -1 118 -2 128c50 0 105 0 153 -8c52 -8 92 -33 92 -76s-28 -75 -70 -101c12 -17 102 -119 116 -134l-55 -41c-5 7 -118 155 -133 176c25 13 75 44 75 84c0 23 -16 55 -114 52z" />
    <glyph glyph-name="minus" unicode="&#x2212;" horiz-adv-x="596" 
d="M40 300h516v-66h-516v66z" />
    <glyph glyph-name="eth" unicode="&#xf0;" horiz-adv-x="727" 
d="M137 269c-43 -2 -73 -4 -91 -5l-3 60c18 0 48 2 94 4v46c0 18 -1 197 -5 221c52 0 146 2 225 -5c300 -27 322 -164 322 -227c0 -260 -296 -367 -548 -367c4 39 6 225 6 248v25zM223 274v-204c244 20 364 145 364 275c0 136 -135 186 -364 183v-196c51 2 107 6 148 8
l2 -62c-45 -1 -100 -2 -150 -4z" />
    <glyph glyph-name="multiply" unicode="&#xd7;" horiz-adv-x="596" 
d="M40 479l48 48l210 -215l210 215l48 -48l-210 -215l210 -216l-48 -48l-210 215l-210 -215l-48 48l210 216z" />
    <glyph glyph-name="threesuperior" unicode="&#xb3;" horiz-adv-x="375" 
d="M81 658l8 56c85 -2 217 -40 217 -114c0 -43 -52 -84 -89 -99v-2c57 -11 106 -37 106 -87c0 -83 -140 -147 -273 -150l-2 60c81 -5 190 23 190 87c0 51 -76 73 -140 79v13c47 2 130 38 130 89c0 47 -78 71 -147 68z" />
    <glyph glyph-name="copyright" unicode="&#xa9;" horiz-adv-x="852" 
d="M421 -16c-205 0 -361 156 -361 361c0 210 161 371 371 371s361 -151 361 -361s-161 -371 -371 -371zM422 38c175 0 297 138 297 313c0 170 -127 311 -287 311c-175 0 -299 -136 -299 -311c0 -170 129 -313 289 -313zM535 244l5 -62c-15 -3 -38 -5 -68 -5
c-199 0 -213 133 -213 151c0 85 75 190 252 221l7 -64c-109 -8 -188 -79 -188 -149c0 -38 34 -100 147 -100c20 0 41 4 58 8z" />
    <glyph glyph-name="Aacute" unicode="&#xc1;" horiz-adv-x="800" 
d="M102 -19l-82 52c55 96 343 664 367 702h2c88 -142 325 -593 393 -697l-85 -56c-20 38 -126 243 -137 259l-347 -14c-12 -19 -94 -212 -111 -246zM247 293l283 12c-11 22 -134 255 -144 271c-15 -22 -130 -267 -139 -283zM296 799l137 118l48 -70l-159 -84z" />
    <glyph glyph-name="Acircumflex" unicode="&#xc2;" horiz-adv-x="800" 
d="M102 -19l-82 52c55 96 343 664 367 702h2c88 -142 325 -593 393 -697l-85 -56c-20 38 -126 243 -137 259l-347 -14c-12 -19 -94 -212 -111 -246zM247 293l283 12c-11 22 -134 255 -144 271c-15 -22 -130 -267 -139 -283zM241 803l149 100l140 -100l-41 -48l-102 84
l-110 -84z" />
    <glyph glyph-name="Adieresis" unicode="&#xc4;" horiz-adv-x="800" 
d="M102 -19l-82 52c55 96 343 664 367 702h2c88 -142 325 -593 393 -697l-85 -56c-20 38 -126 243 -137 259l-347 -14c-12 -19 -94 -212 -111 -246zM247 293l283 12c-11 22 -134 255 -144 271c-15 -22 -130 -267 -139 -283zM280 765l-64 64l64 63l64 -63zM500 765l-64 64
l64 63l64 -63z" />
    <glyph glyph-name="Agrave" unicode="&#xc0;" horiz-adv-x="800" 
d="M102 -19l-82 52c55 96 343 664 367 702h2c88 -142 325 -593 393 -697l-85 -56c-20 38 -126 243 -137 259l-347 -14c-12 -19 -94 -212 -111 -246zM247 293l283 12c-11 22 -134 255 -144 271c-15 -22 -130 -267 -139 -283zM327 917l136 -118l-24 -35l-159 82z" />
    <glyph glyph-name="Aring" unicode="&#xc5;" horiz-adv-x="800" 
d="M247 293l283 12c-11 22 -134 255 -144 271c-15 -22 -130 -267 -139 -283zM396 821c-22 0 -48 -15 -48 -45c0 -26 21 -43 46 -43s49 15 49 47c0 23 -19 41 -47 41zM102 -19l-82 52c50 88 296 571 347 665c-42 7 -75 34 -75 74c2 53 51 88 105 88c67 0 101 -35 101 -75
c0 -49 -40 -81 -87 -88c95 -158 307 -561 371 -659l-85 -56c-20 38 -126 243 -137 259l-347 -14c-12 -19 -94 -212 -111 -246z" />
    <glyph glyph-name="Atilde" unicode="&#xc3;" horiz-adv-x="800" 
d="M102 -19l-82 52c55 96 343 664 367 702h2c88 -142 325 -593 393 -697l-85 -56c-20 38 -126 243 -137 259l-347 -14c-12 -19 -94 -212 -111 -246zM247 293l283 12c-11 22 -134 255 -144 271c-15 -22 -130 -267 -139 -283zM270 762l-41 29c26 43 59 78 92 78
c34 0 57 -13 79 -24c17 -9 32 -16 53 -16c23 1 43 21 58 43l41 -33c-26 -39 -59 -74 -92 -74c-29 -1 -51 12 -73 23c-20 10 -38 17 -59 17c-24 0 -43 -21 -58 -43z" />
    <glyph glyph-name="Ccedilla" unicode="&#xc7;" horiz-adv-x="660" 
d="M612 74l10 -80c-30 -6 -76 -10 -136 -10c-42 0 -80 3 -113 10l-33 -47c35 -10 74 -40 74 -75c0 -51 -78 -96 -163 -105l-10 43c47 2 95 22 97 59c0 27 -33 54 -65 65l47 70c-204 53 -260 201 -260 276c0 164 151 373 504 436l15 -84c-229 -26 -418 -163 -418 -335
c0 -122 96 -237 335 -237c40 0 82 6 116 14z" />
    <glyph glyph-name="Eacute" unicode="&#xc9;" horiz-adv-x="574" 
d="M480 76l4 -86c-16 0 -317 10 -337 10c3 53 3 267 3 290v134c0 16 -2 257 -3 276c24 0 285 15 317 19l4 -79c-32 0 -212 -5 -228 -5v-254c18 0 146 5 195 11l3 -79c-22 0 -178 4 -198 4v-244c24 0 158 -3 240 3zM243 797l137 118l48 -70l-159 -84z" />
    <glyph glyph-name="Ecircumflex" unicode="&#xca;" horiz-adv-x="574" 
d="M480 76l4 -86c-16 0 -317 10 -337 10c3 53 3 267 3 290v134c0 16 -2 257 -3 276c24 0 285 15 317 19l4 -79c-32 0 -212 -5 -228 -5v-254c18 0 146 5 195 11l3 -79c-22 0 -178 4 -198 4v-244c24 0 158 -3 240 3zM163 803l149 100l140 -100l-41 -48l-102 84l-110 -84z" />
    <glyph glyph-name="Edieresis" unicode="&#xcb;" horiz-adv-x="574" 
d="M480 76l4 -86c-16 0 -317 10 -337 10c3 53 3 267 3 290v134c0 16 -2 257 -3 276c24 0 285 15 317 19l4 -79c-32 0 -212 -5 -228 -5v-254c18 0 146 5 195 11l3 -79c-22 0 -178 4 -198 4v-244c24 0 158 -3 240 3zM197 775l-64 64l64 63l64 -63zM417 775l-64 64l64 63
l64 -63z" />
    <glyph glyph-name="Egrave" unicode="&#xc8;" horiz-adv-x="574" 
d="M480 76l4 -86c-16 0 -317 10 -337 10c3 53 3 267 3 290v134c0 16 -2 257 -3 276c24 0 285 15 317 19l4 -79c-32 0 -212 -5 -228 -5v-254c18 0 146 5 195 11l3 -79c-22 0 -178 4 -198 4v-244c24 0 158 -3 240 3zM234 915l136 -118l-24 -35l-159 82z" />
    <glyph glyph-name="Iacute" unicode="&#xcd;" horiz-adv-x="390" 
d="M240 410v-108c0 -100 3 -279 4 -302h-97c2 44 3 278 3 304v108c0 17 -3 264 -5 288h100c-2 -18 -5 -170 -5 -290zM141 787l137 118l48 -70l-159 -84z" />
    <glyph glyph-name="Icircumflex" unicode="&#xce;" horiz-adv-x="390" 
d="M240 410v-108c0 -100 3 -279 4 -302h-97c2 44 3 278 3 304v108c0 17 -3 264 -5 288h100c-2 -18 -5 -170 -5 -290zM51 803l149 100l140 -100l-41 -48l-102 84l-110 -84z" />
    <glyph glyph-name="Idieresis" unicode="&#xcf;" horiz-adv-x="390" 
d="M240 410v-108c0 -100 3 -279 4 -302h-97c2 44 3 278 3 304v108c0 17 -3 264 -5 288h100c-2 -18 -5 -170 -5 -290zM85 765l-64 64l64 63l64 -63zM305 765l-64 64l64 63l64 -63z" />
    <glyph glyph-name="Igrave" unicode="&#xcc;" horiz-adv-x="390" 
d="M240 410v-108c0 -100 3 -279 4 -302h-97c2 44 3 278 3 304v108c0 17 -3 264 -5 288h100c-2 -18 -5 -170 -5 -290zM122 905l136 -118l-24 -35l-159 82z" />
    <glyph glyph-name="Ntilde" unicode="&#xd1;" horiz-adv-x="915" 
d="M211 -7l-94 7c5 75 32 637 37 740h2c28 -32 512 -535 544 -567c0 28 6 499 7 532l93 -5c-4 -60 -23 -469 -27 -721h-2c-27 27 -533 546 -551 571h-2c0 -35 -8 -524 -7 -557zM363 752l-41 29c26 43 59 78 92 78c34 0 57 -13 79 -24c17 -9 32 -16 53 -16c23 1 43 21 58 43
l41 -33c-26 -39 -59 -74 -92 -74c-29 -1 -51 12 -73 23c-20 10 -38 17 -59 17c-24 0 -43 -21 -58 -43z" />
    <glyph glyph-name="Oacute" unicode="&#xd3;" 
d="M402 -16c-218 0 -342 154 -342 330c0 222 157 402 398 402c189 0 332 -125 332 -341c0 -156 -104 -391 -388 -391zM411 58c150 0 282 115 282 312c0 179 -118 272 -249 272c-179 0 -288 -142 -288 -313c0 -149 98 -271 255 -271zM381 787l137 118l48 -70l-159 -84z" />
    <glyph glyph-name="Ocircumflex" unicode="&#xd4;" 
d="M402 -16c-218 0 -342 154 -342 330c0 222 157 402 398 402c189 0 332 -125 332 -341c0 -156 -104 -391 -388 -391zM411 58c150 0 282 115 282 312c0 179 -118 272 -249 272c-179 0 -288 -142 -288 -313c0 -149 98 -271 255 -271zM281 803l149 100l140 -100l-41 -48
l-102 84l-110 -84z" />
    <glyph glyph-name="Odieresis" unicode="&#xd6;" 
d="M402 -16c-218 0 -342 154 -342 330c0 222 157 402 398 402c189 0 332 -125 332 -341c0 -156 -104 -391 -388 -391zM411 58c150 0 282 115 282 312c0 179 -118 272 -249 272c-179 0 -288 -142 -288 -313c0 -149 98 -271 255 -271zM315 765l-64 64l64 63l64 -63zM535 765
l-64 64l64 63l64 -63z" />
    <glyph glyph-name="Ograve" unicode="&#xd2;" 
d="M402 -16c-218 0 -342 154 -342 330c0 222 157 402 398 402c189 0 332 -125 332 -341c0 -156 -104 -391 -388 -391zM411 58c150 0 282 115 282 312c0 179 -118 272 -249 272c-179 0 -288 -142 -288 -313c0 -149 98 -271 255 -271zM352 905l136 -118l-24 -35l-159 82z" />
    <glyph glyph-name="Otilde" unicode="&#xd5;" 
d="M402 -16c-218 0 -342 154 -342 330c0 222 157 402 398 402c189 0 332 -125 332 -341c0 -156 -104 -391 -388 -391zM411 58c150 0 282 115 282 312c0 179 -118 272 -249 272c-179 0 -288 -142 -288 -313c0 -149 98 -271 255 -271zM305 777l-41 29c26 43 59 78 92 78
c34 0 57 -13 79 -24c17 -9 32 -16 53 -16c23 1 43 21 58 43l41 -33c-26 -39 -59 -74 -92 -74c-29 -1 -51 12 -73 23c-20 10 -38 17 -59 17c-24 0 -43 -21 -58 -43z" />
    <glyph glyph-name="Scaron" unicode="&#x160;" horiz-adv-x="527" 
d="M146 -18l-26 75c98 20 223 70 223 151c0 50 -32 76 -104 115c-85 46 -144 88 -144 159c0 106 148 205 285 236l21 -77c-61 -10 -209 -58 -209 -142c0 -52 71 -84 113 -109c76 -45 137 -77 137 -158c0 -98 -104 -205 -296 -250zM269 755l-149 98l40 48l110 -82l100 82
l39 -48z" />
    <glyph glyph-name="Uacute" unicode="&#xda;" horiz-adv-x="833" 
d="M201 531v-68c0 -162 7 -236 46 -305c39 -68 101 -97 173 -97c86 0 141 43 174 95c48 75 49 197 49 354v35c0 69 -4 128 -6 165h95c0 -22 1 -88 1 -167v-46c0 -192 -11 -314 -86 -407c-59 -72 -134 -106 -240 -106c-54 0 -163 8 -233 119c-47 75 -64 153 -64 396v54
c0 46 1 119 1 142h95c-2 -26 -5 -73 -5 -164zM373 787l137 118l48 -70l-159 -84z" />
    <glyph glyph-name="Ucircumflex" unicode="&#xdb;" horiz-adv-x="833" 
d="M201 531v-68c0 -162 7 -236 46 -305c39 -68 101 -97 173 -97c86 0 141 43 174 95c48 75 49 197 49 354v35c0 69 -4 128 -6 165h95c0 -22 1 -88 1 -167v-46c0 -192 -11 -314 -86 -407c-59 -72 -134 -106 -240 -106c-54 0 -163 8 -233 119c-47 75 -64 153 -64 396v54
c0 46 1 119 1 142h95c-2 -26 -5 -73 -5 -164zM288 803l149 100l140 -100l-41 -48l-102 84l-110 -84z" />
    <glyph glyph-name="Udieresis" unicode="&#xdc;" horiz-adv-x="833" 
d="M201 531v-68c0 -162 7 -236 46 -305c39 -68 101 -97 173 -97c86 0 141 43 174 95c48 75 49 197 49 354v35c0 69 -4 128 -6 165h95c0 -22 1 -88 1 -167v-46c0 -192 -11 -314 -86 -407c-59 -72 -134 -106 -240 -106c-54 0 -163 8 -233 119c-47 75 -64 153 -64 396v54
c0 46 1 119 1 142h95c-2 -26 -5 -73 -5 -164zM317 765l-64 64l64 63l64 -63zM537 765l-64 64l64 63l64 -63z" />
    <glyph glyph-name="Ugrave" unicode="&#xd9;" horiz-adv-x="833" 
d="M201 531v-68c0 -162 7 -236 46 -305c39 -68 101 -97 173 -97c86 0 141 43 174 95c48 75 49 197 49 354v35c0 69 -4 128 -6 165h95c0 -22 1 -88 1 -167v-46c0 -192 -11 -314 -86 -407c-59 -72 -134 -106 -240 -106c-54 0 -163 8 -233 119c-47 75 -64 153 -64 396v54
c0 46 1 119 1 142h95c-2 -26 -5 -73 -5 -164zM344 905l136 -118l-24 -35l-159 82z" />
    <glyph glyph-name="Yacute" unicode="&#xdd;" horiz-adv-x="684" 
d="M394 0h-100c1 23 5 129 5 142v75c0 130 -61 235 -129 310c-40 45 -93 88 -147 111l41 78c64 -33 130 -88 156 -117c47 -54 108 -132 130 -215h2c29 83 67 141 121 202c44 49 130 110 192 130l30 -78c-64 -19 -135 -65 -191 -130c-68 -78 -115 -185 -115 -291v-94
c0 -14 3 -103 5 -123zM318 787l137 118l48 -70l-159 -84z" />
    <glyph glyph-name="Ydieresis" unicode="&#x178;" horiz-adv-x="684" 
d="M394 0h-100c1 23 5 129 5 142v75c0 130 -61 235 -129 310c-40 45 -93 88 -147 111l41 78c64 -33 130 -88 156 -117c47 -54 108 -132 130 -215h2c29 83 67 141 121 202c44 49 130 110 192 130l30 -78c-64 -19 -135 -65 -191 -130c-68 -78 -115 -185 -115 -291v-94
c0 -14 3 -103 5 -123zM247 765l-64 64l64 63l64 -63zM467 765l-64 64l64 63l64 -63z" />
    <glyph glyph-name="Zcaron" unicode="&#x17d;" horiz-adv-x="688" 
d="M92 643l4 76c65 -6 529 -24 555 -24v-2c-46 -50 -436 -613 -446 -627c54 0 387 3 415 7l-4 -83c-25 0 -519 10 -571 10v2c45 44 429 599 453 632c-39 0 -377 9 -406 9zM369 755l-149 98l40 48l110 -82l100 82l39 -48z" />
    <glyph glyph-name="aacute" unicode="&#xe1;" horiz-adv-x="710" 
d="M91 -18l-77 44c48 85 308 566 328 599h2c77 -121 293 -504 352 -593l-81 -49c-16 32 -110 200 -119 215l-309 -12c-12 -27 -82 -175 -96 -204zM221 249l244 10c-10 19 -115 211 -124 225c-13 -20 -112 -221 -120 -235zM281 709l130 112l45 -66l-151 -80z" />
    <glyph glyph-name="acircumflex" unicode="&#xe2;" horiz-adv-x="710" 
d="M91 -18l-77 44c48 85 308 566 328 599h2c77 -121 293 -504 352 -593l-81 -49c-16 32 -110 200 -119 215l-309 -12c-12 -27 -82 -175 -96 -204zM221 249l244 10c-10 19 -115 211 -124 225c-13 -20 -112 -221 -120 -235zM210 724l142 95l133 -95l-39 -45l-97 80l-105 -80z
" />
    <glyph glyph-name="adieresis" unicode="&#xe4;" horiz-adv-x="710" 
d="M91 -18l-77 44c48 85 308 566 328 599h2c77 -121 293 -504 352 -593l-81 -49c-16 32 -110 200 -119 215l-309 -12c-12 -27 -82 -175 -96 -204zM221 249l244 10c-10 19 -115 211 -124 225c-13 -20 -112 -221 -120 -235zM244 688l-60 61l60 60l61 -60zM454 688l-61 61
l61 60l60 -60z" />
    <glyph glyph-name="agrave" unicode="&#xe0;" horiz-adv-x="710" 
d="M91 -18l-77 44c48 85 308 566 328 599h2c77 -121 293 -504 352 -593l-81 -49c-16 32 -110 200 -119 215l-309 -12c-12 -27 -82 -175 -96 -204zM221 249l244 10c-10 19 -115 211 -124 225c-13 -20 -112 -221 -120 -235zM281 821l129 -112l-22 -33l-151 78z" />
    <glyph glyph-name="aring" unicode="&#xe5;" horiz-adv-x="710" 
d="M91 -18l-77 44c48 85 308 566 328 599h2c77 -121 293 -504 352 -593l-81 -49c-16 32 -110 200 -119 215l-309 -12c-12 -27 -82 -175 -96 -204zM221 249l244 10c-10 19 -115 211 -124 225c-13 -20 -112 -221 -120 -235zM340 679c-48 0 -92 29 -92 73c2 51 49 84 100 84
c64 0 96 -33 96 -71c0 -54 -50 -86 -104 -86zM345 715c24 0 47 14 47 45c0 22 -18 39 -45 39c-21 0 -46 -14 -46 -43c0 -25 20 -41 44 -41z" />
    <glyph glyph-name="atilde" unicode="&#xe3;" horiz-adv-x="710" 
d="M91 -18l-77 44c48 85 308 566 328 599h2c77 -121 293 -504 352 -593l-81 -49c-16 32 -110 200 -119 215l-309 -12c-12 -27 -82 -175 -96 -204zM221 249l244 10c-10 19 -115 211 -124 225c-13 -20 -112 -221 -120 -235zM234 685l-39 27c25 41 56 74 87 74
c33 0 55 -12 76 -22c16 -9 30 -16 50 -16c22 1 41 20 55 41l39 -31c-25 -37 -56 -70 -87 -70c-28 -1 -49 11 -70 21c-19 10 -36 17 -56 17c-23 0 -41 -20 -55 -41z" />
    <glyph glyph-name="ccedilla" unicode="&#xe7;" horiz-adv-x="587" 
d="M355 -10l-34 -50c34 -10 71 -38 71 -71c0 -49 -74 -92 -155 -100l-10 41c45 2 93 21 93 56c0 25 -32 51 -62 62l48 71c-183 38 -250 157 -250 239c0 144 136 317 447 372l14 -76c-198 -24 -368 -134 -368 -282c0 -100 85 -194 302 -194c37 0 75 5 96 10l9 -75
c-17 -3 -59 -7 -114 -7c-26 0 -60 2 -87 4z" />
    <glyph glyph-name="eacute" unicode="&#xe9;" horiz-adv-x="528" 
d="M448 67l3 -76c-30 0 -304 9 -322 9c3 45 3 227 3 247v113c0 14 -2 219 -3 235c22 0 259 13 304 16l4 -72c-39 0 -203 -4 -218 -4v-208c17 0 133 4 188 9l3 -73c-15 0 -58 1 -100 2c-41 0 -81 1 -91 1v-202c22 0 144 -2 229 3zM210 709l130 112l45 -66l-151 -80z" />
    <glyph glyph-name="ecircumflex" unicode="&#xea;" horiz-adv-x="528" 
d="M448 67l3 -76c-30 0 -304 9 -322 9c3 45 3 227 3 247v113c0 14 -2 219 -3 235c22 0 259 13 304 16l4 -72c-39 0 -203 -4 -218 -4v-208c17 0 133 4 188 9l3 -73c-15 0 -58 1 -100 2c-41 0 -81 1 -91 1v-202c22 0 144 -2 229 3zM139 724l142 95l133 -95l-39 -45l-97 80
l-105 -80z" />
    <glyph glyph-name="edieresis" unicode="&#xeb;" horiz-adv-x="528" 
d="M448 67l3 -76c-30 0 -304 9 -322 9c3 45 3 227 3 247v113c0 14 -2 219 -3 235c22 0 259 13 304 16l4 -72c-39 0 -203 -4 -218 -4v-208c17 0 133 4 188 9l3 -73c-15 0 -58 1 -100 2c-41 0 -81 1 -91 1v-202c22 0 144 -2 229 3zM163 688l-60 61l60 60l61 -60zM373 688
l-61 61l61 60l60 -60z" />
    <glyph glyph-name="egrave" unicode="&#xe8;" horiz-adv-x="528" 
d="M448 67l3 -76c-30 0 -304 9 -322 9c3 45 3 227 3 247v113c0 14 -2 219 -3 235c22 0 259 13 304 16l4 -72c-39 0 -203 -4 -218 -4v-208c17 0 133 4 188 9l3 -73c-15 0 -58 1 -100 2c-41 0 -81 1 -91 1v-202c22 0 144 -2 229 3zM215 821l129 -112l-22 -33l-151 78z" />
    <glyph glyph-name="iacute" unicode="&#xed;" horiz-adv-x="352" 
d="M219 349v-92c0 -85 3 -237 4 -257h-94c2 37 3 236 3 258v92c0 15 -3 225 -5 245h97c-2 -15 -5 -144 -5 -246zM112 709l130 112l45 -66l-151 -80z" />
    <glyph glyph-name="icircumflex" unicode="&#xee;" horiz-adv-x="352" 
d="M219 349v-92c0 -85 3 -237 4 -257h-94c2 37 3 236 3 258v92c0 15 -3 225 -5 245h97c-2 -15 -5 -144 -5 -246zM41 724l142 95l133 -95l-39 -45l-97 80l-105 -80z" />
    <glyph glyph-name="idieresis" unicode="&#xef;" horiz-adv-x="352" 
d="M219 349v-92c0 -85 3 -237 4 -257h-94c2 37 3 236 3 258v92c0 15 -3 225 -5 245h97c-2 -15 -5 -144 -5 -246zM65 688l-60 61l60 60l61 -60zM275 688l-61 61l61 60l60 -60z" />
    <glyph glyph-name="igrave" unicode="&#xec;" horiz-adv-x="352" 
d="M219 349v-92c0 -85 3 -237 4 -257h-94c2 37 3 236 3 258v92c0 15 -3 225 -5 245h97c-2 -15 -5 -144 -5 -246zM107 821l129 -112l-22 -33l-151 78z" />
    <glyph glyph-name="ntilde" unicode="&#xf1;" horiz-adv-x="803" 
d="M193 -6l-92 6c5 64 30 541 34 629h5c26 -28 443 -448 471 -475c0 24 2 417 3 445l89 -4c-4 -51 -21 -399 -25 -613h-4c-26 23 -464 460 -475 472h-2c2 -16 -5 -432 -4 -460zM296 685l-39 27c25 41 56 74 87 74c33 0 55 -12 76 -22c16 -9 30 -16 50 -16c22 1 41 20 55 41
l39 -31c-25 -37 -56 -70 -87 -70c-28 -1 -49 11 -70 21c-19 10 -36 17 -56 17c-23 0 -41 -20 -55 -41z" />
    <glyph glyph-name="oacute" unicode="&#xf3;" horiz-adv-x="774" 
d="M363 -14c-199 0 -308 131 -308 281c0 189 139 342 359 342c176 0 305 -107 305 -290c0 -133 -94 -333 -356 -333zM371 52c137 0 255 95 255 263c0 152 -106 228 -225 228c-159 0 -254 -118 -254 -263c0 -127 85 -228 224 -228zM333 709l130 112l45 -66l-151 -80z" />
    <glyph glyph-name="ocircumflex" unicode="&#xf4;" horiz-adv-x="774" 
d="M363 -14c-199 0 -308 131 -308 281c0 189 139 342 359 342c176 0 305 -107 305 -290c0 -133 -94 -333 -356 -333zM371 52c137 0 255 95 255 263c0 152 -106 228 -225 228c-159 0 -254 -118 -254 -263c0 -127 85 -228 224 -228zM252 724l142 95l133 -95l-39 -45l-97 80
l-105 -80z" />
    <glyph glyph-name="odieresis" unicode="&#xf6;" horiz-adv-x="774" 
d="M363 -14c-199 0 -308 131 -308 281c0 189 139 342 359 342c176 0 305 -107 305 -290c0 -133 -94 -333 -356 -333zM371 52c137 0 255 95 255 263c0 152 -106 228 -225 228c-159 0 -254 -118 -254 -263c0 -127 85 -228 224 -228zM286 688l-60 61l60 60l61 -60zM496 688
l-61 61l61 60l60 -60z" />
    <glyph glyph-name="ograve" unicode="&#xf2;" horiz-adv-x="774" 
d="M363 -14c-199 0 -308 131 -308 281c0 189 139 342 359 342c176 0 305 -107 305 -290c0 -133 -94 -333 -356 -333zM371 52c137 0 255 95 255 263c0 152 -106 228 -225 228c-159 0 -254 -118 -254 -263c0 -127 85 -228 224 -228zM313 821l129 -112l-22 -33l-151 78z" />
    <glyph glyph-name="otilde" unicode="&#xf5;" horiz-adv-x="774" 
d="M363 -14c-199 0 -308 131 -308 281c0 189 139 342 359 342c176 0 305 -107 305 -290c0 -133 -94 -333 -356 -333zM371 52c137 0 255 95 255 263c0 152 -106 228 -225 228c-159 0 -254 -118 -254 -263c0 -127 85 -228 224 -228zM281 685l-39 27c25 41 56 74 87 74
c33 0 55 -12 76 -22c16 -9 30 -16 50 -16c22 1 41 20 55 41l39 -31c-25 -37 -56 -70 -87 -70c-28 -1 -49 11 -70 21c-19 10 -36 17 -56 17c-23 0 -41 -20 -55 -41z" />
    <glyph glyph-name="scaron" unicode="&#x161;" horiz-adv-x="480" 
d="M128 -16l-23 70c92 18 209 55 209 123c0 44 -31 65 -97 97c-78 38 -135 74 -135 136c0 95 139 178 268 201l19 -70c-59 -9 -195 -43 -195 -117c0 -46 65 -69 104 -91c69 -38 129 -65 129 -136c0 -88 -101 -177 -279 -213zM253 679l-142 93l38 45l105 -78l95 78l37 -45z
" />
    <glyph glyph-name="uacute" unicode="&#xfa;" horiz-adv-x="740" 
d="M180 451v-57c0 -138 8 -201 42 -257c35 -57 86 -82 151 -82c78 0 123 36 153 81c42 62 43 164 43 298v29c0 59 -4 109 -5 141h91c0 -19 1 -75 1 -142v-40c0 -163 -12 -266 -80 -345c-54 -62 -118 -91 -215 -91c-49 0 -144 7 -208 102c-42 63 -60 130 -60 336v46
c0 39 1 101 1 121h90c-1 -22 -4 -62 -4 -140zM316 709l130 112l45 -66l-151 -80z" />
    <glyph glyph-name="ucircumflex" unicode="&#xfb;" horiz-adv-x="740" 
d="M180 451v-57c0 -138 8 -201 42 -257c35 -57 86 -82 151 -82c78 0 123 36 153 81c42 62 43 164 43 298v29c0 59 -4 109 -5 141h91c0 -19 1 -75 1 -142v-40c0 -163 -12 -266 -80 -345c-54 -62 -118 -91 -215 -91c-49 0 -144 7 -208 102c-42 63 -60 130 -60 336v46
c0 39 1 101 1 121h90c-1 -22 -4 -62 -4 -140zM235 724l142 95l133 -95l-39 -45l-97 80l-105 -80z" />
    <glyph glyph-name="udieresis" unicode="&#xfc;" horiz-adv-x="740" 
d="M180 451v-57c0 -138 8 -201 42 -257c35 -57 86 -82 151 -82c78 0 123 36 153 81c42 62 43 164 43 298v29c0 59 -4 109 -5 141h91c0 -19 1 -75 1 -142v-40c0 -163 -12 -266 -80 -345c-54 -62 -118 -91 -215 -91c-49 0 -144 7 -208 102c-42 63 -60 130 -60 336v46
c0 39 1 101 1 121h90c-1 -22 -4 -62 -4 -140zM269 688l-60 61l60 60l61 -60zM479 688l-61 61l61 60l60 -60z" />
    <glyph glyph-name="ugrave" unicode="&#xf9;" horiz-adv-x="740" 
d="M180 451v-57c0 -138 8 -201 42 -257c35 -57 86 -82 151 -82c78 0 123 36 153 81c42 62 43 164 43 298v29c0 59 -4 109 -5 141h91c0 -19 1 -75 1 -142v-40c0 -163 -12 -266 -80 -345c-54 -62 -118 -91 -215 -91c-49 0 -144 7 -208 102c-42 63 -60 130 -60 336v46
c0 39 1 101 1 121h90c-1 -22 -4 -62 -4 -140zM306 821l129 -112l-22 -33l-151 78z" />
    <glyph glyph-name="yacute" unicode="&#xfd;" horiz-adv-x="585" 
d="M341 0h-96c0 20 4 110 4 121v60c0 111 -52 198 -114 262c-37 38 -85 73 -123 88l37 73c48 -24 108 -69 131 -94c43 -46 98 -112 119 -183h1c27 71 61 120 110 172c40 42 117 92 164 107l26 -73c-48 -15 -110 -51 -161 -106c-62 -66 -103 -155 -103 -246v-76
c0 -12 3 -88 5 -105zM239 709l130 112l45 -66l-151 -80z" />
    <glyph glyph-name="ydieresis" unicode="&#xff;" horiz-adv-x="585" 
d="M341 0h-96c0 20 4 110 4 121v60c0 111 -52 198 -114 262c-37 38 -85 73 -123 88l37 73c48 -24 108 -69 131 -94c43 -46 98 -112 119 -183h1c27 71 61 120 110 172c40 42 117 92 164 107l26 -73c-48 -15 -110 -51 -161 -106c-62 -66 -103 -155 -103 -246v-76
c0 -12 3 -88 5 -105zM192 688l-60 61l60 60l61 -60zM402 688l-61 61l61 60l60 -60z" />
    <glyph glyph-name="zcaron" unicode="&#x17e;" horiz-adv-x="601" 
d="M77 538l4 73c51 -5 473 -20 487 -20v-2c-33 -43 -385 -518 -393 -529c49 0 349 3 370 6l-3 -75c-19 0 -469 9 -512 9v2c38 40 380 505 400 532c-35 0 -336 4 -353 4zM309 679l-142 93l38 45l105 -78l95 78l37 -45z" />
    <glyph glyph-name="exclamsmall" unicode="&#xf721;" horiz-adv-x="273" 
d="M77 0v88h95v-88h-95zM152 190l-55 -6c0 119 0 323 -4 425l104 -4c-9 -81 -34 -299 -45 -415z" />
    <glyph glyph-name="dollaroldstyle" unicode="&#xf724;" horiz-adv-x="446" 
d="M176 669h70l-3 -96c14 7 77 22 91 23l9 -72c-71 1 -184 -40 -184 -94c0 -40 32 -60 100 -91c61 -28 118 -59 118 -124c0 -70 -90 -138 -134 -154l3 -133h-70l3 112c-20 -7 -70 -19 -86 -20l-13 69c128 10 207 64 207 107c0 38 -20 54 -86 88c-69 35 -133 74 -133 131
c0 60 69 108 111 130z" />
    <glyph glyph-name="ampersandsmall" unicode="&#xf726;" horiz-adv-x="610" 
d="M221 54c66 0 110 20 162 65c-76 54 -154 114 -188 148c-46 -32 -80 -71 -80 -130c0 -47 43 -83 106 -83zM584 57l-46 -62c-25 18 -62 50 -106 84c-59 -58 -127 -93 -228 -93c-92 0 -178 55 -178 139c0 90 74 152 122 186c-34 30 -53 62 -53 99c0 97 123 178 248 200
l19 -70c-79 -10 -182 -44 -182 -116c0 -53 49 -90 106 -139c32 -27 87 -71 150 -115c37 42 65 87 77 106l58 -51c-24 -29 -48 -63 -83 -95c45 -35 76 -58 96 -73z" />
    <glyph glyph-name="zerooldstyle" unicode="&#xf730;" horiz-adv-x="680" 
d="M329 13c-135 0 -276 94 -276 284c0 172 141 285 294 285c160 0 280 -113 280 -279c0 -148 -117 -290 -298 -290zM342 83c89 0 199 70 199 224c0 111 -88 206 -203 206s-200 -91 -200 -221c0 -99 67 -209 204 -209z" />
    <glyph glyph-name="oneoldstyle" unicode="&#xf731;" horiz-adv-x="400" 
d="M277 0h-90c0 22 6 129 6 244v214c-26 -29 -94 -91 -120 -116l-42 51c17 14 213 191 244 219h6c0 -28 -6 -141 -6 -256v-131c0 -122 -1 -199 2 -225z" />
    <glyph glyph-name="twooldstyle" unicode="&#xf732;" horiz-adv-x="522" 
d="M442 69v-76c-23 3 -208 6 -338 7h-102l-2 11c121 77 316 215 316 352c0 119 -141 169 -248 174l17 72c204 -22 323 -125 323 -238c0 -138 -156 -250 -232 -308l1 -3z" />
    <glyph glyph-name="threeoldstyle" unicode="&#xf733;" horiz-adv-x="445" 
d="M79 546l11 70c104 -3 274 -58 274 -159c0 -60 -68 -120 -111 -139v-1c67 -18 131 -60 131 -128c0 -115 -177 -208 -342 -212l-5 73c103 -3 252 37 252 135c0 77 -122 105 -189 107v34c73 5 175 51 175 117c0 70 -103 103 -196 103z" />
    <glyph glyph-name="fouroldstyle" unicode="&#xf734;" horiz-adv-x="531" 
d="M402 621v-422l98 3l-6 -69l-93 2v-40c0 -34 1 -70 2 -95h-84c1 24 4 57 4 105v30h-320l-3 10l391 476h11zM325 200v247h-2c-30 -41 -160 -206 -193 -247h195z" />
    <glyph glyph-name="fiveoldstyle" unicode="&#xf735;" horiz-adv-x="450" 
d="M160 531l-16 -93c194 -30 239 -112 239 -182c0 -127 -170 -246 -319 -277l-20 70c98 17 250 85 250 194c0 79 -86 122 -229 134l37 220c27 1 242 7 289 11l-1 -78z" />
    <glyph glyph-name="sixoldstyle" unicode="&#xf736;" horiz-adv-x="506" 
d="M320 622l50 -62c-48 -28 -138 -99 -182 -186c151 6 266 -72 266 -179c0 -123 -112 -209 -218 -209c-51 0 -95 12 -129 46c-36 36 -57 85 -57 153c0 168 145 353 270 437zM137 190c0 -84 43 -139 105 -139c75 0 122 59 122 127c0 93 -97 141 -203 135
c-16 -36 -24 -70 -24 -123z" />
    <glyph glyph-name="sevenoldstyle" unicode="&#xf737;" horiz-adv-x="437" 
d="M19 531l-4 75c67 -3 326 -8 412 -8l2 -4c-16 -25 -233 -561 -252 -611l-83 37c19 29 223 488 233 510z" />
    <glyph glyph-name="eightoldstyle" unicode="&#xf738;" horiz-adv-x="548" 
d="M275 554c-80 0 -112 -54 -112 -106c0 -55 41 -110 107 -110c64 0 113 43 113 112c0 71 -48 104 -108 104zM283 613c109 0 187 -61 187 -152c0 -49 -30 -115 -102 -146c72 -29 112 -86 112 -156c0 -72 -64 -175 -213 -175c-135 0 -201 75 -201 163c0 64 47 128 107 160
c-59 24 -98 80 -98 140c0 76 75 166 208 166zM272 43c69 0 119 42 119 111c0 75 -54 122 -120 122c-75 0 -115 -60 -115 -127c0 -56 45 -106 116 -106z" />
    <glyph glyph-name="nineoldstyle" unicode="&#xf739;" horiz-adv-x="511" 
d="M193 -25l-51 60c47 28 133 100 182 194c-157 -8 -272 71 -272 178c0 114 104 205 214 205c120 0 192 -83 192 -194c0 -179 -141 -359 -265 -443zM260 547c-72 0 -119 -58 -119 -124c0 -99 97 -144 211 -135c10 26 19 70 19 118c0 95 -44 141 -111 141z" />
    <glyph glyph-name="questionsmall" unicode="&#xf73f;" horiz-adv-x="380" 
d="M25 550l21 72c148 -24 292 -95 292 -197c0 -126 -154 -212 -220 -238l-27 60c60 19 154 77 154 159c0 100 -123 131 -220 144zM90 0v88h95v-88h-95z" />
    <glyph glyph-name="Asmall" unicode="&#xf761;" horiz-adv-x="710" 
d="M91 -18l-77 44c48 85 308 566 328 599h2c77 -121 293 -504 352 -593l-81 -49c-16 32 -110 200 -119 215l-309 -12c-12 -27 -82 -175 -96 -204zM221 249l244 10c-10 19 -115 211 -124 225c-13 -20 -112 -221 -120 -235z" />
    <glyph glyph-name="Bsmall" unicode="&#xf762;" horiz-adv-x="580" 
d="M132 315v94c0 25 -2 168 -5 186c48 0 108 0 144 -3c183 -14 212 -83 212 -130c0 -33 -23 -97 -121 -135v-2c67 -9 149 -54 149 -130c0 -114 -136 -200 -366 -200h-18c5 47 5 303 5 320zM216 283v-223c101 7 202 44 202 130c0 66 -89 98 -202 93zM216 536v-199
c99 1 179 57 179 114c0 76 -115 86 -179 85z" />
    <glyph glyph-name="Csmall" unicode="&#xf763;" horiz-adv-x="587" 
d="M547 68l9 -75c-17 -3 -59 -7 -114 -7c-310 0 -386 170 -386 252c0 144 136 317 447 372l14 -76c-198 -24 -368 -134 -368 -282c0 -100 85 -194 302 -194c37 0 75 5 96 10z" />
    <glyph glyph-name="Dsmall" unicode="&#xf764;" horiz-adv-x="722" 
d="M132 269v105c0 18 -1 197 -5 221c52 0 145 1 224 -5c297 -23 323 -164 323 -223c0 -272 -309 -371 -548 -371c4 39 6 250 6 273zM218 528v-458c244 16 364 153 364 277c0 131 -135 185 -364 181z" />
    <glyph glyph-name="Esmall" unicode="&#xf765;" horiz-adv-x="528" 
d="M448 67l3 -76c-30 0 -304 9 -322 9c3 45 3 227 3 247v113c0 14 -2 219 -3 235c22 0 259 13 304 16l4 -72c-39 0 -203 -4 -218 -4v-208c17 0 133 4 188 9l3 -73c-15 0 -58 1 -100 2c-41 0 -81 1 -91 1v-202c22 0 144 -2 229 3z" />
    <glyph glyph-name="Fsmall" unicode="&#xf766;" horiz-adv-x="495" 
d="M222 0h-98c8 45 8 227 8 247v113c0 14 -2 219 -4 235c23 0 251 9 303 13l4 -72l-216 -4v-208c17 0 146 5 199 8l3 -71l-202 3v-78c0 -13 -1 -174 3 -186z" />
    <glyph glyph-name="Gsmall" unicode="&#xf767;" horiz-adv-x="658" 
d="M582 195v-62c0 -33 2 -109 2 -120c-41 -15 -125 -27 -201 -27c-206 0 -328 108 -328 249c0 100 106 289 440 376l18 -78c-197 -37 -365 -164 -365 -299c0 -89 74 -183 254 -183c38 0 76 5 94 12v138c0 25 -2 54 -3 59h89v-65z" />
    <glyph glyph-name="Hsmall" unicode="&#xf768;" horiz-adv-x="823" 
d="M223 0h-94c2 37 3 236 3 258v92c0 15 -3 225 -5 245h97c-2 -15 -5 -189 -5 -204v-62l385 16v64c0 14 -2 167 -3 186h97c-2 -20 -7 -250 -7 -270v-85c0 -11 2 -224 4 -240h-96c3 29 5 180 5 196v86l-385 -16v-52c0 -38 3 -194 4 -214z" />
    <glyph glyph-name="Ismall" unicode="&#xf769;" horiz-adv-x="352" 
d="M219 349v-92c0 -85 3 -237 4 -257h-94c2 37 3 236 3 258v92c0 15 -3 225 -5 245h97c-2 -15 -5 -144 -5 -246z" />
    <glyph glyph-name="Jsmall" unicode="&#xf76a;" horiz-adv-x="365" 
d="M252 391v-133c0 -185 -90 -279 -183 -318l-44 67c86 36 140 104 140 253v133c0 14 -3 182 -4 202h96c-2 -15 -5 -102 -5 -204z" />
    <glyph glyph-name="Ksmall" unicode="&#xf76b;" horiz-adv-x="658" 
d="M223 -9h-96c2 25 5 169 5 266v90c0 74 -5 237 -5 257h96c-1 -14 -5 -175 -5 -249v-91c0 -66 3 -256 5 -273zM607 60l-62 -68c-11 12 -281 279 -320 321c15 14 275 257 296 279l53 -65c-36 -28 -196 -163 -245 -208c28 -33 242 -227 278 -259z" />
    <glyph glyph-name="Lsmall" unicode="&#xf76c;" horiz-adv-x="492" 
d="M128 595h99c-4 -19 -8 -186 -8 -293v-235c22 0 130 0 227 4v-80c-29 0 -299 9 -322 9c8 45 8 227 8 247v113c0 14 -2 219 -4 235z" />
    <glyph glyph-name="Msmall" unicode="&#xf76d;" horiz-adv-x="940" 
d="M112 -22l-82 26c15 36 200 584 205 605h4c27 -54 191 -364 218 -413c29 48 216 361 232 387h3c27 -69 184 -484 221 -574l-83 -31c-21 64 -145 412 -157 445c-29 -47 -187 -307 -226 -369h-2c-51 95 -157 294 -197 371c-16 -53 -127 -414 -136 -447z" />
    <glyph glyph-name="Nsmall" unicode="&#xf76e;" horiz-adv-x="803" 
d="M193 -6l-92 6c5 64 30 541 34 629h5c26 -28 443 -448 471 -475c0 24 2 417 3 445l89 -4c-4 -51 -21 -399 -25 -613h-4c-26 23 -464 460 -475 472h-2c2 -16 -5 -432 -4 -460z" />
    <glyph glyph-name="Osmall" unicode="&#xf76f;" horiz-adv-x="774" 
d="M363 -14c-199 0 -308 131 -308 281c0 189 139 342 359 342c176 0 305 -107 305 -290c0 -133 -94 -333 -356 -333zM371 52c137 0 255 95 255 263c0 152 -106 228 -225 228c-159 0 -254 -118 -254 -263c0 -127 85 -228 224 -228z" />
    <glyph glyph-name="Psmall" unicode="&#xf770;" horiz-adv-x="560" 
d="M219 0h-91c2 37 4 241 4 302v93c0 20 -2 187 -2 200c38 0 123 -1 180 -10c122 -19 197 -74 197 -164c0 -122 -119 -215 -289 -245v-48c0 -17 0 -110 1 -128zM218 528v-286c108 21 197 71 197 169c0 31 -20 115 -197 117z" />
    <glyph glyph-name="Qsmall" unicode="&#xf771;" horiz-adv-x="773" 
d="M735 -1l-16 -81c-102 18 -214 38 -314 61c-22 5 -34 8 -45 8c-22 0 -141 8 -218 81c-51 49 -87 116 -87 207c0 183 148 334 357 334c176 0 306 -106 306 -280c0 -110 -58 -250 -214 -306v-3c80 -8 168 -17 231 -21zM147 282c0 -130 89 -229 224 -229
c147 0 255 109 255 268c0 152 -116 222 -219 222c-197 0 -260 -154 -260 -261z" />
    <glyph glyph-name="Rsmall" unicode="&#xf772;" horiz-adv-x="616" 
d="M219 530v-270c0 -32 3 -247 5 -260h-94c3 20 2 290 2 308v69c0 26 -2 202 -5 218c43 0 122 2 198 -7c120 -14 190 -63 190 -137c0 -70 -54 -130 -129 -174c23 -31 184 -207 210 -232l-69 -61c-10 12 -216 264 -243 300c45 23 136 69 136 154c0 40 -31 91 -201 92z" />
    <glyph glyph-name="Ssmall" unicode="&#xf773;" horiz-adv-x="480" 
d="M128 -16l-23 70c92 18 209 55 209 123c0 44 -31 65 -97 97c-78 38 -135 74 -135 136c0 95 139 178 268 201l19 -70c-59 -9 -195 -43 -195 -117c0 -46 65 -69 104 -91c69 -38 129 -65 129 -136c0 -88 -101 -177 -279 -213z" />
    <glyph glyph-name="Tsmall" unicode="&#xf774;" horiz-adv-x="565" 
d="M338 0h-104c5 22 6 270 6 405v119c-103 0 -232 -4 -245 -8v81c26 -7 241 -10 251 -10h80c17 0 215 3 244 10v-81c-2 4 -170 8 -243 8v-132c0 -173 9 -375 11 -392z" />
    <glyph glyph-name="Usmall" unicode="&#xf775;" horiz-adv-x="740" 
d="M180 451v-57c0 -138 8 -201 42 -257c35 -57 86 -82 151 -82c78 0 123 36 153 81c42 62 43 164 43 298v29c0 59 -4 109 -5 141h91c0 -19 1 -75 1 -142v-40c0 -163 -12 -266 -80 -345c-54 -62 -118 -91 -215 -91c-49 0 -144 7 -208 102c-42 63 -60 130 -60 336v46
c0 39 1 101 1 121h90c-1 -22 -4 -62 -4 -140z" />
    <glyph glyph-name="Vsmall" unicode="&#xf776;" horiz-adv-x="655" 
d="M576 610l80 -42c-29 -44 -305 -537 -337 -596h-2c-17 28 -284 557 -308 596l83 42c14 -39 216 -453 234 -480c15 21 239 452 250 480z" />
    <glyph glyph-name="Wsmall" unicode="&#xf777;" horiz-adv-x="945" 
d="M858 599l84 -34c-8 -22 -225 -517 -250 -566h-4c-34 60 -189 303 -213 345c-36 -64 -180 -311 -218 -374h-4c-28 68 -188 505 -223 602l86 34c29 -98 143 -426 158 -471c25 46 140 244 204 358h2c56 -96 160 -259 207 -340c15 42 156 398 171 446z" />
    <glyph glyph-name="Xsmall" unicode="&#xf778;" horiz-adv-x="659" 
d="M98 -18l-63 59c24 19 216 232 244 264c-37 41 -176 193 -211 232l66 63c24 -31 133 -165 199 -241c31 33 188 210 214 240l61 -60c-29 -28 -207 -204 -229 -232c27 -30 208 -227 243 -263l-69 -61c-24 28 -207 246 -229 271c-10 -15 -210 -256 -226 -272z" />
    <glyph glyph-name="Ysmall" unicode="&#xf779;" horiz-adv-x="585" 
d="M341 0h-96c0 20 4 110 4 121v60c0 111 -52 198 -114 262c-37 38 -85 73 -123 88l37 73c48 -24 108 -69 131 -94c43 -46 98 -112 119 -183h1c27 71 61 120 110 172c40 42 117 92 164 107l26 -73c-48 -15 -110 -51 -161 -106c-62 -66 -103 -155 -103 -246v-76
c0 -12 3 -88 5 -105z" />
    <glyph glyph-name="Zsmall" unicode="&#xf77a;" horiz-adv-x="601" 
d="M77 538l4 73c51 -5 473 -20 487 -20v-2c-33 -43 -385 -518 -393 -529c49 0 349 3 370 6l-3 -75c-19 0 -469 9 -512 9v2c38 40 380 505 400 532c-35 0 -336 4 -353 4z" />
    <glyph glyph-name="exclamdownsmall" unicode="&#xf7a1;" horiz-adv-x="273" 
d="M193 595v-88h-95v88h95zM118 405l55 6c0 -119 0 -323 4 -425l-104 4c9 81 34 299 45 415z" />
    <glyph glyph-name="centoldstyle" unicode="&#xf7a2;" horiz-adv-x="447" 
d="M207 -14l2 139c-111 24 -148 120 -148 158c0 87 62 163 148 206l-2 151h70l-3 -124c27 12 64 20 101 27l10 -74c-163 -15 -234 -96 -234 -175s86 -118 179 -118c26 0 48 3 68 7l6 -69c-23 -4 -51 -6 -73 -6s-42 2 -57 3l3 -125h-70z" />
    <glyph glyph-name="Lslashsmall" unicode="&#xf6f9;" horiz-adv-x="497" 
d="M224 362c53 21 104 41 125 51l20 -57c-29 -11 -85 -31 -145 -54v-235c22 0 130 0 227 4v-80c-29 0 -299 9 -322 9c8 45 8 225 8 245v24c-38 -14 -67 -26 -92 -37l-19 55c24 9 60 22 111 43v28c0 14 -2 221 -4 237h99c-4 -19 -8 -157 -8 -214v-19z" />
    <glyph glyph-name="Scaronsmall" unicode="&#xf6fd;" horiz-adv-x="480" 
d="M128 -16l-23 70c92 18 209 55 209 123c0 44 -31 65 -97 97c-78 38 -135 74 -135 136c0 95 139 178 268 201l19 -70c-59 -9 -195 -43 -195 -117c0 -46 65 -69 104 -91c69 -38 129 -65 129 -136c0 -88 -101 -177 -279 -213zM253 679l-142 93l38 45l105 -78l95 78l37 -45z
" />
    <glyph glyph-name="Zcaronsmall" unicode="&#xf6ff;" horiz-adv-x="601" 
d="M77 538l4 73c51 -5 473 -20 487 -20v-2c-33 -43 -385 -518 -393 -529c49 0 349 3 370 6l-3 -75c-19 0 -469 9 -512 9v2c38 40 380 505 400 532c-35 0 -336 4 -353 4zM309 679l-142 93l38 45l105 -78l95 78l37 -45z" />
    <glyph glyph-name="questiondownsmall" unicode="&#xf7bf;" horiz-adv-x="380" 
d="M355 45l-21 -72c-148 24 -292 95 -292 197c0 126 154 212 220 238l27 -60c-60 -19 -154 -77 -154 -159c0 -100 123 -131 220 -144zM290 595v-88h-95v88h95z" />
    <glyph glyph-name="foursuperior" unicode="&#x2074;" horiz-adv-x="410" 
d="M367 425l-5 -58l-64 2v-20c0 -23 0 -51 1 -75h-61c1 23 3 49 3 81v14h-226l-1 7l279 340h6v-293zM242 422v166c-28 -44 -105 -137 -132 -166h132z" />
    <glyph glyph-name="Agravesmall" unicode="&#xf7e0;" horiz-adv-x="710" 
d="M91 -18l-77 44c48 85 308 566 328 599h2c77 -121 293 -504 352 -593l-81 -49c-16 32 -110 200 -119 215l-309 -12c-12 -27 -82 -175 -96 -204zM221 249l244 10c-10 19 -115 211 -124 225c-13 -20 -112 -221 -120 -235zM281 821l129 -112l-22 -33l-151 78z" />
    <glyph glyph-name="Aacutesmall" unicode="&#xf7e1;" horiz-adv-x="710" 
d="M91 -18l-77 44c48 85 308 566 328 599h2c77 -121 293 -504 352 -593l-81 -49c-16 32 -110 200 -119 215l-309 -12c-12 -27 -82 -175 -96 -204zM221 249l244 10c-10 19 -115 211 -124 225c-13 -20 -112 -221 -120 -235zM281 709l130 112l45 -66l-151 -80z" />
    <glyph glyph-name="Acircumflexsmall" unicode="&#xf7e2;" horiz-adv-x="710" 
d="M91 -18l-77 44c48 85 308 566 328 599h2c77 -121 293 -504 352 -593l-81 -49c-16 32 -110 200 -119 215l-309 -12c-12 -27 -82 -175 -96 -204zM221 249l244 10c-10 19 -115 211 -124 225c-13 -20 -112 -221 -120 -235zM210 724l142 95l133 -95l-39 -45l-97 80l-105 -80z
" />
    <glyph glyph-name="Atildesmall" unicode="&#xf7e3;" horiz-adv-x="710" 
d="M91 -18l-77 44c48 85 308 566 328 599h2c77 -121 293 -504 352 -593l-81 -49c-16 32 -110 200 -119 215l-309 -12c-12 -27 -82 -175 -96 -204zM221 249l244 10c-10 19 -115 211 -124 225c-13 -20 -112 -221 -120 -235zM234 685l-39 27c25 41 56 74 87 74
c33 0 55 -12 76 -22c16 -9 30 -16 50 -16c22 1 41 20 55 41l39 -31c-25 -37 -56 -70 -87 -70c-28 -1 -49 11 -70 21c-19 10 -36 17 -56 17c-23 0 -41 -20 -55 -41z" />
    <glyph glyph-name="Adieresissmall" unicode="&#xf7e4;" horiz-adv-x="710" 
d="M91 -18l-77 44c48 85 308 566 328 599h2c77 -121 293 -504 352 -593l-81 -49c-16 32 -110 200 -119 215l-309 -12c-12 -27 -82 -175 -96 -204zM221 249l244 10c-10 19 -115 211 -124 225c-13 -20 -112 -221 -120 -235zM244 688l-60 61l60 60l61 -60zM454 688l-61 61
l61 60l60 -60z" />
    <glyph glyph-name="Aringsmall" unicode="&#xf7e5;" horiz-adv-x="710" 
d="M91 -18l-77 44c48 85 308 566 328 599h2c77 -121 293 -504 352 -593l-81 -49c-16 32 -110 200 -119 215l-309 -12c-12 -27 -82 -175 -96 -204zM221 249l244 10c-10 19 -115 211 -124 225c-13 -20 -112 -221 -120 -235zM340 679c-48 0 -92 29 -92 73c2 51 49 84 100 84
c64 0 96 -33 96 -71c0 -54 -50 -86 -104 -86zM345 715c24 0 47 14 47 45c0 22 -18 39 -45 39c-21 0 -46 -14 -46 -43c0 -25 20 -41 44 -41z" />
    <glyph glyph-name="AEsmall" unicode="&#xf7e6;" horiz-adv-x="831" 
d="M750 66l4 -75c-33 0 -316 9 -334 9c1 20 5 114 5 170v64l-210 -5c-17 -25 -136 -202 -164 -246l-71 51c47 56 358 477 425 561c20 0 302 13 331 16l3 -71c-29 0 -220 -4 -231 -4v-236c13 0 157 5 201 10l3 -71c-20 0 -189 2 -204 2v-178c18 0 168 -2 242 3zM258 289
l167 6v225h-4c-65 -90 -147 -208 -163 -231z" />
    <glyph glyph-name="Ccedillasmall" unicode="&#xf7e7;" horiz-adv-x="587" 
d="M355 -10l-34 -50c34 -10 71 -38 71 -71c0 -49 -74 -92 -155 -100l-10 41c45 2 93 21 93 56c0 25 -32 51 -62 62l48 71c-183 38 -250 157 -250 239c0 144 136 317 447 372l14 -76c-198 -24 -368 -134 -368 -282c0 -100 85 -194 302 -194c37 0 75 5 96 10l9 -75
c-17 -3 -59 -7 -114 -7c-26 0 -60 2 -87 4z" />
    <glyph glyph-name="Egravesmall" unicode="&#xf7e8;" horiz-adv-x="528" 
d="M448 67l3 -76c-30 0 -304 9 -322 9c3 45 3 227 3 247v113c0 14 -2 219 -3 235c22 0 259 13 304 16l4 -72c-39 0 -203 -4 -218 -4v-208c17 0 133 4 188 9l3 -73c-15 0 -58 1 -100 2c-41 0 -81 1 -91 1v-202c22 0 144 -2 229 3zM215 821l129 -112l-22 -33l-151 78z" />
    <glyph glyph-name="Eacutesmall" unicode="&#xf7e9;" horiz-adv-x="528" 
d="M448 67l3 -76c-30 0 -304 9 -322 9c3 45 3 227 3 247v113c0 14 -2 219 -3 235c22 0 259 13 304 16l4 -72c-39 0 -203 -4 -218 -4v-208c17 0 133 4 188 9l3 -73c-15 0 -58 1 -100 2c-41 0 -81 1 -91 1v-202c22 0 144 -2 229 3zM210 709l130 112l45 -66l-151 -80z" />
    <glyph glyph-name="Ecircumflexsmall" unicode="&#xf7ea;" horiz-adv-x="528" 
d="M448 67l3 -76c-30 0 -304 9 -322 9c3 45 3 227 3 247v113c0 14 -2 219 -3 235c22 0 259 13 304 16l4 -72c-39 0 -203 -4 -218 -4v-208c17 0 133 4 188 9l3 -73c-15 0 -58 1 -100 2c-41 0 -81 1 -91 1v-202c22 0 144 -2 229 3zM139 724l142 95l133 -95l-39 -45l-97 80
l-105 -80z" />
    <glyph glyph-name="Edieresissmall" unicode="&#xf7eb;" horiz-adv-x="528" 
d="M448 67l3 -76c-30 0 -304 9 -322 9c3 45 3 227 3 247v113c0 14 -2 219 -3 235c22 0 259 13 304 16l4 -72c-39 0 -203 -4 -218 -4v-208c17 0 133 4 188 9l3 -73c-15 0 -58 1 -100 2c-41 0 -81 1 -91 1v-202c22 0 144 -2 229 3zM163 688l-60 61l60 60l61 -60zM373 688
l-61 61l61 60l60 -60z" />
    <glyph glyph-name="Igravesmall" unicode="&#xf7ec;" horiz-adv-x="352" 
d="M219 349v-92c0 -85 3 -237 4 -257h-94c2 37 3 236 3 258v92c0 15 -3 225 -5 245h97c-2 -15 -5 -144 -5 -246zM107 821l129 -112l-22 -33l-151 78z" />
    <glyph glyph-name="Iacutesmall" unicode="&#xf7ed;" horiz-adv-x="352" 
d="M219 349v-92c0 -85 3 -237 4 -257h-94c2 37 3 236 3 258v92c0 15 -3 225 -5 245h97c-2 -15 -5 -144 -5 -246zM112 709l130 112l45 -66l-151 -80z" />
    <glyph glyph-name="Icircumflexsmall" unicode="&#xf7ee;" horiz-adv-x="352" 
d="M219 349v-92c0 -85 3 -237 4 -257h-94c2 37 3 236 3 258v92c0 15 -3 225 -5 245h97c-2 -15 -5 -144 -5 -246zM41 724l142 95l133 -95l-39 -45l-97 80l-105 -80z" />
    <glyph glyph-name="Idieresissmall" unicode="&#xf7ef;" horiz-adv-x="352" 
d="M219 349v-92c0 -85 3 -237 4 -257h-94c2 37 3 236 3 258v92c0 15 -3 225 -5 245h97c-2 -15 -5 -144 -5 -246zM65 688l-60 61l60 60l61 -60zM275 688l-61 61l61 60l60 -60z" />
    <glyph glyph-name="Ethsmall" unicode="&#xf7f0;" horiz-adv-x="727" 
d="M137 269c-43 -2 -73 -4 -91 -5l-3 60c18 0 48 2 94 4v46c0 18 -1 197 -5 221c52 0 146 2 225 -5c300 -27 322 -164 322 -227c0 -260 -296 -367 -548 -367c4 39 6 225 6 248v25zM223 274v-204c244 20 364 145 364 275c0 136 -135 186 -364 183v-196c51 2 107 6 148 8
l2 -62c-45 -1 -100 -2 -150 -4z" />
    <glyph glyph-name="Ntildesmall" unicode="&#xf7f1;" horiz-adv-x="803" 
d="M193 -6l-92 6c5 64 30 541 34 629h5c26 -28 443 -448 471 -475c0 24 2 417 3 445l89 -4c-4 -51 -21 -399 -25 -613h-4c-26 23 -464 460 -475 472h-2c2 -16 -5 -432 -4 -460zM296 685l-39 27c25 41 56 74 87 74c33 0 55 -12 76 -22c16 -9 30 -16 50 -16c22 1 41 20 55 41
l39 -31c-25 -37 -56 -70 -87 -70c-28 -1 -49 11 -70 21c-19 10 -36 17 -56 17c-23 0 -41 -20 -55 -41z" />
    <glyph glyph-name="Ogravesmall" unicode="&#xf7f2;" horiz-adv-x="774" 
d="M363 -14c-199 0 -308 131 -308 281c0 189 139 342 359 342c176 0 305 -107 305 -290c0 -133 -94 -333 -356 -333zM371 52c137 0 255 95 255 263c0 152 -106 228 -225 228c-159 0 -254 -118 -254 -263c0 -127 85 -228 224 -228zM313 821l129 -112l-22 -33l-151 78z" />
    <glyph glyph-name="Oacutesmall" unicode="&#xf7f3;" horiz-adv-x="774" 
d="M363 -14c-199 0 -308 131 -308 281c0 189 139 342 359 342c176 0 305 -107 305 -290c0 -133 -94 -333 -356 -333zM371 52c137 0 255 95 255 263c0 152 -106 228 -225 228c-159 0 -254 -118 -254 -263c0 -127 85 -228 224 -228zM333 709l130 112l45 -66l-151 -80z" />
    <glyph glyph-name="Ocircumflexsmall" unicode="&#xf7f4;" horiz-adv-x="774" 
d="M363 -14c-199 0 -308 131 -308 281c0 189 139 342 359 342c176 0 305 -107 305 -290c0 -133 -94 -333 -356 -333zM371 52c137 0 255 95 255 263c0 152 -106 228 -225 228c-159 0 -254 -118 -254 -263c0 -127 85 -228 224 -228zM252 724l142 95l133 -95l-39 -45l-97 80
l-105 -80z" />
    <glyph glyph-name="Otildesmall" unicode="&#xf7f5;" horiz-adv-x="774" 
d="M363 -14c-199 0 -308 131 -308 281c0 189 139 342 359 342c176 0 305 -107 305 -290c0 -133 -94 -333 -356 -333zM371 52c137 0 255 95 255 263c0 152 -106 228 -225 228c-159 0 -254 -118 -254 -263c0 -127 85 -228 224 -228zM281 685l-39 27c25 41 56 74 87 74
c33 0 55 -12 76 -22c16 -9 30 -16 50 -16c22 1 41 20 55 41l39 -31c-25 -37 -56 -70 -87 -70c-28 -1 -49 11 -70 21c-19 10 -36 17 -56 17c-23 0 -41 -20 -55 -41z" />
    <glyph glyph-name="Odieresissmall" unicode="&#xf7f6;" horiz-adv-x="774" 
d="M363 -14c-199 0 -308 131 -308 281c0 189 139 342 359 342c176 0 305 -107 305 -290c0 -133 -94 -333 -356 -333zM371 52c137 0 255 95 255 263c0 152 -106 228 -225 228c-159 0 -254 -118 -254 -263c0 -127 85 -228 224 -228zM286 688l-60 61l60 60l61 -60zM496 688
l-61 61l61 60l60 -60z" />
    <glyph glyph-name="OEsmall" unicode="&#xf6fa;" horiz-adv-x="1039" 
d="M917 335l3 -71l-209 3v-203c23 0 173 -2 247 3l4 -76c-33 0 -316 9 -337 9c1 17 2 54 3 110h-3c-56 -84 -151 -124 -273 -124c-188 0 -297 140 -297 283c0 174 130 340 359 340c79 0 161 -26 212 -91h2l-3 77c25 0 290 13 319 16l3 -71l-236 -4v-210c18 0 162 4 206 9z
M372 52c133 0 258 102 258 227v60c0 122 -106 204 -227 204c-189 0 -257 -153 -257 -262c0 -115 79 -229 226 -229z" />
    <glyph glyph-name="Oslashsmall" unicode="&#xf7f8;" horiz-adv-x="774" 
d="M368 -14c-89 0 -155 21 -204 58c-27 -23 -51 -47 -78 -72l-46 51c26 20 54 42 80 65c-42 46 -64 112 -64 179c0 189 141 342 361 342c73 0 139 -20 190 -59c27 27 57 58 80 82l47 -49c-28 -25 -52 -46 -81 -75c41 -45 64 -110 64 -189c0 -129 -90 -333 -349 -333zM372 50
c128 0 256 94 256 265c0 51 -3 98 -31 137c-129 -120 -247 -234 -375 -353c40 -35 90 -49 150 -49zM145 280c0 -50 8 -100 34 -135c131 120 250 235 374 354c-42 34 -92 46 -149 46c-159 0 -259 -121 -259 -265z" />
    <glyph glyph-name="Ugravesmall" unicode="&#xf7f9;" horiz-adv-x="740" 
d="M180 451v-57c0 -138 8 -201 42 -257c35 -57 86 -82 151 -82c78 0 123 36 153 81c42 62 43 164 43 298v29c0 59 -4 109 -5 141h91c0 -19 1 -75 1 -142v-40c0 -163 -12 -266 -80 -345c-54 -62 -118 -91 -215 -91c-49 0 -144 7 -208 102c-42 63 -60 130 -60 336v46
c0 39 1 101 1 121h90c-1 -22 -4 -62 -4 -140zM306 821l129 -112l-22 -33l-151 78z" />
    <glyph glyph-name="Uacutesmall" unicode="&#xf7fa;" horiz-adv-x="740" 
d="M180 451v-57c0 -138 8 -201 42 -257c35 -57 86 -82 151 -82c78 0 123 36 153 81c42 62 43 164 43 298v29c0 59 -4 109 -5 141h91c0 -19 1 -75 1 -142v-40c0 -163 -12 -266 -80 -345c-54 -62 -118 -91 -215 -91c-49 0 -144 7 -208 102c-42 63 -60 130 -60 336v46
c0 39 1 101 1 121h90c-1 -22 -4 -62 -4 -140zM316 709l130 112l45 -66l-151 -80z" />
    <glyph glyph-name="Ucircumflexsmall" unicode="&#xf7fb;" horiz-adv-x="740" 
d="M180 451v-57c0 -138 8 -201 42 -257c35 -57 86 -82 151 -82c78 0 123 36 153 81c42 62 43 164 43 298v29c0 59 -4 109 -5 141h91c0 -19 1 -75 1 -142v-40c0 -163 -12 -266 -80 -345c-54 -62 -118 -91 -215 -91c-49 0 -144 7 -208 102c-42 63 -60 130 -60 336v46
c0 39 1 101 1 121h90c-1 -22 -4 -62 -4 -140zM235 724l142 95l133 -95l-39 -45l-97 80l-105 -80z" />
    <glyph glyph-name="Udieresissmall" unicode="&#xf7fc;" horiz-adv-x="740" 
d="M180 451v-57c0 -138 8 -201 42 -257c35 -57 86 -82 151 -82c78 0 123 36 153 81c42 62 43 164 43 298v29c0 59 -4 109 -5 141h91c0 -19 1 -75 1 -142v-40c0 -163 -12 -266 -80 -345c-54 -62 -118 -91 -215 -91c-49 0 -144 7 -208 102c-42 63 -60 130 -60 336v46
c0 39 1 101 1 121h90c-1 -22 -4 -62 -4 -140zM269 688l-60 61l60 60l61 -60zM479 688l-61 61l61 60l60 -60z" />
    <glyph glyph-name="Yacutesmall" unicode="&#xf7fd;" horiz-adv-x="585" 
d="M341 0h-96c0 20 4 110 4 121v60c0 111 -52 198 -114 262c-37 38 -85 73 -123 88l37 73c48 -24 108 -69 131 -94c43 -46 98 -112 119 -183h1c27 71 61 120 110 172c40 42 117 92 164 107l26 -73c-48 -15 -110 -51 -161 -106c-62 -66 -103 -155 -103 -246v-76
c0 -12 3 -88 5 -105zM239 709l130 112l45 -66l-151 -80z" />
    <glyph glyph-name="Thornsmall" unicode="&#xf7fe;" horiz-adv-x="564" 
d="M218 453v-277c117 9 195 72 195 156c0 40 -23 120 -195 121zM219 517c23 0 44 0 68 -3c118 -13 220 -77 220 -171c0 -115 -108 -216 -289 -231v-15c0 -17 0 -86 1 -125h-91c2 58 4 269 4 330v100c0 20 -2 187 -2 221h92c-2 -37 -3 -72 -3 -106z" />
    <glyph glyph-name="Ydieresissmall" unicode="&#xf7ff;" horiz-adv-x="585" 
d="M341 0h-96c0 20 4 110 4 121v60c0 111 -52 198 -114 262c-37 38 -85 73 -123 88l37 73c48 -24 108 -69 131 -94c43 -46 98 -112 119 -183h1c27 71 61 120 110 172c40 42 117 92 164 107l26 -73c-48 -15 -110 -51 -161 -106c-62 -66 -103 -155 -103 -246v-76
c0 -12 3 -88 5 -105zM192 688l-60 61l60 60l61 -60zM402 688l-61 61l61 60l60 -60z" />
    <glyph glyph-name="commaaccent" unicode="&#xf6c3;" 
d="M363 -226l49 173l74 -33l-93 -154z" />
    <glyph glyph-name="Abreve" unicode="&#x102;" horiz-adv-x="800" 
d="M102 -19l-82 52c55 96 343 664 367 702h2c88 -142 325 -593 393 -697l-85 -56c-20 38 -126 243 -137 259l-347 -14c-12 -19 -94 -212 -111 -246zM247 293l283 12c-11 22 -134 255 -144 271c-15 -22 -130 -267 -139 -283zM515 878l35 -43c-33 -38 -97 -75 -151 -75
c-51 0 -122 39 -149 73l38 45c25 -27 64 -55 119 -55c47 0 82 25 108 55z" />
    <glyph glyph-name="Amacron" unicode="&#x100;" horiz-adv-x="800" 
d="M102 -19l-82 52c55 96 343 664 367 702h2c88 -142 325 -593 393 -697l-85 -56c-20 38 -126 243 -137 259l-347 -14c-12 -19 -94 -212 -111 -246zM247 293l283 12c-11 22 -134 255 -144 271c-15 -22 -130 -267 -139 -283zM262 770l8 56l268 3l-4 -64z" />
    <glyph glyph-name="Aogonek" unicode="&#x104;" horiz-adv-x="800" 
d="M247 293l283 12c-11 22 -134 255 -144 271c-15 -22 -130 -267 -139 -283zM102 -19l-82 52c55 96 343 664 367 702h2c88 -142 325 -593 393 -697l-68 -45c-52 -35 -85 -72 -85 -97c0 -27 27 -63 89 -75l-13 -42c-74 13 -151 53 -151 105c0 40 43 77 130 123
c-27 52 -114 220 -124 234l-347 -14c-12 -19 -94 -212 -111 -246z" />
    <glyph glyph-name="Cacute" unicode="&#x106;" horiz-adv-x="660" 
d="M612 74l10 -80c-30 -6 -76 -10 -136 -10c-341 0 -426 204 -426 296c0 164 151 373 504 436l15 -84c-229 -26 -418 -163 -418 -335c0 -122 96 -237 335 -237c40 0 82 6 116 14zM386 787l137 118l48 -70l-159 -84z" />
    <glyph glyph-name="Ccaron" unicode="&#x10c;" horiz-adv-x="660" 
d="M612 74l10 -80c-30 -6 -76 -10 -136 -10c-341 0 -426 204 -426 296c0 164 151 373 504 436l15 -84c-229 -26 -418 -163 -418 -335c0 -122 96 -237 335 -237c40 0 82 6 116 14zM455 755l-149 98l40 48l110 -82l100 82l39 -48z" />
    <glyph glyph-name="Dcaron" unicode="&#x10e;" horiz-adv-x="826" 
d="M150 316v124c0 21 -1 232 -5 260c57 0 168 1 255 -10c326 -41 366 -186 366 -256c0 -310 -394 -439 -622 -439c4 46 6 294 6 321zM240 625v-542c273 24 428 185 428 325c0 152 -169 220 -428 217zM378 755l-149 98l40 48l110 -82l100 82l39 -48z" />
    <glyph glyph-name="Dcroat" unicode="&#x110;" horiz-adv-x="826" 
d="M49 310l-3 69c20 0 53 2 104 4v57c0 21 -1 232 -5 260c57 0 168 1 255 -10c326 -41 366 -187 366 -256c0 -310 -394 -439 -622 -439c4 46 6 294 6 321c-48 -2 -81 -4 -101 -6zM396 398l2 -71c-44 -1 -103 -3 -158 -6v-238c273 23 428 195 428 325
c0 147 -170 220 -428 217v-237c56 2 116 7 156 10z" />
    <glyph glyph-name="Ecaron" unicode="&#x11a;" horiz-adv-x="574" 
d="M480 76l4 -86c-16 0 -317 10 -337 10c3 53 3 267 3 290v134c0 16 -2 257 -3 276c24 0 285 15 317 19l4 -79c-32 0 -212 -5 -228 -5v-254c18 0 146 5 195 11l3 -79c-22 0 -178 4 -198 4v-244c24 0 158 -3 240 3zM322 755l-149 98l40 48l110 -82l100 82l39 -48z" />
    <glyph glyph-name="Edotaccent" unicode="&#x116;" horiz-adv-x="574" 
d="M480 76l4 -86c-16 0 -317 10 -337 10c3 53 3 267 3 290v134c0 16 -2 257 -3 276c24 0 285 15 317 19l4 -79c-32 0 -212 -5 -228 -5v-254c18 0 146 5 195 11l3 -79c-22 0 -178 4 -198 4v-244c24 0 158 -3 240 3zM317 765l-71 71l71 70l71 -70z" />
    <glyph glyph-name="Emacron" unicode="&#x112;" horiz-adv-x="574" 
d="M480 76l4 -86c-16 0 -317 10 -337 10c3 53 3 267 3 290v134c0 16 -2 257 -3 276c24 0 285 15 317 19l4 -79c-32 0 -212 -5 -228 -5v-254c18 0 146 5 195 11l3 -79c-22 0 -178 4 -198 4v-244c24 0 158 -3 240 3zM169 770l8 56l268 3l-4 -64z" />
    <glyph glyph-name="Eogonek" unicode="&#x118;" horiz-adv-x="574" 
d="M480 76l4 -86c-1 0 -3 0 -20 1c-51 -32 -81 -71 -81 -95c0 -27 27 -63 89 -75l-13 -42c-74 13 -151 53 -151 105c0 41 47 80 100 108c-61 2 -245 8 -261 8c3 53 3 267 3 290v134c0 16 -2 257 -3 276c24 0 285 15 317 19l4 -79c-32 0 -212 -5 -228 -5v-254
c18 0 146 5 195 11l3 -79c-22 0 -178 4 -198 4v-244c24 0 158 -3 240 3z" />
    <glyph glyph-name="Gbreve" unicode="&#x11e;" horiz-adv-x="740" 
d="M650 229v-73c0 -38 3 -127 3 -140c-45 -17 -138 -32 -221 -32c-227 0 -372 127 -372 292c0 113 117 341 495 443l20 -87c-228 -44 -416 -198 -416 -357c0 -104 96 -220 294 -220c42 0 83 7 107 15v167c0 29 -2 63 -3 69h94c-1 -24 -1 -47 -1 -77zM565 878l35 -43
c-33 -38 -97 -75 -151 -75c-51 0 -122 39 -149 73l38 45c25 -27 64 -55 119 -55c47 0 82 25 108 55z" />
    <glyph glyph-name="Gcommaaccent" unicode="&#x122;" horiz-adv-x="740" 
d="M650 229v-73c0 -38 3 -127 3 -140c-45 -17 -138 -32 -221 -32c-227 0 -372 127 -372 292c0 113 117 341 495 443l20 -87c-228 -44 -416 -198 -416 -357c0 -104 96 -220 294 -220c42 0 83 7 107 15v167c0 29 -2 63 -3 69h94c-1 -24 -1 -47 -1 -77zM308 -226l49 173l74 -33
l-93 -154z" />
    <glyph glyph-name="Imacron" unicode="&#x12a;" horiz-adv-x="390" 
d="M240 410v-108c0 -100 3 -279 4 -302h-97c2 44 3 278 3 304v108c0 17 -3 264 -5 288h100c-2 -18 -5 -170 -5 -290zM57 770l8 56l268 3l-4 -64z" />
    <glyph glyph-name="Iogonek" unicode="&#x12e;" horiz-adv-x="390" 
d="M224 -179l-13 -42c-74 13 -151 53 -151 105c0 41 46 80 111 116h-24c2 44 3 278 3 304v108c0 17 -3 264 -5 288h100c-2 -18 -5 -170 -5 -290v-108c0 -100 3 -279 4 -302h-16c-61 -39 -93 -79 -93 -104c0 -27 27 -63 89 -75z" />
    <glyph glyph-name="Kcommaaccent" unicode="&#x136;" horiz-adv-x="722" 
d="M245 -10h-100c2 29 5 198 5 312v106c0 87 -5 279 -5 302h100c-1 -16 -5 -205 -5 -292v-108c0 -77 3 -301 5 -320zM667 66l-66 -70c-10 14 -311 324 -354 372c17 16 303 298 326 324l58 -66c-38 -36 -219 -198 -272 -251c31 -38 270 -272 308 -309zM299 -206l49 173
l74 -33l-93 -154z" />
    <glyph glyph-name="Lacute" unicode="&#x139;" horiz-adv-x="533" 
d="M146 700h102c-4 -22 -8 -219 -8 -345v-283c24 0 142 0 238 4v-86c-14 0 -311 10 -336 10c8 53 8 267 8 291v133c0 16 -2 257 -4 276zM140 787l137 118l48 -70l-159 -84z" />
    <glyph glyph-name="Lcaron" unicode="&#x13d;" horiz-adv-x="533" 
d="M146 700h102c-4 -22 -8 -219 -8 -345v-283c24 0 142 0 238 4v-86c-14 0 -311 10 -336 10c8 53 8 267 8 291v133c0 16 -2 257 -4 276zM344 527l49 173l74 -33l-93 -154z" />
    <glyph glyph-name="Lcommaaccent" unicode="&#x13b;" horiz-adv-x="533" 
d="M146 700h102c-4 -22 -8 -219 -8 -345v-283c24 0 142 0 238 4v-86c-14 0 -311 10 -336 10c8 53 8 267 8 291v133c0 16 -2 257 -4 276zM224 -226l49 173l74 -33l-93 -154z" />
    <glyph glyph-name="Nacute" unicode="&#x143;" horiz-adv-x="915" 
d="M211 -7l-94 7c5 75 32 637 37 740h2c28 -32 512 -535 544 -567c0 28 6 499 7 532l93 -5c-4 -60 -23 -469 -27 -721h-2c-27 27 -533 546 -551 571h-2c0 -35 -8 -524 -7 -557zM414 767l137 118l48 -70l-159 -84z" />
    <glyph glyph-name="Ncaron" unicode="&#x147;" horiz-adv-x="915" 
d="M211 -7l-94 7c5 75 32 637 37 740h2c28 -32 512 -535 544 -567c0 28 6 499 7 532l93 -5c-4 -60 -23 -469 -27 -721h-2c-27 27 -533 546 -551 571h-2c0 -35 -8 -524 -7 -557zM463 735l-149 98l40 48l110 -82l100 82l39 -48z" />
    <glyph glyph-name="Ncommaaccent" unicode="&#x145;" horiz-adv-x="915" 
d="M211 -7l-94 7c5 75 32 637 37 740h2c28 -32 512 -535 544 -567c0 28 6 499 7 532l93 -5c-4 -60 -23 -469 -27 -721h-2c-27 27 -533 546 -551 571h-2c0 -35 -8 -524 -7 -557zM396 -206l49 173l74 -33l-93 -154z" />
    <glyph glyph-name="Ohungarumlaut" unicode="&#x150;" 
d="M402 -16c-218 0 -342 154 -342 330c0 222 157 402 398 402c189 0 332 -125 332 -341c0 -156 -104 -391 -388 -391zM411 58c150 0 282 115 282 312c0 179 -118 272 -249 272c-179 0 -288 -142 -288 -313c0 -149 98 -271 255 -271zM445 780l113 140l55 -54l-135 -114z
M315 780l89 136l59 -49l-114 -114z" />
    <glyph glyph-name="Omacron" unicode="&#x14c;" 
d="M402 -16c-218 0 -342 154 -342 330c0 222 157 402 398 402c189 0 332 -125 332 -341c0 -156 -104 -391 -388 -391zM411 58c150 0 282 115 282 312c0 179 -118 272 -249 272c-179 0 -288 -142 -288 -313c0 -149 98 -271 255 -271zM307 770l8 56l268 3l-4 -64z" />
    <glyph glyph-name="Racute" unicode="&#x154;" horiz-adv-x="692" 
d="M240 633v-327c0 -38 3 -291 5 -306h-97c4 24 2 341 2 362v82c0 30 -2 237 -5 256c47 0 131 -1 208 -10c132 -16 207 -72 207 -157s-57 -151 -139 -203c25 -34 205 -257 233 -287l-76 -61c-11 14 -236 309 -266 351c50 27 150 88 150 186c0 45 -33 112 -222 114zM302 787
l137 118l48 -70l-159 -84z" />
    <glyph glyph-name="Rcaron" unicode="&#x158;" horiz-adv-x="692" 
d="M240 633v-327c0 -38 3 -291 5 -306h-97c4 24 2 341 2 362v82c0 30 -2 237 -5 256c47 0 131 -1 208 -10c132 -16 207 -72 207 -157s-57 -151 -139 -203c25 -34 205 -257 233 -287l-76 -61c-11 14 -236 309 -266 351c50 27 150 88 150 186c0 45 -33 112 -222 114zM351 755
l-149 98l40 48l110 -82l100 82l39 -48z" />
    <glyph glyph-name="Rcommaaccent" unicode="&#x156;" horiz-adv-x="692" 
d="M240 633v-327c0 -38 3 -291 5 -306h-97c4 24 2 341 2 362v82c0 30 -2 237 -5 256c47 0 131 -1 208 -10c132 -16 207 -72 207 -157s-57 -151 -139 -203c25 -34 205 -257 233 -287l-76 -61c-11 14 -236 309 -266 351c50 27 150 88 150 186c0 45 -33 112 -222 114zM284 -226
l49 173l74 -33l-93 -154z" />
    <glyph glyph-name="Sacute" unicode="&#x15a;" horiz-adv-x="527" 
d="M146 -18l-26 75c98 20 223 70 223 151c0 50 -32 76 -104 115c-85 46 -144 88 -144 159c0 106 148 205 285 236l21 -77c-61 -10 -209 -58 -209 -142c0 -52 71 -84 113 -109c76 -45 137 -77 137 -158c0 -98 -104 -205 -296 -250zM229 787l137 118l48 -70l-159 -84z" />
    <glyph glyph-name="Scedilla" unicode="&#x15e;" horiz-adv-x="527" 
d="M146 -18l-26 75c98 20 223 70 223 151c0 50 -32 76 -104 115c-85 46 -144 88 -144 159c0 106 148 205 285 236l21 -77c-61 -10 -209 -58 -209 -142c0 -52 71 -84 113 -109c76 -45 137 -77 137 -158c0 -62 -42 -128 -135 -188l-50 -97c35 -10 74 -40 74 -75
c0 -51 -78 -96 -163 -105l-10 43c47 2 95 22 97 59c0 27 -33 54 -65 65l37 73c-25 -10 -52 -18 -81 -25z" />
    <glyph glyph-name="Scedilla" unicode="&#xf6c1;" horiz-adv-x="527" 
d="M146 -18l-26 75c98 20 223 70 223 151c0 50 -32 76 -104 115c-85 46 -144 88 -144 159c0 106 148 205 285 236l21 -77c-61 -10 -209 -58 -209 -142c0 -52 71 -84 113 -109c76 -45 137 -77 137 -158c0 -62 -42 -128 -135 -188l-50 -97c35 -10 74 -40 74 -75
c0 -51 -78 -96 -163 -105l-10 43c47 2 95 22 97 59c0 27 -33 54 -65 65l37 73c-25 -10 -52 -18 -81 -25z" />
    <glyph glyph-name="Scommaaccent" unicode="&#x218;" horiz-adv-x="527" 
d="M146 -18l-26 75c98 20 223 70 223 151c0 50 -32 76 -104 115c-85 46 -144 88 -144 159c0 106 148 205 285 236l21 -77c-61 -10 -209 -58 -209 -142c0 -52 71 -84 113 -109c76 -45 137 -77 137 -158c0 -98 -104 -205 -296 -250zM202 -226l49 173l74 -33l-93 -154z" />
    <glyph glyph-name="Tcaron" unicode="&#x164;" horiz-adv-x="650" 
d="M382 0h-108c5 26 6 318 6 477v149c-115 0 -257 -5 -283 -9v85c40 -8 277 -12 288 -12h87c19 0 237 4 281 12v-85c-14 4 -199 9 -283 9v-165c0 -203 10 -441 12 -461zM330 755l-149 98l40 48l110 -82l100 82l39 -48z" />
    <glyph glyph-name="Tcommaaccent" unicode="&#x162;" horiz-adv-x="650" 
d="M382 0h-108c5 26 6 318 6 477v149c-115 0 -257 -5 -283 -9v85c40 -8 277 -12 288 -12h87c19 0 237 4 281 12v-85c-14 4 -199 9 -283 9v-165c0 -203 10 -441 12 -461zM263 -226l49 173l74 -33l-93 -154z" />
    <glyph glyph-name="Uhungarumlaut" unicode="&#x170;" horiz-adv-x="833" 
d="M201 531v-68c0 -162 7 -236 46 -305c39 -68 101 -97 173 -97c86 0 141 43 174 95c48 75 49 197 49 354v35c0 69 -4 128 -6 165h95c0 -22 1 -88 1 -167v-46c0 -192 -11 -314 -86 -407c-59 -72 -134 -106 -240 -106c-54 0 -163 8 -233 119c-47 75 -64 153 -64 396v54
c0 46 1 119 1 142h95c-2 -26 -5 -73 -5 -164zM417 780l113 140l55 -54l-135 -114zM287 780l89 136l59 -49l-114 -114z" />
    <glyph glyph-name="Umacron" unicode="&#x16a;" horiz-adv-x="833" 
d="M201 531v-68c0 -162 7 -236 46 -305c39 -68 101 -97 173 -97c86 0 141 43 174 95c48 75 49 197 49 354v35c0 69 -4 128 -6 165h95c0 -22 1 -88 1 -167v-46c0 -192 -11 -314 -86 -407c-59 -72 -134 -106 -240 -106c-54 0 -163 8 -233 119c-47 75 -64 153 -64 396v54
c0 46 1 119 1 142h95c-2 -26 -5 -73 -5 -164zM279 770l8 56l268 3l-4 -64z" />
    <glyph glyph-name="Uogonek" unicode="&#x172;" horiz-adv-x="833" 
d="M500 -179l-13 -42c-74 13 -151 53 -151 105c0 38 39 74 87 101c-5 -1 -10 -1 -16 -1c-54 0 -163 8 -233 119c-47 75 -64 153 -64 396v54c0 46 1 119 1 142h95c-2 -26 -5 -73 -5 -164v-68c0 -162 7 -236 46 -305c39 -68 101 -97 173 -97c86 0 141 43 174 95
c48 75 49 197 49 354v35c0 69 -4 128 -6 165h95c0 -22 1 -88 1 -167v-46c0 -192 -11 -314 -86 -407c-40 -49 -88 -80 -148 -94c-56 -34 -88 -75 -88 -100c0 -27 27 -63 89 -75z" />
    <glyph glyph-name="Uring" unicode="&#x16e;" horiz-adv-x="833" 
d="M201 531v-68c0 -162 7 -236 46 -305c39 -68 101 -97 173 -97c86 0 141 43 174 95c48 75 49 197 49 354v35c0 69 -4 128 -6 165h95c0 -22 1 -88 1 -167v-46c0 -192 -11 -314 -86 -407c-59 -72 -134 -106 -240 -106c-54 0 -163 8 -233 119c-47 75 -64 153 -64 396v54
c0 46 1 119 1 142h95c-2 -26 -5 -73 -5 -164zM421 735c-51 0 -97 30 -97 77c2 53 51 88 105 88c67 0 101 -35 101 -75c0 -56 -52 -90 -109 -90zM426 773c25 0 49 15 49 47c0 23 -19 41 -47 41c-22 0 -48 -15 -48 -45c0 -26 21 -43 46 -43z" />
    <glyph glyph-name="Zacute" unicode="&#x179;" horiz-adv-x="688" 
d="M92 643l4 76c65 -6 529 -24 555 -24v-2c-46 -50 -436 -613 -446 -627c54 0 387 3 415 7l-4 -83c-25 0 -519 10 -571 10v2c45 44 429 599 453 632c-39 0 -377 9 -406 9zM300 787l137 118l48 -70l-159 -84z" />
    <glyph glyph-name="Zdotaccent" unicode="&#x17b;" horiz-adv-x="688" 
d="M92 643l4 76c65 -6 529 -24 555 -24v-2c-46 -50 -436 -613 -446 -627c54 0 387 3 415 7l-4 -83c-25 0 -519 10 -571 10v2c45 44 429 599 453 632c-39 0 -377 9 -406 9zM364 765l-71 71l71 70l71 -70z" />
    <glyph glyph-name="Idotaccent" unicode="&#x130;" horiz-adv-x="390" 
d="M240 410v-108c0 -100 3 -279 4 -302h-97c2 44 3 278 3 304v108c0 17 -3 264 -5 288h100c-2 -18 -5 -170 -5 -290zM195 765l-71 71l71 70l71 -70z" />
    <glyph glyph-name="abreve" unicode="&#x103;" horiz-adv-x="710" 
d="M91 -18l-77 44c48 85 308 566 328 599h2c77 -121 293 -504 352 -593l-81 -49c-16 32 -110 200 -119 215l-309 -12c-12 -27 -82 -175 -96 -204zM221 249l244 10c-10 19 -115 211 -124 225c-13 -20 -112 -221 -120 -235zM450 795l34 -41c-32 -36 -93 -71 -144 -71
c-48 0 -116 37 -142 69l37 43c23 -26 60 -52 113 -52c44 0 78 24 102 52z" />
    <glyph glyph-name="amacron" unicode="&#x101;" horiz-adv-x="710" 
d="M91 -18l-77 44c48 85 308 566 328 599h2c77 -121 293 -504 352 -593l-81 -49c-16 32 -110 200 -119 215l-309 -12c-12 -27 -82 -175 -96 -204zM221 249l244 10c-10 19 -115 211 -124 225c-13 -20 -112 -221 -120 -235zM211 691l7 54l255 2l-4 -60z" />
    <glyph glyph-name="aogonek" unicode="&#x105;" horiz-adv-x="710" 
d="M221 249l244 10c-10 19 -115 211 -124 225c-13 -20 -112 -221 -120 -235zM91 -18l-77 44c48 85 308 566 328 599h2c77 -121 293 -504 352 -593l-78 -47c-46 -27 -69 -63 -69 -84c0 -26 26 -60 85 -72l-12 -39c-71 12 -144 50 -144 99c0 39 42 75 122 121
c-23 44 -96 175 -104 188l-309 -12c-12 -27 -82 -175 -96 -204z" />
    <glyph glyph-name="cacute" unicode="&#x107;" horiz-adv-x="587" 
d="M547 68l9 -75c-17 -3 -59 -7 -114 -7c-310 0 -386 170 -386 252c0 144 136 317 447 372l14 -76c-198 -24 -368 -134 -368 -282c0 -100 85 -194 302 -194c37 0 75 5 96 10zM340 709l130 112l45 -66l-151 -80z" />
    <glyph glyph-name="ccaron" unicode="&#x10d;" horiz-adv-x="587" 
d="M547 68l9 -75c-17 -3 -59 -7 -114 -7c-310 0 -386 170 -386 252c0 144 136 317 447 372l14 -76c-198 -24 -368 -134 -368 -282c0 -100 85 -194 302 -194c37 0 75 5 96 10zM402 679l-142 93l38 45l105 -78l95 78l37 -45z" />
    <glyph glyph-name="dcaron" unicode="&#x10f;" horiz-adv-x="722" 
d="M132 269v105c0 18 -1 197 -5 221c52 0 145 1 224 -5c297 -23 323 -164 323 -223c0 -272 -309 -371 -548 -371c4 39 6 250 6 273zM218 528v-458c244 16 364 153 364 277c0 131 -135 185 -364 181zM329 679l-142 93l38 45l105 -78l95 78l37 -45z" />
    <glyph glyph-name="dcroat" unicode="&#x111;" horiz-adv-x="727" 
d="M137 269c-43 -2 -73 -4 -91 -5l-3 60c18 0 48 2 94 4v46c0 18 -1 197 -5 221c52 0 146 2 225 -5c300 -27 322 -164 322 -227c0 -260 -296 -367 -548 -367c4 39 6 225 6 248v25zM223 274v-204c244 20 364 145 364 275c0 136 -135 186 -364 183v-196c51 2 107 6 148 8
l2 -62c-45 -1 -100 -2 -150 -4z" />
    <glyph glyph-name="ecaron" unicode="&#x11b;" horiz-adv-x="528" 
d="M448 67l3 -76c-30 0 -304 9 -322 9c3 45 3 227 3 247v113c0 14 -2 219 -3 235c22 0 259 13 304 16l4 -72c-39 0 -203 -4 -218 -4v-208c17 0 133 4 188 9l3 -73c-15 0 -58 1 -100 2c-41 0 -81 1 -91 1v-202c22 0 144 -2 229 3zM292 679l-142 93l38 45l105 -78l95 78
l37 -45z" />
    <glyph glyph-name="edotaccent" unicode="&#x117;" horiz-adv-x="528" 
d="M448 67l3 -76c-30 0 -304 9 -322 9c3 45 3 227 3 247v113c0 14 -2 219 -3 235c22 0 259 13 304 16l4 -72c-39 0 -203 -4 -218 -4v-208c17 0 133 4 188 9l3 -73c-15 0 -58 1 -100 2c-41 0 -81 1 -91 1v-202c22 0 144 -2 229 3zM293 689l-67 67l67 67l67 -67z" />
    <glyph glyph-name="emacron" unicode="&#x113;" horiz-adv-x="528" 
d="M448 67l3 -76c-30 0 -304 9 -322 9c3 45 3 227 3 247v113c0 14 -2 219 -3 235c22 0 259 13 304 16l4 -72c-39 0 -203 -4 -218 -4v-208c17 0 133 4 188 9l3 -73c-15 0 -58 1 -100 2c-41 0 -81 1 -91 1v-202c22 0 144 -2 229 3zM150 691l7 54l255 2l-4 -60z" />
    <glyph glyph-name="eogonek" unicode="&#x119;" horiz-adv-x="528" 
d="M448 67l3 -76c-2 0 -5 0 -23 1c-50 -31 -79 -68 -79 -91c0 -26 26 -60 85 -72l-12 -39c-71 12 -144 50 -144 99c0 40 44 77 97 104c-69 2 -232 7 -246 7c3 45 3 227 3 247v113c0 14 -2 219 -3 235c22 0 259 13 304 16l4 -72c-39 0 -203 -4 -218 -4v-208c17 0 133 4 188 9
l3 -73c-15 0 -58 1 -100 2c-41 0 -81 1 -91 1v-202c22 0 144 -2 229 3z" />
    <glyph glyph-name="gbreve" unicode="&#x11f;" horiz-adv-x="658" 
d="M582 195v-62c0 -33 2 -109 2 -120c-41 -15 -125 -27 -201 -27c-206 0 -328 108 -328 249c0 100 106 289 440 376l18 -78c-197 -37 -365 -164 -365 -299c0 -89 74 -183 254 -183c38 0 76 5 94 12v138c0 25 -2 54 -3 59h89v-65zM514 795l34 -41c-32 -36 -93 -71 -144 -71
c-48 0 -116 37 -142 69l37 43c23 -26 60 -52 113 -52c44 0 78 24 102 52z" />
    <glyph glyph-name="gcommaaccent" unicode="&#x123;" horiz-adv-x="658" 
d="M582 195v-62c0 -33 2 -109 2 -120c-41 -15 -125 -27 -201 -27c-206 0 -328 108 -328 249c0 100 106 289 440 376l18 -78c-197 -37 -365 -164 -365 -299c0 -89 74 -183 254 -183c38 0 76 5 94 12v138c0 25 -2 54 -3 59h89v-65zM270 -206l47 163l71 -32l-89 -145z" />
    <glyph glyph-name="imacron" unicode="&#x12b;" horiz-adv-x="352" 
d="M219 349v-92c0 -85 3 -237 4 -257h-94c2 37 3 236 3 258v92c0 15 -3 225 -5 245h97c-2 -15 -5 -144 -5 -246zM42 691l7 54l255 2l-4 -60z" />
    <glyph glyph-name="iogonek" unicode="&#x12f;" horiz-adv-x="352" 
d="M202 -171l-12 -39c-71 12 -144 50 -144 99c0 38 41 74 110 111h-27c2 37 3 236 3 258v92c0 15 -3 225 -5 245h97c-2 -15 -5 -144 -5 -246v-92c0 -85 3 -237 4 -257h-17c-59 -39 -89 -76 -89 -99c0 -26 26 -60 85 -72z" />
    <glyph glyph-name="kcommaaccent" unicode="&#x137;" horiz-adv-x="658" 
d="M223 -9h-96c2 25 5 169 5 266v90c0 74 -5 237 -5 257h96c-1 -14 -5 -175 -5 -249v-91c0 -66 3 -256 5 -273zM607 60l-62 -68c-11 12 -281 279 -320 321c15 14 275 257 296 279l53 -65c-36 -28 -196 -163 -245 -208c28 -33 242 -227 278 -259zM270 -186l47 163l71 -32
l-89 -145z" />
    <glyph glyph-name="lacute" unicode="&#x13a;" horiz-adv-x="492" 
d="M128 595h99c-4 -19 -8 -186 -8 -293v-235c22 0 130 0 227 4v-80c-29 0 -299 9 -322 9c8 45 8 227 8 247v113c0 14 -2 219 -4 235zM112 709l130 112l45 -66l-151 -80z" />
    <glyph glyph-name="lcaron" unicode="&#x13e;" horiz-adv-x="492" 
d="M128 595h99c-4 -19 -8 -186 -8 -293v-235c22 0 130 0 227 4v-80c-29 0 -299 9 -322 9c8 45 8 227 8 247v113c0 14 -2 219 -4 235zM327 432l47 163l71 -32l-89 -145z" />
    <glyph glyph-name="lcommaaccent" unicode="&#x13c;" horiz-adv-x="492" 
d="M128 595h99c-4 -19 -8 -186 -8 -293v-235c22 0 130 0 227 4v-80c-29 0 -299 9 -322 9c8 45 8 227 8 247v113c0 14 -2 219 -4 235zM207 -206l47 163l71 -32l-89 -145z" />
    <glyph glyph-name="nacute" unicode="&#x144;" horiz-adv-x="803" 
d="M193 -6l-92 6c5 64 30 541 34 629h5c26 -28 443 -448 471 -475c0 24 2 417 3 445l89 -4c-4 -51 -21 -399 -25 -613h-4c-26 23 -464 460 -475 472h-2c2 -16 -5 -432 -4 -460zM338 689l130 112l45 -66l-151 -80z" />
    <glyph glyph-name="ncaron" unicode="&#x148;" horiz-adv-x="803" 
d="M193 -6l-92 6c5 64 30 541 34 629h5c26 -28 443 -448 471 -475c0 24 2 417 3 445l89 -4c-4 -51 -21 -399 -25 -613h-4c-26 23 -464 460 -475 472h-2c2 -16 -5 -432 -4 -460zM410 659l-142 93l38 45l105 -78l95 78l37 -45z" />
    <glyph glyph-name="ncommaaccent" unicode="&#x146;" horiz-adv-x="803" 
d="M193 -6l-92 6c5 64 30 541 34 629h5c26 -28 443 -448 471 -475c0 24 2 417 3 445l89 -4c-4 -51 -21 -399 -25 -613h-4c-26 23 -464 460 -475 472h-2c2 -16 -5 -432 -4 -460zM343 -186l47 163l71 -32l-89 -145z" />
    <glyph glyph-name="ohungarumlaut" unicode="&#x151;" horiz-adv-x="774" 
d="M363 -14c-199 0 -308 131 -308 281c0 189 139 342 359 342c176 0 305 -107 305 -290c0 -133 -94 -333 -356 -333zM371 52c137 0 255 95 255 263c0 152 -106 228 -225 228c-159 0 -254 -118 -254 -263c0 -127 85 -228 224 -228zM419 703l107 133l53 -51l-129 -109z
M295 703l85 129l56 -47l-108 -108z" />
    <glyph glyph-name="omacron" unicode="&#x14d;" horiz-adv-x="774" 
d="M363 -14c-199 0 -308 131 -308 281c0 189 139 342 359 342c176 0 305 -107 305 -290c0 -133 -94 -333 -356 -333zM371 52c137 0 255 95 255 263c0 152 -106 228 -225 228c-159 0 -254 -118 -254 -263c0 -127 85 -228 224 -228zM263 691l7 54l255 2l-4 -60z" />
    <glyph glyph-name="racute" unicode="&#x155;" horiz-adv-x="616" 
d="M219 530v-270c0 -32 3 -247 5 -260h-94c3 20 2 290 2 308v69c0 26 -2 202 -5 218c43 0 122 2 198 -7c120 -14 190 -63 190 -137c0 -70 -54 -130 -129 -174c23 -31 184 -207 210 -232l-69 -61c-10 12 -216 264 -243 300c45 23 136 69 136 154c0 40 -31 91 -201 92z
M254 709l130 112l45 -66l-151 -80z" />
    <glyph glyph-name="rcaron" unicode="&#x159;" horiz-adv-x="616" 
d="M219 530v-270c0 -32 3 -247 5 -260h-94c3 20 2 290 2 308v69c0 26 -2 202 -5 218c43 0 122 2 198 -7c120 -14 190 -63 190 -137c0 -70 -54 -130 -129 -174c23 -31 184 -207 210 -232l-69 -61c-10 12 -216 264 -243 300c45 23 136 69 136 154c0 40 -31 91 -201 92z
M316 679l-142 93l38 45l105 -78l95 78l37 -45z" />
    <glyph glyph-name="rcommaaccent" unicode="&#x157;" horiz-adv-x="616" 
d="M219 530v-270c0 -32 3 -247 5 -260h-94c3 20 2 290 2 308v69c0 26 -2 202 -5 218c43 0 122 2 198 -7c120 -14 190 -63 190 -137c0 -70 -54 -130 -129 -174c23 -31 184 -207 210 -232l-69 -61c-10 12 -216 264 -243 300c45 23 136 69 136 154c0 40 -31 91 -201 92z
M249 -206l47 163l71 -32l-89 -145z" />
    <glyph glyph-name="sacute" unicode="&#x15b;" horiz-adv-x="480" 
d="M128 -16l-23 70c92 18 209 55 209 123c0 44 -31 65 -97 97c-78 38 -135 74 -135 136c0 95 139 178 268 201l19 -70c-59 -9 -195 -43 -195 -117c0 -46 65 -69 104 -91c69 -38 129 -65 129 -136c0 -88 -101 -177 -279 -213zM206 709l130 112l45 -66l-151 -80z" />
    <glyph glyph-name="scedilla" unicode="&#x15f;" horiz-adv-x="480" 
d="M128 -16l-23 70c92 18 209 55 209 123c0 44 -31 65 -97 97c-78 38 -135 74 -135 136c0 95 139 178 268 201l19 -70c-59 -9 -195 -43 -195 -117c0 -46 65 -69 104 -91c69 -38 129 -65 129 -136c0 -60 -47 -120 -133 -163l-63 -94c34 -10 71 -38 71 -71
c0 -49 -74 -92 -155 -100l-10 41c45 2 93 21 93 56c0 25 -32 51 -62 62l47 73c-22 -7 -44 -12 -67 -17z" />
    <glyph glyph-name="scedilla" unicode="&#xf6c2;" horiz-adv-x="480" 
d="M128 -16l-23 70c92 18 209 55 209 123c0 44 -31 65 -97 97c-78 38 -135 74 -135 136c0 95 139 178 268 201l19 -70c-59 -9 -195 -43 -195 -117c0 -46 65 -69 104 -91c69 -38 129 -65 129 -136c0 -60 -47 -120 -133 -163l-63 -94c34 -10 71 -38 71 -71
c0 -49 -74 -92 -155 -100l-10 41c45 2 93 21 93 56c0 25 -32 51 -62 62l47 73c-22 -7 -44 -12 -67 -17z" />
    <glyph glyph-name="scommaaccent" unicode="&#x219;" horiz-adv-x="480" 
d="M128 -16l-23 70c92 18 209 55 209 123c0 44 -31 65 -97 97c-78 38 -135 74 -135 136c0 95 139 178 268 201l19 -70c-59 -9 -195 -43 -195 -117c0 -46 65 -69 104 -91c69 -38 129 -65 129 -136c0 -88 -101 -177 -279 -213zM181 -206l47 163l71 -32l-89 -145z" />
    <glyph glyph-name="tcaron" unicode="&#x165;" horiz-adv-x="565" 
d="M338 0h-104c5 22 6 270 6 405v119c-103 0 -232 -4 -245 -8v81c26 -7 241 -10 251 -10h80c17 0 215 3 244 10v-81c-2 4 -170 8 -243 8v-132c0 -173 9 -375 11 -392zM291 679l-142 93l38 45l105 -78l95 78l37 -45z" />
    <glyph glyph-name="tcommaaccent" unicode="&#x163;" horiz-adv-x="565" 
d="M338 0h-104c5 22 6 270 6 405v119c-103 0 -232 -4 -245 -8v81c26 -7 241 -10 251 -10h80c17 0 215 3 244 10v-81c-2 4 -170 8 -243 8v-132c0 -173 9 -375 11 -392zM224 -206l47 163l71 -32l-89 -145z" />
    <glyph glyph-name="uhungarumlaut" unicode="&#x171;" horiz-adv-x="740" 
d="M180 451v-57c0 -138 8 -201 42 -257c35 -57 86 -82 151 -82c78 0 123 36 153 81c42 62 43 164 43 298v29c0 59 -4 109 -5 141h91c0 -19 1 -75 1 -142v-40c0 -163 -12 -266 -80 -345c-54 -62 -118 -91 -215 -91c-49 0 -144 7 -208 102c-42 63 -60 130 -60 336v46
c0 39 1 101 1 121h90c-1 -22 -4 -62 -4 -140zM362 703l107 133l53 -51l-129 -109zM238 703l85 129l56 -47l-108 -108z" />
    <glyph glyph-name="umacron" unicode="&#x16b;" horiz-adv-x="740" 
d="M180 451v-57c0 -138 8 -201 42 -257c35 -57 86 -82 151 -82c78 0 123 36 153 81c42 62 43 164 43 298v29c0 59 -4 109 -5 141h91c0 -19 1 -75 1 -142v-40c0 -163 -12 -266 -80 -345c-54 -62 -118 -91 -215 -91c-49 0 -144 7 -208 102c-42 63 -60 130 -60 336v46
c0 39 1 101 1 121h90c-1 -22 -4 -62 -4 -140zM246 691l7 54l255 2l-4 -60z" />
    <glyph glyph-name="uogonek" unicode="&#x173;" horiz-adv-x="740" 
d="M444 -171l-12 -39c-71 12 -144 50 -144 99c0 37 39 72 85 98c-4 -1 -8 -1 -12 -1c-49 0 -144 7 -208 102c-42 63 -60 130 -60 336v46c0 39 1 101 1 121h90c-1 -22 -4 -62 -4 -140v-57c0 -138 8 -201 42 -257c35 -57 86 -82 151 -82c78 0 123 36 153 81
c42 62 43 164 43 298v29c0 59 -4 109 -5 141h91c0 -19 1 -75 1 -142v-40c0 -163 -12 -266 -80 -345c-37 -42 -79 -69 -133 -82c-53 -32 -84 -71 -84 -94c0 -26 26 -60 85 -72z" />
    <glyph glyph-name="uring" unicode="&#x16f;" horiz-adv-x="740" 
d="M180 451v-57c0 -138 8 -201 42 -257c35 -57 86 -82 151 -82c78 0 123 36 153 81c42 62 43 164 43 298v29c0 59 -4 109 -5 141h91c0 -19 1 -75 1 -142v-40c0 -163 -12 -266 -80 -345c-54 -62 -118 -91 -215 -91c-49 0 -144 7 -208 102c-42 63 -60 130 -60 336v46
c0 39 1 101 1 121h90c-1 -22 -4 -62 -4 -140zM365 659c-48 0 -92 29 -92 73c2 51 49 84 100 84c64 0 96 -33 96 -71c0 -54 -50 -86 -104 -86zM370 695c24 0 47 14 47 45c0 22 -18 39 -45 39c-21 0 -46 -14 -46 -43c0 -25 20 -41 44 -41z" />
    <glyph glyph-name="zacute" unicode="&#x17a;" horiz-adv-x="601" 
d="M77 538l4 73c51 -5 473 -20 487 -20v-2c-33 -43 -385 -518 -393 -529c49 0 349 3 370 6l-3 -75c-19 0 -469 9 -512 9v2c38 40 380 505 400 532c-35 0 -336 4 -353 4zM227 709l130 112l45 -66l-151 -80z" />
    <glyph glyph-name="zdotaccent" unicode="&#x17c;" horiz-adv-x="601" 
d="M77 538l4 73c51 -5 473 -20 487 -20v-2c-33 -43 -385 -518 -393 -529c49 0 349 3 370 6l-3 -75c-19 0 -469 9 -512 9v2c38 40 380 505 400 532c-35 0 -336 4 -353 4zM310 689l-67 67l67 67l67 -67z" />
    <glyph glyph-name="tonos" unicode="&#x384;" 
d="M404 536l-20 176l82 4l-18 -181z" />
    <glyph glyph-name="Alpha" unicode="&#x391;" horiz-adv-x="800" 
d="M102 -19l-82 52c55 96 343 664 367 702h2c88 -142 325 -593 393 -697l-85 -56c-20 38 -126 243 -137 259l-347 -14c-12 -19 -94 -212 -111 -246zM247 293l283 12c-11 22 -134 255 -144 271c-15 -22 -130 -267 -139 -283z" />
    <glyph glyph-name="Beta" unicode="&#x392;" horiz-adv-x="640" 
d="M150 370v111c0 30 -2 198 -5 219c53 0 99 -1 138 -6c202 -17 230 -95 230 -151c0 -38 -20 -107 -126 -156v-2c69 -11 157 -66 157 -156c0 -119 -151 -234 -391 -235h-8c5 55 5 357 5 376zM236 336v-270c109 11 208 63 208 157c0 70 -82 119 -208 113zM236 636v-243
c110 3 183 70 183 137c0 90 -114 104 -183 106z" />
    <glyph glyph-name="Gamma" unicode="&#x393;" horiz-adv-x="488" 
d="M247 0h-100c3 53 3 267 3 290v134c0 16 -2 257 -3 276c24 0 285 15 317 19l4 -79c-32 0 -212 -5 -228 -5v-254c0 -114 1 -322 7 -381z" />
    <glyph glyph-name="Delta" unicode="&#x2206;" horiz-adv-x="793" 
d="M799 -1l-1 -3c-84 4 -239 4 -407 4c-130 -1 -268 0 -388 -2l-1 3c51 87 316 594 392 723h2c78 -131 334 -620 403 -725zM652 79c-11 18 -219 413 -259 488c-42 -77 -247 -473 -256 -489c29 -1 142 -3 255 -3c114 -1 229 1 260 4z" />
    <glyph glyph-name="Epsilon" unicode="&#x395;" horiz-adv-x="574" 
d="M480 76l4 -86c-16 0 -317 10 -337 10c3 53 3 267 3 290v134c0 16 -2 257 -3 276c24 0 285 15 317 19l4 -79c-32 0 -212 -5 -228 -5v-254c18 0 146 5 195 11l3 -79c-22 0 -178 4 -198 4v-244c24 0 158 -3 240 3z" />
    <glyph glyph-name="Zeta" unicode="&#x396;" horiz-adv-x="688" 
d="M92 643l4 76c65 -6 529 -24 555 -24v-2c-46 -50 -436 -613 -446 -627c54 0 387 3 415 7l-4 -83c-25 0 -519 10 -571 10v2c45 44 429 599 453 632c-39 0 -377 9 -406 9z" />
    <glyph glyph-name="Eta" unicode="&#x397;" horiz-adv-x="926" 
d="M244 0h-97c2 44 3 278 3 304v108c0 17 -3 264 -5 288h100c-2 -18 -5 -222 -5 -240v-78l446 19v80c0 17 -2 197 -4 219h102c-3 -24 -8 -294 -8 -318v-100c0 -13 2 -263 4 -282h-100c3 34 6 212 6 231v104l-446 -19v-64c0 -45 3 -229 4 -252z" />
    <glyph glyph-name="Theta" unicode="&#x398;" horiz-adv-x="849" 
d="M402 -16c-218 0 -342 154 -342 330c0 222 157 402 398 402c189 0 332 -125 332 -341c0 -156 -104 -391 -388 -391zM411 58c150 0 282 115 282 312c0 179 -118 272 -249 272c-179 0 -288 -142 -288 -313c0 -149 98 -271 255 -271zM262 299l-3 74c76 -1 276 11 330 17
l6 -74c-96 -3 -263 -11 -333 -17z" />
    <glyph glyph-name="Iota" unicode="&#x399;" horiz-adv-x="390" 
d="M240 410v-108c0 -100 3 -279 4 -302h-97c2 44 3 278 3 304v108c0 17 -3 264 -5 288h100c-2 -18 -5 -170 -5 -290z" />
    <glyph glyph-name="Kappa" unicode="&#x39a;" horiz-adv-x="722" 
d="M245 -10h-100c2 29 5 198 5 312v106c0 87 -5 279 -5 302h100c-1 -16 -5 -205 -5 -292v-108c0 -77 3 -301 5 -320zM667 66l-66 -70c-10 14 -311 324 -354 372c17 16 303 298 326 324l58 -66c-38 -36 -219 -198 -272 -251c31 -38 270 -272 308 -309z" />
    <glyph glyph-name="Lambda" unicode="&#x39b;" horiz-adv-x="800" 
d="M101 -18l-83 47c55 96 346 668 372 706h2c85 -142 323 -595 391 -699l-85 -53c-11 23 -299 569 -309 585c-14 -26 -268 -544 -288 -586z" />
    <glyph glyph-name="Mu" unicode="&#x39c;" horiz-adv-x="1093" 
d="M124 -26l-82 31c19 42 233 687 238 711h2c31 -63 219 -433 249 -483c35 56 243 421 262 452h2c35 -82 214 -569 257 -674l-86 -37c-25 75 -178 494 -194 531c-36 -56 -213 -369 -254 -434h-2c-58 108 -182 351 -222 442c-20 -62 -158 -500 -170 -539z" />
    <glyph glyph-name="Nu" unicode="&#x39d;" horiz-adv-x="915" 
d="M211 -7l-94 7c5 75 32 637 37 740h2c28 -32 512 -535 544 -567c0 28 6 499 7 532l93 -5c-4 -60 -23 -469 -27 -721h-2c-27 27 -533 546 -551 571h-2c0 -35 -8 -524 -7 -557z" />
    <glyph glyph-name="Xi" unicode="&#x39e;" horiz-adv-x="728" 
d="M115 609l-3 83c114 -1 358 6 507 12l4 -85c-132 0 -376 -5 -508 -10zM89 4l1 84c158 -7 359 -11 547 -2l3 -86c-133 -1 -423 3 -551 4zM143 306l-3 82c109 -3 353 7 440 10l4 -85c-70 3 -314 -4 -441 -7z" />
    <glyph glyph-name="Omicron" unicode="&#x39f;" 
d="M420 -16c-218 0 -342 154 -342 330c0 222 157 402 398 402c189 0 332 -125 332 -341c0 -156 -104 -391 -388 -391zM429 58c150 0 282 115 282 312c0 179 -118 272 -249 272c-179 0 -288 -142 -288 -313c0 -149 98 -271 255 -271z" />
    <glyph glyph-name="Pi" unicode="&#x3a0;" horiz-adv-x="871" 
d="M423 692c42 1 281 5 393 12v-84c-18 1 -54 3 -93 5c-3 -21 -2 -219 -2 -243v-100c0 -13 3 -263 6 -282h-98c2 34 3 262 3 281v174c0 43 -1 151 -3 171c-60 -1 -308 -4 -375 -6c-2 -16 -5 -142 -5 -192v-161c0 -60 3 -244 4 -267h-96c2 44 3 278 3 304v108
c0 17 -1 161 -2 204c-37 -2 -72 -5 -93 -6v81c91 0 311 0 358 1z" />
    <glyph glyph-name="Rho" unicode="&#x3a1;" horiz-adv-x="614" 
d="M240 0h-94c2 43 5 284 5 355v110c0 23 -3 220 -3 235c42 0 126 -3 188 -13c134 -22 218 -86 218 -192c0 -137 -126 -248 -316 -286v-59c0 -20 0 -129 2 -150zM238 626v-347c126 27 219 91 219 201c0 30 -17 143 -219 146z" />
    <glyph glyph-name="Sigma" unicode="&#x3a3;" horiz-adv-x="642" 
d="M506 365v-5c-77 -63 -212 -170 -305 -238v-5c114 -21 341 -56 401 -64l-14 -80c-137 26 -428 79 -556 106v7c109 85 278 213 345 269v5c-56 44 -226 169 -329 248v7c129 33 371 87 513 121l16 -79c-116 -23 -248 -51 -364 -73v-4c103 -76 206 -151 293 -215z" />
    <glyph glyph-name="Tau" unicode="&#x3a4;" horiz-adv-x="650" 
d="M382 0h-108c5 26 6 318 6 477v149c-115 0 -257 -5 -283 -9v85c40 -8 277 -12 288 -12h87c19 0 237 4 281 12v-85c-14 4 -199 9 -283 9v-165c0 -203 10 -441 12 -461z" />
    <glyph glyph-name="Upsilon" unicode="&#x3a5;" horiz-adv-x="684" 
d="M394 0h-100c1 23 5 129 5 142v75c0 130 -61 235 -129 310c-40 45 -93 88 -147 111l41 78c64 -33 130 -88 156 -117c47 -54 108 -132 130 -215h2c29 83 67 141 121 202c44 49 130 110 192 130l30 -78c-64 -19 -135 -65 -191 -130c-68 -78 -115 -185 -115 -291v-94
c0 -14 3 -103 5 -123z" />
    <glyph glyph-name="Phi" unicode="&#x3a6;" horiz-adv-x="847" 
d="M467 24c0 -17 1 -54 2 -86h-92c1 34 3 59 3 84c-169 12 -322 128 -322 312c0 215 161 337 323 355c-1 14 -2 44 -3 75h92c-1 -33 -3 -60 -3 -72c155 -8 322 -124 322 -319c0 -190 -125 -326 -322 -349zM380 93c2 70 1 197 1 210v108c0 20 1 135 0 208
c-121 -23 -229 -115 -229 -280c0 -156 113 -230 228 -246zM467 94c111 19 228 88 228 273c0 174 -121 242 -229 253c-1 -52 0 -163 0 -211v-108c0 -38 0 -156 1 -207z" />
    <glyph glyph-name="Chi" unicode="&#x3a7;" horiz-adv-x="757" 
d="M120 -18l-65 66c24 23 239 274 270 311c-40 46 -196 230 -236 276l73 67c26 -36 150 -194 223 -282c34 38 212 248 240 284l68 -68c-35 -33 -235 -242 -258 -275c30 -33 234 -264 270 -309l-72 -68c-23 32 -233 289 -258 317c-12 -15 -242 -301 -255 -319z" />
    <glyph glyph-name="Psi" unicode="&#x3a8;" horiz-adv-x="811" 
d="M688 685l90 -18c-16 -60 -25 -128 -43 -215c-35 -168 -131 -263 -282 -275c1 -79 2 -163 3 -177h-94c1 32 2 91 3 176c-153 8 -251 110 -280 264c-16 86 -32 167 -49 234l92 18c5 -51 26 -174 42 -247c30 -138 112 -195 196 -199v168c0 17 -2 262 -3 308h92
c-2 -40 -3 -190 -3 -310v-166c85 7 167 52 201 218c15 75 29 177 35 221z" />
    <glyph glyph-name="Omega" unicode="&#x2126;" horiz-adv-x="883" 
d="M849 75l4 -83c-33 2 -337 7 -357 8l-2 17c85 52 202 196 202 358c0 173 -111 267 -239 267c-172 0 -265 -140 -265 -297c0 -142 84 -266 157 -330l-3 -15c-20 -1 -290 -4 -335 -3l4 81c54 -4 150 -6 188 -5l2 8c-43 40 -110 146 -110 263c0 192 140 372 371 372
c184 0 326 -131 326 -330c0 -140 -69 -253 -143 -313l2 -6c47 1 137 2 198 8z" />
    <glyph glyph-name="Alphatonos" unicode="&#x386;" horiz-adv-x="800" 
d="M102 -19l-82 52c55 96 343 664 367 702h2c88 -142 325 -593 393 -697l-85 -56c-20 38 -126 243 -137 259l-347 -14c-12 -19 -94 -212 -111 -246zM247 293l283 12c-11 22 -134 255 -144 271c-15 -22 -130 -267 -139 -283zM108 536l-20 176l82 4l-18 -181z" />
    <glyph glyph-name="Epsilontonos" unicode="&#x388;" horiz-adv-x="574" 
d="M480 76l4 -86c-16 0 -317 10 -337 10c3 53 3 267 3 290v134c0 16 -2 257 -3 276c24 0 285 15 317 19l4 -79c-32 0 -212 -5 -228 -5v-254c18 0 146 5 195 11l3 -79c-22 0 -178 4 -198 4v-244c24 0 158 -3 240 3zM-1 536l-20 176l82 4l-18 -181z" />
    <glyph glyph-name="Etatonos" unicode="&#x389;" horiz-adv-x="926" 
d="M244 0h-97c2 44 3 278 3 304v108c0 17 -3 264 -5 288h100c-2 -18 -5 -222 -5 -240v-78l446 19v80c0 17 -2 197 -4 219h102c-3 -24 -8 -294 -8 -318v-100c0 -13 2 -263 4 -282h-100c3 34 6 212 6 231v104l-446 -19v-64c0 -45 3 -229 4 -252zM-1 536l-20 176l82 4l-18 -181
z" />
    <glyph glyph-name="Iotatonos" unicode="&#x38a;" horiz-adv-x="390" 
d="M240 410v-108c0 -100 3 -279 4 -302h-97c2 44 3 278 3 304v108c0 17 -3 264 -5 288h100c-2 -18 -5 -170 -5 -290zM-1 536l-20 176l82 4l-18 -181z" />
    <glyph glyph-name="Iotadieresis" unicode="&#x3aa;" horiz-adv-x="390" 
d="M240 410v-108c0 -100 3 -279 4 -302h-97c2 44 3 278 3 304v108c0 17 -3 264 -5 288h100c-2 -18 -5 -170 -5 -290zM85 765l-64 64l64 63l64 -63zM305 765l-64 64l64 63l64 -63z" />
    <glyph glyph-name="Omicrontonos" unicode="&#x38c;" horiz-adv-x="869" 
d="M420 -16c-218 0 -342 154 -342 330c0 222 157 402 398 402c189 0 332 -125 332 -341c0 -156 -104 -391 -388 -391zM429 58c150 0 282 115 282 312c0 179 -118 272 -249 272c-179 0 -288 -142 -288 -313c0 -149 98 -271 255 -271zM0 536l-20 176l82 4l-18 -181z" />
    <glyph glyph-name="Upsilontonos" unicode="&#x38e;" horiz-adv-x="773" 
d="M486 0h-100c1 23 5 129 5 142v75c0 130 -61 235 -129 310c-40 45 -93 88 -147 111l41 78c64 -33 130 -88 156 -117c47 -54 108 -132 130 -215h2c29 83 67 141 121 202c44 49 130 110 192 130l30 -78c-64 -19 -135 -65 -191 -130c-68 -78 -115 -185 -115 -291v-94
c0 -14 3 -103 5 -123zM0 536l-20 176l82 4l-18 -181z" />
    <glyph glyph-name="Upsilondieresis" unicode="&#x3ab;" horiz-adv-x="684" 
d="M394 0h-100c1 23 5 129 5 142v75c0 130 -61 235 -129 310c-40 45 -93 88 -147 111l41 78c64 -33 130 -88 156 -117c47 -54 108 -132 130 -215h2c29 83 67 141 121 202c44 49 130 110 192 130l30 -78c-64 -19 -135 -65 -191 -130c-68 -78 -115 -185 -115 -291v-94
c0 -14 3 -103 5 -123zM247 765l-64 64l64 63l64 -63zM467 765l-64 64l64 63l64 -63z" />
    <glyph glyph-name="Omegatonos" unicode="&#x38f;" horiz-adv-x="908" 
d="M19 536l-20 176l82 4l-18 -181zM668 67c42 1 132 2 203 8l4 -83c-5 0 -347 7 -367 8l-2 15c87 49 201 198 201 360c0 173 -111 267 -239 267c-176 0 -265 -136 -265 -301c0 -142 85 -262 158 -326l-3 -15c-20 -1 -347 -3 -338 -3l4 83c57 -6 153 -8 193 -7l2 8
c-46 40 -112 142 -112 259c0 202 135 376 371 376c184 0 326 -131 326 -330c0 -136 -66 -253 -138 -313z" />
    <glyph glyph-name="alpha" unicode="&#x3b1;" horiz-adv-x="710" 
d="M91 -18l-77 44c48 85 308 566 328 599h2c77 -121 293 -504 352 -593l-81 -49c-16 32 -110 200 -119 215l-309 -12c-12 -27 -82 -175 -96 -204zM221 249l244 10c-10 19 -115 211 -124 225c-13 -20 -112 -221 -120 -235z" />
    <glyph glyph-name="beta" unicode="&#x3b2;" horiz-adv-x="580" 
d="M132 315v94c0 25 -2 168 -5 186c48 0 108 0 144 -3c183 -14 212 -83 212 -130c0 -33 -23 -97 -121 -135v-2c67 -9 149 -54 149 -130c0 -114 -136 -200 -366 -200h-18c5 47 5 303 5 320zM216 283v-223c101 7 202 44 202 130c0 66 -89 98 -202 93zM216 536v-199
c99 1 179 57 179 114c0 76 -115 86 -179 85z" />
    <glyph glyph-name="gamma" unicode="&#x3b3;" horiz-adv-x="492" 
d="M227 0h-99c2 16 4 221 4 235v113c0 20 0 202 -8 247c23 0 293 9 322 9v-80c-97 4 -205 4 -227 4v-235c0 -107 4 -274 8 -293z" />
    <glyph glyph-name="delta" unicode="&#x3b4;" horiz-adv-x="682" 
d="M688 -1l-1 -3c-72 4 -206 4 -350 4c-112 -1 -231 0 -334 -2l-1 3c44 74 272 510 337 621h2c67 -112 287 -533 347 -623zM340 465l-204 -386c23 -1 104 -3 202 -3s189 1 209 4c-71 128 -140 257 -207 385z" />
    <glyph glyph-name="epsilon" unicode="&#x3b5;" horiz-adv-x="528" 
d="M448 67l3 -76c-30 0 -304 9 -322 9c3 45 3 227 3 247v113c0 14 -2 219 -3 235c22 0 259 13 304 16l4 -72c-39 0 -203 -4 -218 -4v-208c17 0 133 4 188 9l3 -73c-15 0 -58 1 -100 2c-41 0 -81 1 -91 1v-202c22 0 144 -2 229 3z" />
    <glyph glyph-name="zeta" unicode="&#x3b6;" horiz-adv-x="601" 
d="M77 538l4 73c51 -5 473 -20 487 -20v-2c-33 -43 -385 -518 -393 -529c49 0 349 3 370 6l-3 -75c-19 0 -469 9 -512 9v2c38 40 380 505 400 532c-35 0 -336 4 -353 4z" />
    <glyph glyph-name="eta" unicode="&#x3b7;" horiz-adv-x="823" 
d="M223 0h-94c2 37 3 236 3 258v92c0 15 -3 225 -5 245h97c-2 -15 -5 -189 -5 -204v-62l385 16v64c0 14 -2 167 -3 186h97c-2 -20 -7 -250 -7 -270v-85c0 -11 2 -224 4 -240h-96c3 29 5 180 5 196v86l-385 -16v-52c0 -38 3 -194 4 -214z" />
    <glyph glyph-name="theta" unicode="&#x3b8;" horiz-adv-x="782" 
d="M370 -14c-201 0 -315 131 -315 281c0 188 145 342 366 342c175 0 306 -106 306 -290c0 -133 -95 -333 -357 -333zM379 52c137 0 256 94 256 262c0 152 -106 229 -226 229c-165 0 -262 -118 -262 -263c0 -128 87 -228 232 -228zM241 262l-2 71c69 -1 253 9 303 14l6 -70
c-89 -3 -242 -10 -307 -15z" />
    <glyph glyph-name="iota" unicode="&#x3b9;" horiz-adv-x="352" 
d="M219 349v-92c0 -85 3 -237 4 -257h-94c2 37 3 236 3 258v92c0 15 -3 225 -5 245h97c-2 -15 -5 -144 -5 -246z" />
    <glyph glyph-name="kappa" unicode="&#x3ba;" horiz-adv-x="658" 
d="M223 -9h-96c2 25 5 169 5 266v90c0 74 -5 237 -5 257h96c-1 -14 -5 -175 -5 -249v-91c0 -66 3 -256 5 -273zM607 60l-62 -68c-11 12 -281 279 -320 321c15 14 275 257 296 279l53 -65c-36 -28 -196 -163 -245 -208c28 -33 242 -227 278 -259z" />
    <glyph glyph-name="lambda" unicode="&#x3bb;" horiz-adv-x="710" 
d="M91 -18l-77 44c48 85 275 510 328 599h2c77 -121 293 -504 352 -593l-81 -49c-91 161 -191 358 -271 492c-75 -140 -153 -287 -253 -493z" />
    <glyph glyph-name="nu" unicode="&#x3bd;" horiz-adv-x="803" 
d="M193 -6l-92 6c5 64 30 541 34 629h5c26 -28 443 -448 471 -475c0 24 2 417 3 445l89 -4c-4 -51 -21 -399 -25 -613h-4c-26 23 -464 460 -475 472h-2c2 -16 -5 -432 -4 -460z" />
    <glyph glyph-name="xi" unicode="&#x3be;" horiz-adv-x="679" 
d="M114 515l-3 74c106 -1 333 5 471 10l5 -76c-124 0 -350 -4 -473 -8zM89 3l2 75c147 -6 334 -9 508 -1l3 -77c-123 -1 -393 3 -513 3zM140 259l-3 73c102 -3 329 6 409 8l4 -75c-65 2 -292 -4 -410 -6z" />
    <glyph glyph-name="omicron" unicode="&#x3bf;" horiz-adv-x="774" 
d="M363 -14c-199 0 -308 131 -308 281c0 189 139 342 359 342c176 0 305 -107 305 -290c0 -133 -94 -333 -356 -333zM371 52c137 0 255 95 255 263c0 152 -106 228 -225 228c-159 0 -254 -118 -254 -263c0 -127 85 -228 224 -228z" />
    <glyph glyph-name="pi" unicode="&#x3c0;" horiz-adv-x="859" 
d="M782 611v-73c-17 1 -51 3 -89 5c-2 -19 -1 -191 -1 -211v-87c0 -11 2 -229 6 -245h-94c1 30 2 227 2 244v151c0 37 -1 131 -2 148c-57 0 -295 -3 -357 -5c-2 -14 -4 -123 -4 -166v-140c0 -52 2 -212 3 -232h-93c2 38 3 241 3 264v94c0 14 -1 139 -2 177
c-35 -2 -69 -5 -89 -6v71c87 0 297 0 342 1c40 1 269 4 375 10z" />
    <glyph glyph-name="rho" unicode="&#x3c1;" horiz-adv-x="560" 
d="M219 0h-91c2 37 4 241 4 302v93c0 20 -2 187 -2 200c38 0 123 -1 180 -10c122 -19 197 -74 197 -164c0 -122 -119 -215 -289 -245v-48c0 -17 0 -110 1 -128zM218 528v-286c108 21 197 71 197 169c0 31 -20 115 -197 117z" />
    <glyph glyph-name="sigma" unicode="&#x3c3;" horiz-adv-x="593" 
d="M464 306v-12c-88 -63 -177 -126 -265 -189v-4c118 -17 237 -34 355 -51l-16 -75c-170 29 -340 59 -510 88v8c106 74 211 149 317 223v4c-101 68 -201 137 -302 205v6c157 34 313 68 470 102l18 -73c-107 -20 -214 -39 -321 -59v-4c85 -56 169 -113 254 -169z" />
    <glyph glyph-name="tau" unicode="&#x3c4;" horiz-adv-x="565" 
d="M338 0h-104c5 22 6 270 6 405v119c-103 0 -232 -4 -245 -8v81c26 -7 241 -10 251 -10h80c17 0 215 3 244 10v-81c-2 4 -170 8 -243 8v-132c0 -173 9 -375 11 -392z" />
    <glyph glyph-name="upsilon" unicode="&#x3c5;" horiz-adv-x="585" 
d="M341 0h-96c0 20 4 110 4 121v60c0 111 -52 198 -114 262c-37 38 -85 73 -123 88l37 73c48 -24 108 -69 131 -94c43 -46 98 -112 119 -183h1c27 71 61 120 110 172c40 42 117 92 164 107l26 -73c-48 -15 -110 -51 -161 -106c-62 -66 -103 -155 -103 -246v-76
c0 -12 3 -88 5 -105z" />
    <glyph glyph-name="phi" unicode="&#x3c6;" horiz-adv-x="819" 
d="M455 -77h-90c1 31 3 53 3 76c-167 11 -316 117 -316 284c0 196 158 307 317 323c-1 13 -2 40 -3 68h91c-2 -30 -4 -54 -4 -65c151 -7 317 -113 317 -291c0 -172 -124 -296 -317 -317c0 -16 1 -49 2 -78zM370 255v98c-1 18 1 123 -1 189c-119 -21 -224 -104 -224 -254
c0 -142 110 -210 223 -224c3 63 2 179 2 191zM452 351v-98c0 -35 0 -142 1 -188c109 17 224 80 224 248c0 158 -118 220 -225 230c-1 -47 0 -148 0 -192z" />
    <glyph glyph-name="chi" unicode="&#x3c7;" horiz-adv-x="659" 
d="M98 -18l-63 59c24 19 216 232 244 264c-37 41 -176 193 -211 232l66 63c24 -31 133 -165 199 -241c31 33 188 210 214 240l61 -60c-29 -28 -207 -204 -229 -232c27 -30 208 -227 243 -263l-69 -61c-24 28 -207 246 -229 271c-10 -15 -210 -256 -226 -272z" />
    <glyph glyph-name="psi" unicode="&#x3c8;" horiz-adv-x="759" 
d="M642 578l84 -15c-16 -51 -24 -109 -41 -182c-32 -142 -122 -222 -262 -232c1 -66 3 -137 4 -149h-89c1 27 2 77 3 148c-141 7 -233 93 -259 223c-16 73 -30 141 -46 197l86 16c5 -43 24 -147 39 -208c28 -117 104 -166 181 -166v140c0 13 -2 220 -3 259h87
c-3 -33 -4 -160 -4 -261v-138c79 3 155 41 188 181c13 63 26 150 32 187z" />
    <glyph glyph-name="omega" unicode="&#x3c9;" horiz-adv-x="829" 
d="M795 71l4 -78c-23 -3 -315 6 -334 7l-2 14c79 44 187 167 187 305c0 147 -102 224 -222 224c-161 0 -246 -116 -246 -250c0 -121 77 -226 146 -281l-3 -12c-19 -1 -302 -4 -314 -3l3 77c51 -3 141 -5 168 -4l3 6c-33 27 -96 117 -96 216c0 164 132 317 348 317
c172 0 306 -112 306 -281c0 -119 -65 -215 -127 -258l3 -5c36 0 119 1 176 6z" />
    <glyph glyph-name="alphatonos" unicode="&#x3ac;" horiz-adv-x="710" 
d="M91 -18l-77 44c48 85 308 566 328 599h2c77 -121 293 -504 352 -593l-81 -49c-16 32 -110 200 -119 215l-309 -12c-12 -27 -82 -175 -96 -204zM221 249l244 10c-10 19 -115 211 -124 225c-13 -20 -112 -221 -120 -235zM94 431l-20 176l82 4l-18 -181z" />
    <glyph glyph-name="epsilontonos" unicode="&#x3ad;" horiz-adv-x="528" 
d="M448 67l3 -76c-30 0 -304 9 -322 9c3 45 3 227 3 247v113c0 14 -2 219 -3 235c22 0 259 13 304 16l4 -72c-39 0 -203 -4 -218 -4v-208c17 0 133 4 188 9l3 -73c-15 0 -58 1 -100 2c-41 0 -81 1 -91 1v-202c22 0 144 -2 229 3zM3 431l-20 176l82 4l-18 -181z" />
    <glyph glyph-name="etatonos" unicode="&#x3ae;" horiz-adv-x="823" 
d="M223 0h-94c2 37 3 236 3 258v92c0 15 -3 225 -5 245h97c-2 -15 -5 -189 -5 -204v-62l385 16v64c0 14 -2 167 -3 186h97c-2 -20 -7 -250 -7 -270v-85c0 -11 2 -224 4 -240h-96c3 29 5 180 5 196v86l-385 -16v-52c0 -38 3 -194 4 -214zM0 431l-20 176l82 4l-18 -181z" />
    <glyph glyph-name="iotatonos" unicode="&#x3af;" horiz-adv-x="352" 
d="M219 349v-92c0 -85 3 -237 4 -257h-94c2 37 3 236 3 258v92c0 15 -3 225 -5 245h97c-2 -15 -5 -144 -5 -246zM-5 431l-20 176l82 4l-18 -181z" />
    <glyph glyph-name="iotadieresis" unicode="&#x3ca;" horiz-adv-x="352" 
d="M219 349v-92c0 -85 3 -237 4 -257h-94c2 37 3 236 3 258v92c0 15 -3 225 -5 245h97c-2 -15 -5 -144 -5 -246zM65 688l-60 61l60 60l61 -60zM275 688l-61 61l61 60l60 -60z" />
    <glyph glyph-name="omicrontonos" unicode="&#x3cc;" horiz-adv-x="840" 
d="M409 -14c-199 0 -308 131 -308 281c0 189 139 342 359 342c176 0 305 -107 305 -290c0 -133 -94 -333 -356 -333zM417 52c137 0 255 95 255 263c0 152 -106 228 -225 228c-159 0 -254 -118 -254 -263c0 -127 85 -228 224 -228zM20 431l-20 176l82 4l-18 -181z" />
    <glyph glyph-name="upsilontonos" unicode="&#x3cd;" horiz-adv-x="692" 
d="M448 0h-96c0 20 4 110 4 121v60c0 111 -52 198 -114 262c-37 38 -85 73 -123 88l37 73c48 -24 108 -69 131 -94c43 -46 98 -112 119 -183h1c27 71 61 120 110 172c40 42 117 92 164 107l26 -73c-48 -15 -110 -51 -161 -106c-62 -66 -103 -155 -103 -246v-76
c0 -12 3 -88 5 -105zM0 431l-20 176l82 4l-18 -181z" />
    <glyph glyph-name="upsilondieresis" unicode="&#x3cb;" horiz-adv-x="585" 
d="M341 0h-96c0 20 4 110 4 121v60c0 111 -52 198 -114 262c-37 38 -85 73 -123 88l37 73c48 -24 108 -69 131 -94c43 -46 98 -112 119 -183h1c27 71 61 120 110 172c40 42 117 92 164 107l26 -73c-48 -15 -110 -51 -161 -106c-62 -66 -103 -155 -103 -246v-76
c0 -12 3 -88 5 -105zM192 688l-60 61l60 60l61 -60zM402 688l-61 61l61 60l60 -60z" />
    <glyph glyph-name="omegatonos" unicode="&#x3ce;" horiz-adv-x="829" 
d="M820 71l4 -78c-23 -3 -315 6 -334 7l-2 14c79 44 187 167 187 305c0 147 -102 224 -222 224c-161 0 -246 -116 -246 -250c0 -121 77 -226 146 -281l-3 -12c-19 -1 -302 -4 -314 -3l3 77c51 -3 141 -5 168 -4l3 6c-33 27 -96 117 -96 216c0 164 132 317 348 317
c172 0 306 -112 306 -281c0 -119 -65 -215 -127 -258l3 -5c36 0 119 1 176 6zM19 431l-20 176l82 4l-18 -181z" />
    <glyph glyph-name="iotadieresistonos" unicode="&#x390;" horiz-adv-x="352" 
d="M219 349v-92c0 -85 3 -237 4 -257h-94c2 37 3 236 3 258v92c0 15 -3 225 -5 245h97c-2 -15 -5 -144 -5 -246zM65 688l-60 61l60 60l61 -60zM275 688l-61 61l61 60l60 -60z" />
    <glyph glyph-name="upsilondieresistonos" unicode="&#x3b0;" horiz-adv-x="585" 
d="M341 0h-96c0 20 4 110 4 121v60c0 111 -52 198 -114 262c-37 38 -85 73 -123 88l37 73c48 -24 108 -69 131 -94c43 -46 98 -112 119 -183h1c27 71 61 120 110 172c40 42 117 92 164 107l26 -73c-48 -15 -110 -51 -161 -106c-62 -66 -103 -155 -103 -246v-76
c0 -12 3 -88 5 -105zM192 688l-60 61l60 60l61 -60zM402 688l-61 61l61 60l60 -60z" />
    <glyph glyph-name="uni03C2" unicode="&#x3c2;" horiz-adv-x="593" 
d="M464 306v-12c-88 -63 -177 -126 -265 -189v-4c118 -17 237 -34 355 -51l-16 -75c-170 29 -340 59 -510 88v8c106 74 211 149 317 223v4c-101 68 -201 137 -302 205v6c157 34 313 68 470 102l18 -73c-107 -20 -214 -39 -321 -59v-4c85 -56 169 -113 254 -169z" />
    <glyph glyph-name="uni037E" unicode="&#x37e;" horiz-adv-x="270" 
d="M78 -69l16 218l96 -19l-72 -205zM81 388v107h108v-107h-108z" />
    <glyph glyph-name="uni03F0" unicode="&#x3f0;" horiz-adv-x="658" 
d="M223 -9h-96c2 25 5 169 5 266v90c0 74 -5 237 -5 257h96c-1 -14 -5 -175 -5 -249v-91c0 -66 3 -256 5 -273zM521 592l53 -65c-36 -28 -196 -163 -245 -208c31 -32 208 -188 253 -245c42 -52 58 -89 58 -138c0 -60 -24 -106 -81 -151l-52 48c46 33 53 67 53 99
c0 33 -17 61 -49 97c-42 46 -245 243 -286 284c15 14 275 257 296 279z" />
    <glyph glyph-name="anoteleia" unicode="&#x387;" horiz-adv-x="270" 
d="M78 325v113h114v-113h-114z" />
    <glyph glyph-name="Euro" unicode="&#x20ac;" horiz-adv-x="707" 
d="M249 347c-2 -12 -5 -28 -5 -43c0 -9 1 -22 1 -31c77 1 158 4 288 7l-2 -64c-128 -1 -192 -2 -273 -3c36 -81 126 -133 280 -133c18 0 51 4 64 7l7 -74c-15 -2 -47 -4 -80 -4c-228 0 -327 104 -361 201c-19 0 -57 -3 -77 -5l-1 64c12 0 46 1 67 2c-1 4 -1 11 -1 23
c0 15 1 32 4 46c-21 -1 -40 -1 -66 -4l2 64c18 0 62 0 80 2c49 133 181 249 385 295l17 -75c-130 -26 -264 -96 -312 -214c78 2 136 5 278 15l-3 -65c-140 -6 -212 -8 -292 -11z" />
    <glyph glyph-name="afii61289" unicode="&#x2113;" horiz-adv-x="514" 
d="M205 507v-200c77 79 123 165 123 248c0 63 -25 89 -58 89c-34 0 -65 -39 -65 -137zM436 159l48 -45c-49 -86 -120 -124 -205 -124c-103 0 -155 65 -167 158v8c-18 -13 -36 -24 -54 -36l-29 55c28 19 56 38 81 59v256c0 158 71 223 164 223c82 0 134 -62 134 -156
c0 -121 -71 -227 -203 -344v-14c1 -93 41 -126 98 -126c63 0 107 50 133 86z" />
    <glyph glyph-name="estimated" unicode="&#x212e;" horiz-adv-x="852" 
d="M1000 420h-810c-4 0 -7 -2 -7 -6v-244c0 -11 5 -21 12 -29c77 -81 186 -132 307 -132c129 0 243 57 321 148h73c-91 -106 -235 -175 -396 -175c-276 0 -500 201 -500 450s224 450 500 450s500 -201 500 -450v-12zM817 452v246c0 12 -5 22 -13 30
c-77 78 -184 127 -302 127c-120 0 -229 -51 -306 -131c-8 -8 -13 -19 -13 -31v-241c0 -4 3 -7 7 -7h621c4 0 6 3 6 7z" />
    <glyph glyph-name="partialdiff" unicode="&#x2202;" horiz-adv-x="538" 
d="M86 606l-31 67c33 23 90 54 178 54c144 0 270 -127 270 -355c0 -253 -130 -383 -275 -383c-139 0 -203 107 -203 213c0 135 94 244 219 244c83 0 140 -47 161 -85h1c1 9 1 21 1 30c0 165 -89 254 -184 254c-66 0 -111 -21 -137 -39zM237 70h1c84 0 144 98 157 205
c-16 47 -66 92 -133 92c-76 0 -137 -71 -137 -164c0 -83 46 -133 112 -133z" />
    <glyph glyph-name="product" unicode="&#x220f;" horiz-adv-x="624" 
d="M614 568h-93v-658h-94v658h-231v-658h-94v658h-93v82h605v-82z" />
    <glyph glyph-name="summation" unicode="&#x2211;" horiz-adv-x="514" 
d="M519 -90h-509v59l245 309l-232 306v66h465v-82h-338v-3l214 -284l-226 -285v-4h381v-82z" />
    <glyph glyph-name="uni2219" unicode="&#x2219;" horiz-adv-x="270" 
d="M79 280v111h112v-111h-112z" />
    <glyph glyph-name="radical" unicode="&#x221a;" horiz-adv-x="567" 
d="M585 829l-230 -921h-70l-160 424l-75 -31l-20 51l145 60l120 -337c8 -22 15 -48 20 -67h1c4 18 9 44 15 68l181 753h73z" />
    <glyph glyph-name="infinity" unicode="&#x221e;" horiz-adv-x="732" 
d="M544 113h-1c-74 0 -129 58 -177 106c-52 -51 -103 -106 -186 -106c-86 0 -147 63 -147 152c0 80 65 150 155 150c75 0 130 -58 178 -105c52 50 103 105 186 105c86 0 147 -63 147 -150c0 -82 -65 -152 -155 -152zM544 178h1c48 0 84 40 84 87c0 49 -35 85 -82 85
c-55 0 -100 -47 -137 -85c37 -35 78 -87 134 -87zM185 178h1c54 0 99 48 136 86c-37 35 -78 86 -134 86c-49 0 -85 -39 -85 -85c0 -50 35 -87 82 -87z" />
    <glyph glyph-name="integral" unicode="&#x222b;" horiz-adv-x="324" 
d="M314 791l-12 -63c-9 2 -20 4 -31 4c-18 0 -35 -7 -46 -23c-19 -25 -28 -68 -28 -155c0 -147 12 -312 12 -466c0 -96 -17 -155 -40 -188c-24 -36 -61 -53 -103 -53c-23 0 -46 5 -57 10l13 64c9 -3 22 -6 36 -6c16 0 32 7 44 21c17 21 30 58 30 151c0 155 -12 324 -12 473
c0 102 16 160 53 199c25 27 58 39 94 39c19 0 37 -3 47 -7z" />
    <glyph glyph-name="approxequal" unicode="&#x2248;" horiz-adv-x="596" 
d="M531 420l40 -45c-32 -43 -90 -81 -154 -81c-57 0 -94 22 -127 36c-30 12 -63 34 -113 34c-46 0 -90 -31 -116 -60l-38 46c32 40 90 80 155 80c58 0 94 -22 126 -36c30 -12 64 -34 113 -34c46 0 90 34 114 60zM536 219l39 -43c-32 -45 -91 -83 -155 -83
c-56 0 -94 22 -126 36c-30 12 -64 34 -114 34c-45 0 -89 -31 -116 -60l-37 47c32 41 91 79 154 79c58 0 94 -22 127 -36c30 -12 63 -34 112 -34c47 0 91 31 116 60z" />
    <glyph glyph-name="notequal" unicode="&#x2260;" horiz-adv-x="596" 
d="M556 135h-309l-74 -118h-71l76 118h-138v66h180l86 135h-266v66h308l74 118h71l-76 -118h139v-66h-181l-86 -135h267v-66z" />
    <glyph glyph-name="lessequal" unicode="&#x2264;" horiz-adv-x="596" 
d="M532 102l-467 190v65l467 189v-73l-376 -148v-2l376 -148v-73zM532 0h-465v63h465v-63z" />
    <glyph glyph-name="greaterequal" unicode="&#x2265;" horiz-adv-x="596" 
d="M531 292l-467 -190v73l376 148v2l-376 148v73l467 -189v-65zM529 0h-465v63h465v-63z" />
    <glyph glyph-name="lozenge" unicode="&#x25ca;" horiz-adv-x="531" 
d="M488 325l-184 -357h-77l-183 357l183 357h77zM404 323l-128 259c-4 7 -8 17 -11 25h-2c-2 -8 -7 -18 -10 -25l-125 -255l127 -260c4 -7 9 -16 11 -24h2c3 8 8 17 11 24z" />
    <glyph glyph-name="uni02C9" unicode="&#x2c9;" 
d="M287 770l8 56l268 3l-4 -64z" />
    <glyph glyph-name="uniF638" unicode="&#xf638;" horiz-adv-x="707" 
d="M535 721l63 -35c-8 -11 -19 -29 -44 -67c73 -58 117 -150 117 -262c0 -174 -128 -340 -329 -340c-47 0 -95 11 -138 32c-22 -38 -33 -57 -40 -70l-61 42c10 14 25 37 43 68c-65 54 -110 140 -110 260c0 202 156 335 325 335c49 0 94 -10 134 -30c18 29 32 51 40 67z
M356 95c101 0 227 85 227 266c0 71 -30 137 -78 183c-32 -50 -79 -123 -124 -196c-49 -79 -96 -159 -135 -226c31 -17 68 -27 110 -27zM352 606c-131 0 -228 -110 -228 -262c0 -64 23 -132 69 -180c40 66 89 147 139 226c42 68 84 134 119 191c-30 16 -63 25 -99 25z" />
    <glyph glyph-name="uniF639" unicode="&#xf639;" horiz-adv-x="755" 
d="M366 17c-151 0 -306 110 -306 332c0 202 156 335 325 335c178 0 310 -133 310 -327c0 -174 -128 -340 -329 -340zM380 95c101 0 227 85 227 266c0 131 -101 245 -231 245c-131 0 -228 -110 -228 -262c0 -117 78 -249 232 -249z" />
    <glyph glyph-name="uniF6DC" unicode="&#xf6dc;" horiz-adv-x="444" 
d="M302 0h-94c0 26 6 152 6 287v259c-29 -34 -106 -108 -135 -138l-45 54c19 17 242 225 271 258h3c0 -33 -8 -166 -8 -301v-154c0 -144 -1 -234 2 -265z" />
    <glyph glyph-name="uniF63A" unicode="&#xf63a;" horiz-adv-x="580" 
d="M491 78v-86c-25 3 -231 7 -376 8h-113l-2 10c134 91 354 256 354 417c0 140 -160 202 -278 208l18 82c227 -27 357 -148 357 -281c0 -162 -171 -294 -259 -365l1 -4z" />
    <glyph glyph-name="uniF63B" unicode="&#xf63b;" horiz-adv-x="494" 
d="M88 645l12 77c116 -6 302 -70 302 -189c0 -71 -73 -139 -124 -161v-2c78 -20 146 -66 146 -146c0 -136 -194 -244 -377 -249l-6 81c114 -8 281 47 281 163c0 90 -136 124 -211 127v30c81 8 198 63 198 141c0 83 -118 127 -221 128z" />
    <glyph glyph-name="uniF63C" unicode="&#xf63c;" horiz-adv-x="590" 
d="M442 731v-498l109 3l-7 -75l-103 3v-47c0 -40 1 -88 2 -117h-89c1 28 5 72 5 128v35h-356l-2 8l435 560h6zM361 234v297h-2c-33 -50 -185 -247 -221 -297h223z" />
    <glyph glyph-name="uniF63D" unicode="&#xf63d;" horiz-adv-x="500" 
d="M174 625l-19 -108c220 -37 268 -131 268 -213c0 -150 -193 -292 -352 -326l-22 78c109 20 279 102 279 232c0 87 -98 144 -256 159l41 251c30 1 269 8 321 12l-1 -87z" />
    <glyph glyph-name="uniF63E" unicode="&#xf63e;" horiz-adv-x="562" 
d="M355 726l52 -69c-51 -30 -150 -117 -199 -219c167 6 294 -84 294 -210c0 -144 -122 -244 -240 -244c-57 0 -103 16 -141 55c-40 42 -61 97 -61 177c0 198 159 414 295 510zM150 222c0 -102 50 -165 119 -165c83 0 139 71 139 151c0 111 -114 169 -231 161
c-18 -42 -27 -84 -27 -147z" />
    <glyph glyph-name="uniF63F" unicode="&#xf63f;" horiz-adv-x="485" 
d="M20 625l-4 84c74 -3 362 -9 457 -9l2 -3c-16 -26 -257 -658 -278 -713l-88 43c21 31 246 571 256 596z" />
    <glyph glyph-name="uniF640" unicode="&#xf640;" horiz-adv-x="609" 
d="M305 651c-90 0 -126 -68 -126 -129c0 -64 47 -128 121 -128c72 0 128 50 128 131c0 83 -57 126 -123 126zM314 716c121 0 206 -71 206 -178c0 -58 -34 -133 -114 -169c79 -33 124 -97 124 -180c0 -84 -68 -205 -233 -205c-150 0 -218 88 -218 191c0 75 50 148 117 185
c-66 27 -109 91 -109 161c0 90 80 196 227 195zM302 49c78 0 133 53 133 134c0 89 -59 144 -134 144c-84 0 -129 -70 -129 -149c0 -66 50 -129 130 -129z" />
    <glyph glyph-name="uniF641" unicode="&#xf641;" horiz-adv-x="561" 
d="M211 -26l-52 69c51 31 145 117 197 227c-169 -8 -296 81 -296 206c0 134 113 240 233 240c127 0 208 -96 208 -227c0 -210 -154 -419 -290 -515zM407 475c0 112 -49 169 -120 169c-79 0 -134 -71 -134 -149c0 -116 111 -169 231 -158c12 30 23 82 23 138z" />
    <glyph glyph-name="uniF642" unicode="&#xf642;" horiz-adv-x="849" 
d="M208 273c-115 0 -172 73 -172 155c0 74 66 167 187 167c99 0 167 -53 167 -160c0 -53 -46 -162 -182 -162zM210 325c56 0 106 38 106 109c0 78 -47 109 -98 109c-76 0 -109 -64 -109 -113c0 -56 41 -105 101 -105zM631 0c-115 0 -172 73 -172 155c0 74 66 167 187 167
c99 0 167 -53 167 -160c0 -53 -46 -162 -182 -162zM633 52c56 0 106 37 106 107c0 79 -47 111 -98 111c-76 0 -109 -65 -109 -113c0 -56 41 -105 101 -105zM263 -18l-60 38c32 42 118 178 206 312c79 119 157 239 183 284l61 -35c-27 -38 -112 -159 -194 -285
c-86 -133 -169 -269 -196 -314z" />
    <glyph glyph-name="uniF628" unicode="&#xf628;" horiz-adv-x="1249" 
d="M208 273c-115 0 -172 73 -172 155c0 74 66 167 187 167c99 0 167 -53 167 -160c0 -53 -46 -162 -182 -162zM210 325c56 0 106 38 106 109c0 78 -47 109 -98 109c-76 0 -109 -64 -109 -113c0 -56 41 -105 101 -105zM631 0c-115 0 -172 73 -172 155c0 74 66 167 187 167
c99 0 167 -53 167 -160c0 -53 -46 -162 -182 -162zM633 52c56 0 106 37 106 107c0 79 -47 111 -98 111c-76 0 -109 -65 -109 -113c0 -56 41 -105 101 -105zM1031 0c-115 0 -172 73 -172 155c0 74 66 167 187 167c99 0 167 -53 167 -160c0 -53 -46 -162 -182 -162zM1033 52
c56 0 106 37 106 107c0 79 -47 111 -98 111c-76 0 -109 -65 -109 -113c0 -56 41 -105 101 -105zM263 -18l-60 38c32 42 118 178 206 312c79 119 157 239 183 284l61 -35c-27 -38 -112 -159 -194 -285c-86 -133 -169 -269 -196 -314z" />
    <glyph glyph-name="uniF643" unicode="&#xf643;" horiz-adv-x="642" 
d="M311 13c-135 0 -276 94 -276 284c0 172 141 285 294 285c160 0 280 -113 280 -279c0 -148 -117 -290 -298 -290zM324 83c89 0 199 70 199 224c0 111 -88 206 -203 206s-200 -91 -200 -221c0 -99 67 -209 204 -209z" />
    <glyph glyph-name="uniF644" unicode="&#xf644;" horiz-adv-x="642" 
d="M413 0h-90c0 22 6 129 6 244v214c-26 -29 -94 -91 -120 -116l-42 51c17 14 213 191 244 219h6c0 -28 -6 -141 -6 -256v-131c0 -122 -1 -199 2 -225z" />
    <glyph glyph-name="uniF645" unicode="&#xf645;" horiz-adv-x="642" 
d="M493 69v-76c-23 3 -208 6 -338 7h-102l-2 11c121 77 316 215 316 352c0 119 -141 169 -248 174l17 72c204 -22 323 -125 323 -238c0 -138 -156 -250 -232 -308l1 -3z" />
    <glyph glyph-name="uniF646" unicode="&#xf646;" horiz-adv-x="642" 
d="M171 546l11 70c104 -3 274 -58 274 -159c0 -60 -68 -120 -111 -139v-1c67 -18 131 -60 131 -128c0 -115 -177 -208 -342 -212l-5 73c103 -3 252 37 252 135c0 77 -122 105 -189 107v34c73 5 175 51 175 117c0 70 -103 103 -196 103z" />
    <glyph glyph-name="uniF647" unicode="&#xf647;" horiz-adv-x="642" 
d="M454 621v-422l98 3l-6 -69l-93 2v-40c0 -34 1 -70 2 -95h-84c1 24 4 57 4 105v30h-320l-3 10l391 476h11zM377 200v247h-2c-30 -41 -160 -206 -193 -247h195z" />
    <glyph glyph-name="uniF648" unicode="&#xf648;" horiz-adv-x="642" 
d="M255 531l-16 -93c194 -30 239 -112 239 -182c0 -127 -170 -246 -319 -277l-20 70c98 17 250 85 250 194c0 79 -86 122 -229 134l37 220c27 1 242 7 289 11l-1 -78z" />
    <glyph glyph-name="uniF649" unicode="&#xf649;" horiz-adv-x="642" 
d="M390 622l50 -62c-48 -28 -138 -99 -182 -186c151 6 266 -72 266 -179c0 -123 -112 -209 -218 -209c-51 0 -95 12 -129 46c-36 36 -57 85 -57 153c0 168 145 353 270 437zM207 190c0 -84 43 -139 105 -139c75 0 122 59 122 127c0 93 -97 141 -203 135
c-16 -36 -24 -70 -24 -123z" />
    <glyph glyph-name="uniF64A" unicode="&#xf64a;" horiz-adv-x="642" 
d="M129 531l-4 75c67 -3 326 -8 412 -8l2 -4c-16 -25 -233 -561 -252 -611l-83 37c19 29 223 488 233 510z" />
    <glyph glyph-name="uniF64B" unicode="&#xf64b;" horiz-adv-x="642" 
d="M324 554c-80 0 -112 -54 -112 -106c0 -55 41 -110 107 -110c64 0 113 43 113 112c0 71 -48 104 -108 104zM332 613c109 0 187 -61 187 -152c0 -49 -30 -115 -102 -146c72 -29 112 -86 112 -156c0 -72 -64 -175 -213 -175c-135 0 -201 75 -201 163c0 64 47 128 107 160
c-59 24 -98 80 -98 140c0 76 75 166 208 166zM321 43c69 0 119 42 119 111c0 75 -54 122 -120 122c-75 0 -115 -60 -115 -127c0 -56 45 -106 116 -106z" />
    <glyph glyph-name="uniF64C" unicode="&#xf64c;" horiz-adv-x="642" 
d="M260 -25l-51 60c47 28 133 100 182 194c-157 -8 -272 71 -272 178c0 114 104 205 214 205c120 0 192 -83 192 -194c0 -179 -141 -359 -265 -443zM327 547c-72 0 -119 -58 -119 -124c0 -99 97 -144 211 -135c10 26 19 70 19 118c0 95 -44 141 -111 141z" />
    <glyph glyph-name="uniF64E" unicode="&#xf64e;" horiz-adv-x="642" 
d="M235 293c-2 -8 -4 -22 -4 -35c0 -7 1 -18 1 -24c66 1 139 3 256 6l-2 -57c-115 -1 -169 -2 -242 -3c35 -69 110 -106 248 -106c17 0 46 3 58 6l6 -69c-13 -2 -42 -3 -72 -3c-205 0 -294 88 -325 170c-17 0 -51 -3 -69 -5l-1 58c11 0 42 1 60 1v19c0 13 0 26 3 36
c-19 -1 -36 -1 -59 -3l2 57c16 0 55 0 72 2c44 112 162 210 346 249l15 -68c-117 -21 -236 -74 -279 -176c70 2 121 4 249 13l-3 -59c-126 -5 -191 -6 -260 -9z" />
    <glyph glyph-name="uniF64F" unicode="&#xf64f;" horiz-adv-x="642" 
d="M298 0h-84v40c0 24 -1 195 12 285c25 176 137 257 269 284l15 -78c-70 -5 -176 -18 -203 -215c-1 -7 -2 -18 -3 -30c38 0 128 6 164 9l-4 -64c-36 -1 -132 -4 -162 -6c-3 -46 -4 -103 -4 -154v-71z" />
    <glyph glyph-name="uniF651" unicode="&#xf651;" horiz-adv-x="642" 
d="M525 69v-73c-37 0 -309 4 -363 4c27 88 39 166 51 239c-33 -2 -64 -4 -94 -6v60c32 1 68 3 103 5c3 17 5 34 9 51c33 161 139 232 279 260l16 -75c-107 -13 -178 -34 -213 -199c-2 -11 -4 -22 -7 -33c65 4 127 8 167 12l-4 -64c-48 0 -112 -2 -173 -5
c-10 -56 -22 -117 -43 -180c53 0 160 1 272 4z" />
    <glyph glyph-name="uniF652" unicode="&#xf652;" horiz-adv-x="642" 
d="M370 0h-89c1 21 5 117 5 129v58c-70 0 -126 0 -148 -1l-1 59c20 -1 74 -2 148 -1c-64 92 -168 244 -218 310l72 48c47 -75 130 -213 192 -299h2c60 87 152 231 193 298l72 -44c-33 -41 -162 -221 -234 -314c71 0 125 1 149 2l2 -59c-23 1 -80 1 -149 1v-75
c0 -13 2 -94 4 -112z" />
    <glyph glyph-name="uniF653" unicode="&#xf653;" horiz-adv-x="642" 
d="M276 669h70l-3 -96c14 7 77 22 91 23l9 -72c-71 1 -184 -40 -184 -94c0 -40 32 -60 100 -91c61 -28 118 -59 118 -124c0 -70 -90 -138 -134 -154l3 -133h-70l3 112c-20 -7 -70 -19 -86 -20l-13 69c128 10 207 64 207 107c0 38 -20 54 -86 88c-69 35 -133 74 -133 131
c0 60 69 108 111 130z" />
    <glyph glyph-name="uniF654" unicode="&#xf654;" horiz-adv-x="642" 
d="M369 -14l2 139c-111 24 -148 120 -148 158c0 87 62 163 148 206l-2 151h70l-3 -124c27 12 64 20 101 27l10 -74c-163 -15 -234 -96 -234 -175s86 -118 179 -118c26 0 48 3 68 7l6 -69c-23 -4 -51 -6 -73 -6s-42 2 -57 3l3 -125h-70z" />
    <glyph glyph-name="uniF66D" unicode="&#xf66d;" horiz-adv-x="710" 
d="M91 -18l-77 44c48 85 308 566 328 599h2c77 -121 293 -504 352 -593l-81 -49c-16 32 -110 200 -119 215l-309 -12c-12 -27 -82 -175 -96 -204zM221 249l244 10c-10 19 -115 211 -124 225c-13 -20 -112 -221 -120 -235zM450 795l34 -41c-32 -36 -93 -71 -144 -71
c-48 0 -116 37 -142 69l37 43c23 -26 60 -52 113 -52c44 0 78 24 102 52z" />
    <glyph glyph-name="uniF66E" unicode="&#xf66e;" horiz-adv-x="710" 
d="M91 -18l-77 44c48 85 308 566 328 599h2c77 -121 293 -504 352 -593l-81 -49c-16 32 -110 200 -119 215l-309 -12c-12 -27 -82 -175 -96 -204zM221 249l244 10c-10 19 -115 211 -124 225c-13 -20 -112 -221 -120 -235zM211 691l7 54l255 2l-4 -60z" />
    <glyph glyph-name="uniF66F" unicode="&#xf66f;" horiz-adv-x="710" 
d="M221 249l244 10c-10 19 -115 211 -124 225c-13 -20 -112 -221 -120 -235zM91 -18l-77 44c48 85 308 566 328 599h2c77 -121 293 -504 352 -593l-78 -47c-46 -27 -69 -63 -69 -84c0 -26 26 -60 85 -72l-12 -39c-71 12 -144 50 -144 99c0 39 42 75 122 121
c-23 44 -96 175 -104 188l-309 -12c-12 -27 -82 -175 -96 -204z" />
    <glyph glyph-name="uniF671" unicode="&#xf671;" horiz-adv-x="587" 
d="M547 68l9 -75c-17 -3 -59 -7 -114 -7c-310 0 -386 170 -386 252c0 144 136 317 447 372l14 -76c-198 -24 -368 -134 -368 -282c0 -100 85 -194 302 -194c37 0 75 5 96 10zM340 709l130 112l45 -66l-151 -80z" />
    <glyph glyph-name="uniF672" unicode="&#xf672;" horiz-adv-x="587" 
d="M547 68l9 -75c-17 -3 -59 -7 -114 -7c-310 0 -386 170 -386 252c0 144 136 317 447 372l14 -76c-198 -24 -368 -134 -368 -282c0 -100 85 -194 302 -194c37 0 75 5 96 10zM402 679l-142 93l38 45l105 -78l95 78l37 -45z" />
    <glyph glyph-name="uniF675" unicode="&#xf675;" horiz-adv-x="722" 
d="M132 269v105c0 18 -1 197 -5 221c52 0 145 1 224 -5c297 -23 323 -164 323 -223c0 -272 -309 -371 -548 -371c4 39 6 250 6 273zM218 528v-458c244 16 364 153 364 277c0 131 -135 185 -364 181zM329 679l-142 93l38 45l105 -78l95 78l37 -45z" />
    <glyph glyph-name="uniF676" unicode="&#xf676;" horiz-adv-x="727" 
d="M137 269c-43 -2 -73 -4 -91 -5l-3 60c18 0 48 2 94 4v46c0 18 -1 197 -5 221c52 0 146 2 225 -5c300 -27 322 -164 322 -227c0 -260 -296 -367 -548 -367c4 39 6 225 6 248v25zM223 274v-204c244 20 364 145 364 275c0 136 -135 186 -364 183v-196c51 2 107 6 148 8
l2 -62c-45 -1 -100 -2 -150 -4z" />
    <glyph glyph-name="uniF678" unicode="&#xf678;" horiz-adv-x="528" 
d="M448 67l3 -76c-30 0 -304 9 -322 9c3 45 3 227 3 247v113c0 14 -2 219 -3 235c22 0 259 13 304 16l4 -72c-39 0 -203 -4 -218 -4v-208c17 0 133 4 188 9l3 -73c-15 0 -58 1 -100 2c-41 0 -81 1 -91 1v-202c22 0 144 -2 229 3zM292 679l-142 93l38 45l105 -78l95 78
l37 -45z" />
    <glyph glyph-name="uniF679" unicode="&#xf679;" horiz-adv-x="528" 
d="M448 67l3 -76c-30 0 -304 9 -322 9c3 45 3 227 3 247v113c0 14 -2 219 -3 235c22 0 259 13 304 16l4 -72c-39 0 -203 -4 -218 -4v-208c17 0 133 4 188 9l3 -73c-15 0 -58 1 -100 2c-41 0 -81 1 -91 1v-202c22 0 144 -2 229 3zM293 689l-67 67l67 67l67 -67z" />
    <glyph glyph-name="uniF67A" unicode="&#xf67a;" horiz-adv-x="528" 
d="M448 67l3 -76c-30 0 -304 9 -322 9c3 45 3 227 3 247v113c0 14 -2 219 -3 235c22 0 259 13 304 16l4 -72c-39 0 -203 -4 -218 -4v-208c17 0 133 4 188 9l3 -73c-15 0 -58 1 -100 2c-41 0 -81 1 -91 1v-202c22 0 144 -2 229 3zM150 691l7 54l255 2l-4 -60z" />
    <glyph glyph-name="uniF67C" unicode="&#xf67c;" horiz-adv-x="528" 
d="M448 67l3 -76c-2 0 -5 0 -23 1c-50 -31 -79 -68 -79 -91c0 -26 26 -60 85 -72l-12 -39c-71 12 -144 50 -144 99c0 40 44 77 97 104c-69 2 -232 7 -246 7c3 45 3 227 3 247v113c0 14 -2 219 -3 235c22 0 259 13 304 16l4 -72c-39 0 -203 -4 -218 -4v-208c17 0 133 4 188 9
l3 -73c-15 0 -58 1 -100 2c-41 0 -81 1 -91 1v-202c22 0 144 -2 229 3z" />
    <glyph glyph-name="uniF67D" unicode="&#xf67d;" horiz-adv-x="658" 
d="M582 195v-62c0 -33 2 -109 2 -120c-41 -15 -125 -27 -201 -27c-206 0 -328 108 -328 249c0 100 106 289 440 376l18 -78c-197 -37 -365 -164 -365 -299c0 -89 74 -183 254 -183c38 0 76 5 94 12v138c0 25 -2 54 -3 59h89v-65zM514 795l34 -41c-32 -36 -93 -71 -144 -71
c-48 0 -116 37 -142 69l37 43c23 -26 60 -52 113 -52c44 0 78 24 102 52z" />
    <glyph glyph-name="uniF67F" unicode="&#xf67f;" horiz-adv-x="658" 
d="M582 195v-62c0 -33 2 -109 2 -120c-41 -15 -125 -27 -201 -27c-206 0 -328 108 -328 249c0 100 106 289 440 376l18 -78c-197 -37 -365 -164 -365 -299c0 -89 74 -183 254 -183c38 0 76 5 94 12v138c0 25 -2 54 -3 59h89v-65zM270 -206l47 163l71 -32l-89 -145z" />
    <glyph glyph-name="uniF685" unicode="&#xf685;" horiz-adv-x="352" 
d="M219 349v-92c0 -85 3 -237 4 -257h-94c2 37 3 236 3 258v92c0 15 -3 225 -5 245h97c-2 -15 -5 -144 -5 -246zM42 691l7 54l255 2l-4 -60z" />
    <glyph glyph-name="uniF686" unicode="&#xf686;" horiz-adv-x="352" 
d="M202 -171l-12 -39c-71 12 -144 50 -144 99c0 38 41 74 110 111h-27c2 37 3 236 3 258v92c0 15 -3 225 -5 245h97c-2 -15 -5 -144 -5 -246v-92c0 -85 3 -237 4 -257h-17c-59 -39 -89 -76 -89 -99c0 -26 26 -60 85 -72z" />
    <glyph glyph-name="uniF689" unicode="&#xf689;" horiz-adv-x="658" 
d="M223 -9h-96c2 25 5 169 5 266v90c0 74 -5 237 -5 257h96c-1 -14 -5 -175 -5 -249v-91c0 -66 3 -256 5 -273zM607 60l-62 -68c-11 12 -281 279 -320 321c15 14 275 257 296 279l53 -65c-36 -28 -196 -163 -245 -208c28 -33 242 -227 278 -259zM270 -186l47 163l71 -32
l-89 -145z" />
    <glyph glyph-name="uniF68A" unicode="&#xf68a;" horiz-adv-x="492" 
d="M128 595h99c-4 -19 -8 -186 -8 -293v-235c22 0 130 0 227 4v-80c-29 0 -299 9 -322 9c8 45 8 227 8 247v113c0 14 -2 219 -4 235zM112 709l130 112l45 -66l-151 -80z" />
    <glyph glyph-name="uniF68B" unicode="&#xf68b;" horiz-adv-x="492" 
d="M128 595h99c-4 -19 -8 -186 -8 -293v-235c22 0 130 0 227 4v-80c-29 0 -299 9 -322 9c8 45 8 227 8 247v113c0 14 -2 219 -4 235zM327 432l47 163l71 -32l-89 -145z" />
    <glyph glyph-name="uniF68C" unicode="&#xf68c;" horiz-adv-x="492" 
d="M128 595h99c-4 -19 -8 -186 -8 -293v-235c22 0 130 0 227 4v-80c-29 0 -299 9 -322 9c8 45 8 227 8 247v113c0 14 -2 219 -4 235zM207 -206l47 163l71 -32l-89 -145z" />
    <glyph glyph-name="uniF68E" unicode="&#xf68e;" horiz-adv-x="803" 
d="M193 -6l-92 6c5 64 30 541 34 629h5c26 -28 443 -448 471 -475c0 24 2 417 3 445l89 -4c-4 -51 -21 -399 -25 -613h-4c-26 23 -464 460 -475 472h-2c2 -16 -5 -432 -4 -460zM338 689l130 112l45 -66l-151 -80z" />
    <glyph glyph-name="uniF68F" unicode="&#xf68f;" horiz-adv-x="803" 
d="M193 -6l-92 6c5 64 30 541 34 629h5c26 -28 443 -448 471 -475c0 24 2 417 3 445l89 -4c-4 -51 -21 -399 -25 -613h-4c-26 23 -464 460 -475 472h-2c2 -16 -5 -432 -4 -460zM410 659l-142 93l38 45l105 -78l95 78l37 -45z" />
    <glyph glyph-name="uniF690" unicode="&#xf690;" horiz-adv-x="803" 
d="M193 -6l-92 6c5 64 30 541 34 629h5c26 -28 443 -448 471 -475c0 24 2 417 3 445l89 -4c-4 -51 -21 -399 -25 -613h-4c-26 23 -464 460 -475 472h-2c2 -16 -5 -432 -4 -460zM343 -186l47 163l71 -32l-89 -145z" />
    <glyph glyph-name="uniF692" unicode="&#xf692;" horiz-adv-x="774" 
d="M363 -14c-199 0 -308 131 -308 281c0 189 139 342 359 342c176 0 305 -107 305 -290c0 -133 -94 -333 -356 -333zM371 52c137 0 255 95 255 263c0 152 -106 228 -225 228c-159 0 -254 -118 -254 -263c0 -127 85 -228 224 -228zM419 703l107 133l53 -51l-129 -109z
M295 703l85 129l56 -47l-108 -108z" />
    <glyph glyph-name="uniF693" unicode="&#xf693;" horiz-adv-x="774" 
d="M363 -14c-199 0 -308 131 -308 281c0 189 139 342 359 342c176 0 305 -107 305 -290c0 -133 -94 -333 -356 -333zM371 52c137 0 255 95 255 263c0 152 -106 228 -225 228c-159 0 -254 -118 -254 -263c0 -127 85 -228 224 -228zM263 691l7 54l255 2l-4 -60z" />
    <glyph glyph-name="uniF695" unicode="&#xf695;" horiz-adv-x="616" 
d="M219 530v-270c0 -32 3 -247 5 -260h-94c3 20 2 290 2 308v69c0 26 -2 202 -5 218c43 0 122 2 198 -7c120 -14 190 -63 190 -137c0 -70 -54 -130 -129 -174c23 -31 184 -207 210 -232l-69 -61c-10 12 -216 264 -243 300c45 23 136 69 136 154c0 40 -31 91 -201 92z
M254 709l130 112l45 -66l-151 -80z" />
    <glyph glyph-name="uniF696" unicode="&#xf696;" horiz-adv-x="616" 
d="M219 530v-270c0 -32 3 -247 5 -260h-94c3 20 2 290 2 308v69c0 26 -2 202 -5 218c43 0 122 2 198 -7c120 -14 190 -63 190 -137c0 -70 -54 -130 -129 -174c23 -31 184 -207 210 -232l-69 -61c-10 12 -216 264 -243 300c45 23 136 69 136 154c0 40 -31 91 -201 92z
M316 679l-142 93l38 45l105 -78l95 78l37 -45z" />
    <glyph glyph-name="uniF697" unicode="&#xf697;" horiz-adv-x="616" 
d="M219 530v-270c0 -32 3 -247 5 -260h-94c3 20 2 290 2 308v69c0 26 -2 202 -5 218c43 0 122 2 198 -7c120 -14 190 -63 190 -137c0 -70 -54 -130 -129 -174c23 -31 184 -207 210 -232l-69 -61c-10 12 -216 264 -243 300c45 23 136 69 136 154c0 40 -31 91 -201 92z
M249 -206l47 163l71 -32l-89 -145z" />
    <glyph glyph-name="uniF698" unicode="&#xf698;" horiz-adv-x="480" 
d="M128 -16l-23 70c92 18 209 55 209 123c0 44 -31 65 -97 97c-78 38 -135 74 -135 136c0 95 139 178 268 201l19 -70c-59 -9 -195 -43 -195 -117c0 -46 65 -69 104 -91c69 -38 129 -65 129 -136c0 -88 -101 -177 -279 -213zM206 709l130 112l45 -66l-151 -80z" />
    <glyph glyph-name="uniF699" unicode="&#xf699;" horiz-adv-x="480" 
d="M128 -16l-23 70c92 18 209 55 209 123c0 44 -31 65 -97 97c-78 38 -135 74 -135 136c0 95 139 178 268 201l19 -70c-59 -9 -195 -43 -195 -117c0 -46 65 -69 104 -91c69 -38 129 -65 129 -136c0 -60 -47 -120 -133 -163l-63 -94c34 -10 71 -38 71 -71
c0 -49 -74 -92 -155 -100l-10 41c45 2 93 21 93 56c0 25 -32 51 -62 62l47 73c-22 -7 -44 -12 -67 -17z" />
    <glyph glyph-name="uniF69B" unicode="&#xf69b;" horiz-adv-x="480" 
d="M128 -16l-23 70c92 18 209 55 209 123c0 44 -31 65 -97 97c-78 38 -135 74 -135 136c0 95 139 178 268 201l19 -70c-59 -9 -195 -43 -195 -117c0 -46 65 -69 104 -91c69 -38 129 -65 129 -136c0 -88 -101 -177 -279 -213zM181 -206l47 163l71 -32l-89 -145z" />
    <glyph glyph-name="uniF69D" unicode="&#xf69d;" horiz-adv-x="565" 
d="M338 0h-104c5 22 6 270 6 405v119c-103 0 -232 -4 -245 -8v81c26 -7 241 -10 251 -10h80c17 0 215 3 244 10v-81c-2 4 -170 8 -243 8v-132c0 -173 9 -375 11 -392zM291 679l-142 93l38 45l105 -78l95 78l37 -45z" />
    <glyph glyph-name="uniF69E" unicode="&#xf69e;" horiz-adv-x="565" 
d="M338 0h-104c5 22 6 270 6 405v119c-103 0 -232 -4 -245 -8v81c26 -7 241 -10 251 -10h80c17 0 215 3 244 10v-81c-2 4 -170 8 -243 8v-132c0 -173 9 -375 11 -392zM224 -206l47 163l71 -32l-89 -145z" />
    <glyph glyph-name="uniF6A0" unicode="&#xf6a0;" horiz-adv-x="740" 
d="M180 451v-57c0 -138 8 -201 42 -257c35 -57 86 -82 151 -82c78 0 123 36 153 81c42 62 43 164 43 298v29c0 59 -4 109 -5 141h91c0 -19 1 -75 1 -142v-40c0 -163 -12 -266 -80 -345c-54 -62 -118 -91 -215 -91c-49 0 -144 7 -208 102c-42 63 -60 130 -60 336v46
c0 39 1 101 1 121h90c-1 -22 -4 -62 -4 -140zM362 703l107 133l53 -51l-129 -109zM238 703l85 129l56 -47l-108 -108z" />
    <glyph glyph-name="uniF6A1" unicode="&#xf6a1;" horiz-adv-x="740" 
d="M180 451v-57c0 -138 8 -201 42 -257c35 -57 86 -82 151 -82c78 0 123 36 153 81c42 62 43 164 43 298v29c0 59 -4 109 -5 141h91c0 -19 1 -75 1 -142v-40c0 -163 -12 -266 -80 -345c-54 -62 -118 -91 -215 -91c-49 0 -144 7 -208 102c-42 63 -60 130 -60 336v46
c0 39 1 101 1 121h90c-1 -22 -4 -62 -4 -140zM246 691l7 54l255 2l-4 -60z" />
    <glyph glyph-name="uniF6A2" unicode="&#xf6a2;" horiz-adv-x="740" 
d="M444 -171l-12 -39c-71 12 -144 50 -144 99c0 37 39 72 85 98c-4 -1 -8 -1 -12 -1c-49 0 -144 7 -208 102c-42 63 -60 130 -60 336v46c0 39 1 101 1 121h90c-1 -22 -4 -62 -4 -140v-57c0 -138 8 -201 42 -257c35 -57 86 -82 151 -82c78 0 123 36 153 81
c42 62 43 164 43 298v29c0 59 -4 109 -5 141h91c0 -19 1 -75 1 -142v-40c0 -163 -12 -266 -80 -345c-37 -42 -79 -69 -133 -82c-53 -32 -84 -71 -84 -94c0 -26 26 -60 85 -72z" />
    <glyph glyph-name="uniF6A3" unicode="&#xf6a3;" horiz-adv-x="740" 
d="M180 451v-57c0 -138 8 -201 42 -257c35 -57 86 -82 151 -82c78 0 123 36 153 81c42 62 43 164 43 298v29c0 59 -4 109 -5 141h91c0 -19 1 -75 1 -142v-40c0 -163 -12 -266 -80 -345c-54 -62 -118 -91 -215 -91c-49 0 -144 7 -208 102c-42 63 -60 130 -60 336v46
c0 39 1 101 1 121h90c-1 -22 -4 -62 -4 -140zM365 659c-48 0 -92 29 -92 73c2 51 49 84 100 84c64 0 96 -33 96 -71c0 -54 -50 -86 -104 -86zM370 695c24 0 47 14 47 45c0 22 -18 39 -45 39c-21 0 -46 -14 -46 -43c0 -25 20 -41 44 -41z" />
    <glyph glyph-name="uniF6AB" unicode="&#xf6ab;" horiz-adv-x="601" 
d="M77 538l4 73c51 -5 473 -20 487 -20v-2c-33 -43 -385 -518 -393 -529c49 0 349 3 370 6l-3 -75c-19 0 -469 9 -512 9v2c38 40 380 505 400 532c-35 0 -336 4 -353 4zM227 709l130 112l45 -66l-151 -80z" />
    <glyph glyph-name="uniF6AC" unicode="&#xf6ac;" horiz-adv-x="601" 
d="M77 538l4 73c51 -5 473 -20 487 -20v-2c-33 -43 -385 -518 -393 -529c49 0 349 3 370 6l-3 -75c-19 0 -469 9 -512 9v2c38 40 380 505 400 532c-35 0 -336 4 -353 4zM310 689l-67 67l67 67l67 -67z" />
    <glyph glyph-name="uniF6AD" unicode="&#xf6ad;" horiz-adv-x="352" 
d="M219 349v-92c0 -85 3 -237 4 -257h-94c2 37 3 236 3 258v92c0 15 -3 225 -5 245h97c-2 -15 -5 -144 -5 -246zM175 689l-67 67l67 67l67 -67z" />
    <glyph glyph-name="Y.alt" unicode="&#xe02a;" horiz-adv-x="684" 
d="M678 647c-87 -94 -224 -279 -289 -392v-137c0 -42 3 -98 4 -118h-98c1 23 4 69 4 122v139c-64 115 -183 284 -276 391l79 63c90 -119 170 -246 247 -386h3c67 119 182 289 254 382z" />
    <glyph glyph-name="y.alt" unicode="&#xe03b;" horiz-adv-x="622" 
d="M609 542c-78 -79 -199 -229 -253 -325v-112c0 -46 3 -88 4 -105h-94c0 20 3 49 3 107v115c-58 98 -158 232 -244 323l69 62c83 -100 155 -206 224 -322h3c55 99 155 240 222 319z" />
    <glyph glyph-name="sterling.fitted" unicode="&#xe038;" horiz-adv-x="548" 
d="M491 75v-80c-35 0 -338 5 -398 5c30 103 44 195 57 284c-37 -3 -71 -5 -104 -7l-1 68c36 1 76 3 115 6c3 20 6 40 10 59c37 190 154 273 304 306l18 -83c-113 -15 -198 -42 -236 -239c-3 -13 -5 -26 -8 -39c77 5 146 10 185 14l-4 -72c-48 -1 -119 -3 -192 -7
c-12 -68 -26 -140 -49 -220c64 0 184 2 303 5z" />
    <glyph glyph-name="idotaccent" unicode="&#xe035;" horiz-adv-x="352" 
d="M219 349v-92c0 -85 3 -237 4 -257h-94c2 37 3 236 3 258v92c0 15 -3 225 -5 245h97c-2 -15 -5 -144 -5 -246zM175 689l-67 67l67 67l67 -67z" />
    <glyph glyph-name="upsilondieresis.alt" unicode="&#xe03a;" horiz-adv-x="654" 
d="M100 230l-60 61l60 60l61 -60zM526 230l-60 61l60 60l61 -60zM362 0h-96c0 20 4 110 4 121v60c0 111 -52 198 -114 262c-37 38 -85 73 -123 88l37 73c48 -24 108 -69 131 -94c43 -46 98 -112 119 -183h1c27 71 61 120 110 172c40 42 117 92 164 107l26 -73
c-48 -15 -110 -51 -161 -106c-62 -66 -103 -155 -103 -246v-76c0 -12 3 -88 5 -105z" />
    <glyph glyph-name="Gamma.small" unicode="&#xe00b;" horiz-adv-x="492" 
d="M227 0h-99c2 16 4 221 4 235v113c0 20 0 202 -8 247c23 0 293 9 322 9v-80c-97 4 -205 4 -227 4v-235c0 -107 4 -274 8 -293z" />
    <glyph glyph-name="uni021B" unicode="&#x21b;" horiz-adv-x="565" 
d="M338 0h-104c5 22 6 270 6 405v119c-103 0 -232 -4 -245 -8v81c26 -7 241 -10 251 -10h80c17 0 215 3 244 10v-81c-2 4 -170 8 -243 8v-132c0 -173 9 -375 11 -392zM224 -206l47 163l71 -32l-89 -145z" />
    <glyph glyph-name="yen.fitted" unicode="&#xe03e;" horiz-adv-x="595" 
d="M340 0h-93c1 25 5 138 5 152v71c-80 1 -142 0 -166 -1l-2 66c23 -1 84 -2 166 -1c-71 108 -186 289 -241 367l74 51c52 -88 148 -247 217 -352h2c67 106 175 273 220 352l72 -46c-36 -48 -179 -264 -258 -373c78 0 139 1 166 2l2 -66c-25 1 -88 2 -169 2v-92
c0 -15 3 -111 5 -132z" />
    <glyph glyph-name="uni2215" unicode="&#x2215;" horiz-adv-x="150" 
d="M322 686c-30 -45 -126 -190 -217 -338c-96 -156 -187 -316 -217 -369l-61 42c35 50 131 212 229 369c88 141 174 278 203 331z" />
    <glyph glyph-name="Alpha.small" unicode="&#xe000;" horiz-adv-x="710" 
d="M91 -18l-77 44c48 85 308 566 328 599h2c77 -121 293 -504 352 -593l-81 -49c-16 32 -110 200 -119 215l-309 -12c-12 -27 -82 -175 -96 -204zM221 249l244 10c-10 19 -115 211 -124 225c-13 -20 -112 -221 -120 -235z" />
    <glyph glyph-name="yacute.alt" unicode="&#xe03c;" horiz-adv-x="622" 
d="M609 542c-78 -79 -199 -229 -253 -325v-112c0 -46 3 -88 4 -105h-94c0 20 3 49 3 107v115c-58 98 -158 232 -244 323l69 62c83 -100 155 -206 224 -322h3c55 99 155 240 222 319zM257 709l130 112l45 -66l-151 -80z" />
    <glyph glyph-name="florin.oldstyle" unicode="&#xe034;" horiz-adv-x="392" 
d="M156 0h-84v40c0 24 -1 195 12 285c25 176 137 257 269 284l15 -78c-70 -5 -176 -18 -203 -215c-1 -7 -2 -18 -3 -30c38 0 128 6 164 9l-4 -64c-36 -1 -132 -4 -162 -6c-3 -46 -4 -103 -4 -154v-71z" />
    <glyph glyph-name="dollar.fitted" unicode="&#xe032;" horiz-adv-x="496" 
d="M198 787h73l-3 -114c18 9 87 27 103 28l10 -80c-79 1 -206 -52 -206 -115c0 -47 37 -72 113 -109c67 -34 128 -68 128 -144c0 -82 -98 -160 -148 -182l3 -156h-73l3 133c-24 -9 -80 -23 -98 -25l-14 77c142 12 231 80 231 130c0 45 -23 68 -97 108
c-76 41 -144 83 -144 150c0 71 74 125 122 154z" />
    <glyph glyph-name="florin.fitted" unicode="&#xe033;" horiz-adv-x="436" 
d="M169 0h-89v47c0 28 -1 230 13 335c28 207 152 303 296 334l17 -88c-76 -5 -198 -25 -227 -256c-1 -9 -2 -21 -3 -36c47 0 147 7 187 11l-4 -72c-40 -1 -147 -5 -186 -7c-3 -58 -4 -125 -4 -185v-83z" />
    <glyph glyph-name="Iota.small" unicode="&#xe00c;" horiz-adv-x="352" 
d="M219 349v-92c0 -85 3 -237 4 -257h-94c2 37 3 236 3 258v92c0 15 -3 225 -5 245h97c-2 -15 -5 -144 -5 -246z" />
    <glyph glyph-name="sterling.oldstyle" unicode="&#xe039;" horiz-adv-x="493" 
d="M447 69v-73c-37 0 -309 4 -363 4c27 88 39 166 51 239c-33 -2 -64 -4 -94 -6v60c32 1 68 3 103 5c3 17 5 34 9 51c33 161 139 232 279 260l16 -75c-107 -13 -178 -34 -213 -199c-2 -11 -4 -22 -7 -33c65 4 127 8 167 12l-4 -64c-48 0 -112 -2 -173 -5
c-10 -56 -22 -117 -43 -180c53 0 160 1 272 4z" />
    <glyph glyph-name="uni021A" unicode="&#x21a;" horiz-adv-x="650" 
d="M382 0h-108c5 26 6 318 6 477v149c-115 0 -257 -5 -283 -9v85c40 -8 277 -12 288 -12h87c19 0 237 4 281 12v-85c-14 4 -199 9 -283 9v-165c0 -203 10 -441 12 -461zM263 -226l49 173l74 -33l-93 -154z" />
    <glyph glyph-name="Iotadieresis.small" unicode="&#xe00d;" horiz-adv-x="352" 
d="M219 349v-92c0 -85 3 -237 4 -257h-94c2 37 3 236 3 258v92c0 15 -3 225 -5 245h97c-2 -15 -5 -144 -5 -246zM65 688l-60 61l60 60l61 -60zM275 688l-61 61l61 60l60 -60z" />
    <glyph glyph-name="sigma.alt" unicode="&#xe037;" horiz-adv-x="415" 
d="M346 298v-4c-78 -79 -118 -119 -177 -177l1 -2c77 -44 152 -79 224 -113l-42 -63c-128 64 -222 111 -303 161v4c80 78 131 128 187 188v3c-51 52 -126 121 -188 177v5c124 74 181 106 287 165l47 -59c-85 -45 -137 -71 -210 -114l-1 -4c58 -57 107 -103 175 -167z" />
    <glyph glyph-name="Beta.small" unicode="&#xe002;" horiz-adv-x="580" 
d="M132 315v94c0 25 -2 168 -5 186c48 0 108 0 144 -3c183 -14 212 -83 212 -130c0 -33 -23 -97 -121 -135v-2c67 -9 149 -54 149 -130c0 -114 -136 -200 -366 -200h-18c5 47 5 303 5 320zM216 283v-223c101 7 202 44 202 130c0 66 -89 98 -202 93zM216 536v-199
c99 1 179 57 179 114c0 76 -115 86 -179 85z" />
    <glyph glyph-name="cent.fitted" unicode="&#xe031;" horiz-adv-x="497" 
d="M232 -16l2 163c-124 29 -164 141 -164 186c0 102 68 190 164 242l-2 178h73l-3 -146c30 14 71 24 112 32l11 -82c-178 -18 -261 -116 -261 -211c0 -93 97 -144 200 -144c29 0 54 4 76 8l7 -76c-26 -5 -57 -7 -82 -7c-24 0 -46 2 -63 4l3 -147h-73z" />
    <glyph glyph-name="Tau.small" unicode="&#xe022;" horiz-adv-x="565" 
d="M338 0h-104c5 22 6 270 6 405v119c-103 0 -232 -4 -245 -8v81c26 -7 241 -10 251 -10h80c17 0 215 3 244 10v-81c-2 4 -170 8 -243 8v-132c0 -173 9 -375 11 -392z" />
    <glyph glyph-name="psi.alt" unicode="&#xe036;" horiz-adv-x="786" 
d="M445 0h-87c1 27 1 75 2 145c-143 5 -279 79 -279 266c0 66 3 115 10 170l85 -1c-8 -59 -11 -103 -11 -158c0 -175 118 -214 196 -215l1 143c0 15 -1 225 -3 259h86c-1 -29 -3 -158 -3 -261v-142c102 8 197 62 197 220c0 54 -3 96 -10 154l84 2c8 -54 10 -106 10 -161
c0 -179 -131 -271 -280 -275c1 -65 1 -134 2 -146z" />
    <glyph glyph-name="ydieresis.alt" unicode="&#xe03d;" horiz-adv-x="622" 
d="M609 542c-78 -79 -199 -229 -253 -325v-112c0 -46 3 -88 4 -105h-94c0 20 3 49 3 107v115c-58 98 -158 232 -244 323l69 62c83 -100 155 -206 224 -322h3c55 99 155 240 222 319zM210 688l-60 61l60 60l61 -60zM420 688l-61 61l61 60l60 -60z" />
    <glyph glyph-name="yen.oldstyle" unicode="&#xe03f;" horiz-adv-x="536" 
d="M309 0h-89c1 21 5 117 5 129v58c-70 0 -126 0 -148 -1l-1 59c20 -1 74 -2 148 -1c-64 92 -168 244 -218 310l72 48c47 -75 130 -213 192 -299h2c60 87 152 231 193 298l72 -44c-33 -41 -162 -221 -234 -314c71 0 125 1 149 2l2 -59c-23 1 -80 1 -149 1v-75
c0 -13 2 -94 4 -112z" />
    <glyph glyph-name="uni00A0" unicode="&#xa0;" horiz-adv-x="300" 
 />
    <glyph glyph-name="uni0394" unicode="&#x394;" horiz-adv-x="793" 
d="M799 -1l-1 -3c-84 4 -239 4 -407 4c-130 -1 -268 0 -388 -2l-1 3c51 87 316 594 392 723h2c78 -131 334 -620 403 -725zM652 79c-11 18 -219 413 -259 488c-42 -77 -247 -473 -256 -489c29 -1 142 -3 255 -3c114 -1 229 1 260 4z" />
    <glyph glyph-name="uni03A9" unicode="&#x3a9;" horiz-adv-x="883" 
d="M849 75l4 -83c-33 2 -337 7 -357 8l-2 17c85 52 202 196 202 358c0 173 -111 267 -239 267c-172 0 -265 -140 -265 -297c0 -142 84 -266 157 -330l-3 -15c-20 -1 -290 -4 -335 -3l4 81c54 -4 150 -6 188 -5l2 8c-43 40 -110 146 -110 263c0 192 140 372 371 372
c184 0 326 -131 326 -330c0 -140 -69 -253 -143 -313l2 -6c47 1 137 2 198 8z" />
    <glyph glyph-name="Omega.small" unicode="&#xe015;" horiz-adv-x="829" 
d="M795 71l4 -78c-23 -3 -315 6 -334 7l-2 14c79 44 187 167 187 305c0 147 -102 224 -222 224c-161 0 -246 -116 -246 -250c0 -121 77 -226 146 -281l-3 -12c-19 -1 -302 -4 -314 -3l3 77c51 -3 141 -5 168 -4l3 6c-33 27 -96 117 -96 216c0 164 132 317 348 317
c172 0 306 -112 306 -281c0 -119 -65 -215 -127 -258l3 -5c36 0 119 1 176 6z" />
    <glyph glyph-name="Kappa.small" unicode="&#xe010;" horiz-adv-x="658" 
d="M223 -9h-96c2 25 5 169 5 266v90c0 74 -5 237 -5 257h96c-1 -14 -5 -175 -5 -249v-91c0 -66 3 -256 5 -273zM607 60l-62 -68c-11 12 -281 279 -320 321c15 14 275 257 296 279l53 -65c-36 -28 -196 -163 -245 -208c28 -33 242 -227 278 -259z" />
    <glyph glyph-name="Kappa.smallalt" unicode="&#xe011;" horiz-adv-x="658" 
d="M223 -9h-96c2 25 5 169 5 266v90c0 74 -5 237 -5 257h96c-1 -14 -5 -175 -5 -249v-91c0 -66 3 -256 5 -273zM521 592l53 -65c-36 -28 -196 -163 -245 -208c31 -32 208 -188 253 -245c42 -52 58 -89 58 -138c0 -60 -24 -106 -81 -151l-52 48c46 33 53 67 53 99
c0 33 -17 61 -49 97c-42 46 -245 243 -286 284c15 14 275 257 296 279z" />
    <glyph glyph-name="Euro.oldstyle" unicode="&#xe00a;" horiz-adv-x="558" 
d="M190 293c-2 -8 -4 -22 -4 -35c0 -7 1 -18 1 -24c66 1 139 3 256 6l-2 -57c-115 -1 -169 -2 -242 -3c35 -69 110 -106 248 -106c17 0 46 3 58 6l6 -69c-13 -2 -42 -3 -72 -3c-205 0 -294 88 -325 170c-17 0 -51 -3 -69 -5l-1 58c11 0 42 1 60 1v19c0 13 0 26 3 36
c-19 -1 -36 -1 -59 -3l2 57c16 0 55 0 72 2c44 112 162 210 346 249l15 -68c-117 -21 -236 -74 -279 -176c70 2 121 4 249 13l-3 -59c-126 -5 -191 -6 -260 -9z" />
    <glyph glyph-name="Euro.fitted" unicode="&#xe009;" horiz-adv-x="625" 
d="M208 347c-2 -12 -5 -28 -5 -43c0 -9 1 -22 1 -31c77 1 158 4 288 7l-2 -64c-128 -1 -192 -2 -273 -3c36 -81 126 -133 280 -133c18 0 51 4 64 7l7 -74c-15 -2 -47 -4 -80 -4c-228 0 -327 104 -361 201c-19 0 -57 -3 -77 -5l-1 64c12 0 46 1 67 2c-1 4 -1 11 -1 23
c0 15 1 32 4 46c-21 -1 -40 -1 -66 -4l2 64c18 0 62 0 80 2c49 133 181 249 385 295l17 -75c-130 -26 -264 -96 -312 -214c78 2 136 5 278 15l-3 -65c-140 -6 -212 -8 -292 -11z" />
    <glyph glyph-name="uni00AD" unicode="&#xad;" horiz-adv-x="350" 
d="M29 305l-5 75c51 -1 281 -3 299 -2l3 -63c-16 3 -259 -7 -297 -10z" />
    <glyph glyph-name="Mu.small" unicode="&#xe013;" horiz-adv-x="940" 
d="M112 -22l-82 26c15 36 200 584 205 605h4c27 -54 191 -364 218 -413c29 48 216 361 232 387h3c27 -69 184 -484 221 -574l-83 -31c-21 64 -145 412 -157 445c-29 -47 -187 -307 -226 -369h-2c-51 95 -157 294 -197 371c-16 -53 -127 -414 -136 -447z" />
    <glyph glyph-name="Lambda.small" unicode="&#xe012;" horiz-adv-x="710" 
d="M91 -18l-77 44c48 85 275 510 328 599h2c77 -121 293 -504 352 -593l-81 -49c-91 161 -191 358 -271 492c-75 -140 -153 -287 -253 -493z" />
    <glyph glyph-name="uni03BC" unicode="&#x3bc;" horiz-adv-x="940" 
d="M112 -22l-82 26c15 36 200 584 205 605h4c27 -54 191 -364 218 -413c29 48 216 361 232 387h3c27 -69 184 -484 221 -574l-83 -31c-21 64 -145 412 -157 445c-29 -47 -187 -307 -226 -369h-2c-51 95 -157 294 -197 371c-16 -53 -127 -414 -136 -447z" />
    <glyph glyph-name="Rho.small" unicode="&#xe01e;" horiz-adv-x="560" 
d="M219 0h-91c2 37 4 241 4 302v93c0 20 -2 187 -2 200c38 0 123 -1 180 -10c122 -19 197 -74 197 -164c0 -122 -119 -215 -289 -245v-48c0 -17 0 -110 1 -128zM218 528v-286c108 21 197 71 197 169c0 31 -20 115 -197 117z" />
    <glyph glyph-name="Epsilontonos.small" unicode="&#xe006;" horiz-adv-x="528" 
d="M448 67l3 -76c-30 0 -304 9 -322 9c3 45 3 227 3 247v113c0 14 -2 219 -3 235c22 0 259 13 304 16l4 -72c-39 0 -203 -4 -218 -4v-208c17 0 133 4 188 9l3 -73c-15 0 -58 1 -100 2c-41 0 -81 1 -91 1v-202c22 0 144 -2 229 3zM3 431l-20 176l82 4l-18 -181z" />
    <glyph glyph-name="Zeta.small" unicode="&#xe030;" horiz-adv-x="601" 
d="M77 538l4 73c51 -5 473 -20 487 -20v-2c-33 -43 -385 -518 -393 -529c49 0 349 3 370 6l-3 -75c-19 0 -469 9 -512 9v2c38 40 380 505 400 532c-35 0 -336 4 -353 4z" />
    <glyph glyph-name="Iotatonos.small" unicode="&#xe00e;" horiz-adv-x="352" 
d="M219 349v-92c0 -85 3 -237 4 -257h-94c2 37 3 236 3 258v92c0 15 -3 225 -5 245h97c-2 -15 -5 -144 -5 -246zM-5 431l-20 176l82 4l-18 -181z" />
    <glyph glyph-name="Upsilondieresis.smallalt" unicode="&#xe027;" horiz-adv-x="654" 
d="M100 230l-60 61l60 60l61 -60zM526 230l-60 61l60 60l61 -60zM362 0h-96c0 20 4 110 4 121v60c0 111 -52 198 -114 262c-37 38 -85 73 -123 88l37 73c48 -24 108 -69 131 -94c43 -46 98 -112 119 -183h1c27 71 61 120 110 172c40 42 117 92 164 107l26 -73
c-48 -15 -110 -51 -161 -106c-62 -66 -103 -155 -103 -246v-76c0 -12 3 -88 5 -105z" />
    <glyph glyph-name="Pi.small" unicode="&#xe01a;" horiz-adv-x="859" 
d="M782 611v-73c-17 1 -51 3 -89 5c-2 -19 -1 -191 -1 -211v-87c0 -11 2 -229 6 -245h-94c1 30 2 227 2 244v151c0 37 -1 131 -2 148c-57 0 -295 -3 -357 -5c-2 -14 -4 -123 -4 -166v-140c0 -52 2 -212 3 -232h-93c2 38 3 241 3 264v94c0 14 -1 139 -2 177
c-35 -2 -69 -5 -89 -6v71c87 0 297 0 342 1c40 1 269 4 375 10z" />
    <glyph glyph-name="Alphatonos.small" unicode="&#xe001;" horiz-adv-x="710" 
d="M91 -18l-77 44c48 85 308 566 328 599h2c77 -121 293 -504 352 -593l-81 -49c-16 32 -110 200 -119 215l-309 -12c-12 -27 -82 -175 -96 -204zM221 249l244 10c-10 19 -115 211 -124 225c-13 -20 -112 -221 -120 -235zM94 431l-20 176l82 4l-18 -181z" />
    <glyph glyph-name="Phi.small" unicode="&#xe019;" horiz-adv-x="819" 
d="M455 -77h-90c1 31 3 53 3 76c-167 11 -316 117 -316 284c0 196 158 307 317 323c-1 13 -2 40 -3 68h91c-2 -30 -4 -54 -4 -65c151 -7 317 -113 317 -291c0 -172 -124 -296 -317 -317c0 -16 1 -49 2 -78zM370 255v98c-1 18 1 123 -1 189c-119 -21 -224 -104 -224 -254
c0 -142 110 -210 223 -224c3 63 2 179 2 191zM452 351v-98c0 -35 0 -142 1 -188c109 17 224 80 224 248c0 158 -118 220 -225 230c-1 -47 0 -148 0 -192z" />
    <glyph glyph-name="Nu.small" unicode="&#xe014;" horiz-adv-x="803" 
d="M193 -6l-92 6c5 64 30 541 34 629h5c26 -28 443 -448 471 -475c0 24 2 417 3 445l89 -4c-4 -51 -21 -399 -25 -613h-4c-26 23 -464 460 -475 472h-2c2 -16 -5 -432 -4 -460z" />
    <glyph glyph-name="Ysmall.alt" unicode="&#xe02f;" horiz-adv-x="622" 
d="M609 542c-78 -79 -199 -229 -253 -325v-112c0 -46 3 -88 4 -105h-94c0 20 3 49 3 107v115c-58 98 -158 232 -244 323l69 62c83 -100 155 -206 224 -322h3c55 99 155 240 222 319z" />
    <glyph glyph-name="Epsilon.small" unicode="&#xe005;" horiz-adv-x="528" 
d="M448 67l3 -76c-30 0 -304 9 -322 9c3 45 3 227 3 247v113c0 14 -2 219 -3 235c22 0 259 13 304 16l4 -72c-39 0 -203 -4 -218 -4v-208c17 0 133 4 188 9l3 -73c-15 0 -58 1 -100 2c-41 0 -81 1 -91 1v-202c22 0 144 -2 229 3z" />
    <glyph glyph-name="Upsilon.small" unicode="&#xe024;" horiz-adv-x="585" 
d="M341 0h-96c0 20 4 110 4 121v60c0 111 -52 198 -114 262c-37 38 -85 73 -123 88l37 73c48 -24 108 -69 131 -94c43 -46 98 -112 119 -183h1c27 71 61 120 110 172c40 42 117 92 164 107l26 -73c-48 -15 -110 -51 -161 -106c-62 -66 -103 -155 -103 -246v-76
c0 -12 3 -88 5 -105z" />
    <glyph glyph-name="Chi.small" unicode="&#xe003;" horiz-adv-x="659" 
d="M98 -18l-63 59c24 19 216 232 244 264c-37 41 -176 193 -211 232l66 63c24 -31 133 -165 199 -241c31 33 188 210 214 240l61 -60c-29 -28 -207 -204 -229 -232c27 -30 208 -227 243 -263l-69 -61c-24 28 -207 246 -229 271c-10 -15 -210 -256 -226 -272z" />
    <glyph glyph-name="Ydieresis.alt" unicode="&#xe02d;" horiz-adv-x="684" 
d="M678 647c-87 -94 -224 -279 -289 -392v-137c0 -42 3 -98 4 -118h-98c1 23 4 69 4 122v139c-64 115 -183 284 -276 391l79 63c90 -119 170 -246 247 -386h3c67 119 182 289 254 382zM247 765l-64 64l64 63l64 -63zM467 765l-64 64l64 63l64 -63z" />
    <glyph glyph-name="Yacutesmall.alt" unicode="&#xe02c;" horiz-adv-x="622" 
d="M609 542c-78 -79 -199 -229 -253 -325v-112c0 -46 3 -88 4 -105h-94c0 20 3 49 3 107v115c-58 98 -158 232 -244 323l69 62c83 -100 155 -206 224 -322h3c55 99 155 240 222 319zM257 709l130 112l45 -66l-151 -80z" />
    <glyph glyph-name="Omicrontonos.small" unicode="&#xe018;" horiz-adv-x="840" 
d="M409 -14c-199 0 -308 131 -308 281c0 189 139 342 359 342c176 0 305 -107 305 -290c0 -133 -94 -333 -356 -333zM417 52c137 0 255 95 255 263c0 152 -106 228 -225 228c-159 0 -254 -118 -254 -263c0 -127 85 -228 224 -228zM20 431l-20 176l82 4l-18 -181z" />
    <glyph glyph-name="Psi.alt" unicode="&#xe01b;" horiz-adv-x="800" 
d="M451 0h-93c1 32 1 88 2 171c-152 5 -297 92 -297 313c0 77 3 135 11 200l89 -2c-8 -69 -11 -121 -11 -185c0 -206 126 -252 209 -256l1 171c0 17 -1 264 -3 304h92c-2 -34 -4 -186 -4 -306v-170c109 12 210 75 210 261c0 64 -3 113 -11 181l90 3c8 -64 10 -125 10 -190
c0 -210 -139 -319 -298 -323c1 -77 2 -158 3 -172z" />
    <glyph glyph-name="Kappa.alt" unicode="&#xe00f;" horiz-adv-x="722" 
d="M245 -10h-100c2 29 5 198 5 312v106c0 87 -5 279 -5 302h100c-1 -16 -5 -205 -5 -292v-108c0 -77 3 -301 5 -320zM603 -254l-55 57c49 39 57 79 57 116c0 39 -18 72 -53 115c-44 54 -260 286 -305 334c17 16 303 298 326 324l58 -66c-38 -36 -219 -198 -272 -251
c33 -38 221 -221 269 -288c45 -62 62 -105 62 -163c0 -71 -26 -124 -87 -178z" />
    <glyph glyph-name="Delta.small" unicode="&#xe004;" horiz-adv-x="682" 
d="M688 -1l-1 -3c-72 4 -206 4 -350 4c-112 -1 -231 0 -334 -2l-1 3c44 74 272 510 337 621h2c67 -112 287 -533 347 -623zM340 465l-204 -386c23 -1 104 -3 202 -3s189 1 209 4c-71 128 -140 257 -207 385z" />
    <glyph glyph-name="Psi.smallalt" unicode="&#xe01d;" horiz-adv-x="786" 
d="M445 0h-87c1 27 1 75 2 145c-143 5 -279 79 -279 266c0 66 3 115 10 170l85 -1c-8 -59 -11 -103 -11 -158c0 -175 118 -214 196 -215l1 143c0 15 -1 225 -3 259h86c-1 -29 -3 -158 -3 -261v-142c102 8 197 62 197 220c0 54 -3 96 -10 154l84 2c8 -54 10 -106 10 -161
c0 -179 -131 -271 -280 -275c1 -65 1 -134 2 -146z" />
    <glyph glyph-name="Sigma.alt" unicode="&#xe01f;" horiz-adv-x="451" 
d="M342 361v-4c-76 -93 -114 -140 -172 -208l1 -3c75 -52 147 -93 218 -133l-42 -74c-123 75 -214 131 -293 189v5c78 92 127 151 181 221v4c-49 61 -122 142 -182 208v6c121 87 176 125 278 194l46 -69c-83 -53 -133 -84 -203 -135l-1 -4c56 -67 103 -121 169 -197z" />
    <glyph glyph-name="Upsilondieresis.small" unicode="&#xe026;" horiz-adv-x="585" 
d="M341 0h-96c0 20 4 110 4 121v60c0 111 -52 198 -114 262c-37 38 -85 73 -123 88l37 73c48 -24 108 -69 131 -94c43 -46 98 -112 119 -183h1c27 71 61 120 110 172c40 42 117 92 164 107l26 -73c-48 -15 -110 -51 -161 -106c-62 -66 -103 -155 -103 -246v-76
c0 -12 3 -88 5 -105zM192 688l-60 61l60 60l61 -60zM402 688l-61 61l61 60l60 -60z" />
    <glyph glyph-name="Upsilondieresis.alt" unicode="&#xe025;" horiz-adv-x="684" 
d="M394 0h-100c1 23 5 129 5 142v75c0 130 -61 235 -129 310c-40 45 -93 88 -147 111l41 78c64 -33 130 -88 156 -117c47 -54 108 -132 130 -215h2c29 83 67 141 121 202c44 49 130 110 192 130l30 -78c-64 -19 -135 -65 -191 -130c-68 -78 -115 -185 -115 -291v-94
c0 -14 3 -103 5 -123zM132 250l-64 64l64 63l64 -63zM556 250l-64 64l64 63l64 -63z" />
    <glyph glyph-name="Sigma.smallalt" unicode="&#xe021;" horiz-adv-x="415" 
d="M346 298v-4c-78 -79 -118 -119 -177 -177l1 -2c77 -44 152 -79 224 -113l-42 -63c-128 64 -222 111 -303 161v4c80 78 131 128 187 188v3c-51 52 -126 121 -188 177v5c124 74 181 106 287 165l47 -59c-85 -45 -137 -71 -210 -114l-1 -4c58 -57 107 -103 175 -167z" />
    <glyph glyph-name="Upsilontonos.small" unicode="&#xe028;" horiz-adv-x="692" 
d="M448 0h-96c0 20 4 110 4 121v60c0 111 -52 198 -114 262c-37 38 -85 73 -123 88l37 73c48 -24 108 -69 131 -94c43 -46 98 -112 119 -183h1c27 71 61 120 110 172c40 42 117 92 164 107l26 -73c-48 -15 -110 -51 -161 -106c-62 -66 -103 -155 -103 -246v-76
c0 -12 3 -88 5 -105zM0 431l-20 176l82 4l-18 -181z" />
    <glyph glyph-name="Xi.small" unicode="&#xe029;" horiz-adv-x="679" 
d="M114 515l-3 74c106 -1 333 5 471 10l5 -76c-124 0 -350 -4 -473 -8zM89 3l2 75c147 -6 334 -9 508 -1l3 -77c-123 -1 -393 3 -513 3zM140 259l-3 73c102 -3 329 6 409 8l4 -75c-65 2 -292 -4 -410 -6z" />
    <glyph glyph-name="Omegatonos.small" unicode="&#xe016;" horiz-adv-x="829" 
d="M820 71l4 -78c-23 -3 -315 6 -334 7l-2 14c79 44 187 167 187 305c0 147 -102 224 -222 224c-161 0 -246 -116 -246 -250c0 -121 77 -226 146 -281l-3 -12c-19 -1 -302 -4 -314 -3l3 77c51 -3 141 -5 168 -4l3 6c-33 27 -96 117 -96 216c0 164 132 317 348 317
c172 0 306 -112 306 -281c0 -119 -65 -215 -127 -258l3 -5c36 0 119 1 176 6zM19 431l-20 176l82 4l-18 -181z" />
    <glyph glyph-name="Psi.small" unicode="&#xe01c;" horiz-adv-x="759" 
d="M642 578l84 -15c-16 -51 -24 -109 -41 -182c-32 -142 -122 -222 -262 -232c1 -66 3 -137 4 -149h-89c1 27 2 77 3 148c-141 7 -233 93 -259 223c-16 73 -30 141 -46 197l86 16c5 -43 24 -147 39 -208c28 -117 104 -166 181 -166v140c0 13 -2 220 -3 259h87
c-3 -33 -4 -160 -4 -261v-138c79 3 155 41 188 181c13 63 26 150 32 187z" />
    <glyph glyph-name="Omicron.small" unicode="&#xe017;" horiz-adv-x="774" 
d="M363 -14c-199 0 -308 131 -308 281c0 189 139 342 359 342c176 0 305 -107 305 -290c0 -133 -94 -333 -356 -333zM371 52c137 0 255 95 255 263c0 152 -106 228 -225 228c-159 0 -254 -118 -254 -263c0 -127 85 -228 224 -228z" />
    <glyph glyph-name="Yacute.alt" unicode="&#xe02b;" horiz-adv-x="684" 
d="M678 647c-87 -94 -224 -279 -289 -392v-137c0 -42 3 -98 4 -118h-98c1 23 4 69 4 122v139c-64 115 -183 284 -276 391l79 63c90 -119 170 -246 247 -386h3c67 119 182 289 254 382zM318 787l137 118l48 -70l-159 -84z" />
    <glyph glyph-name="Sigma.small" unicode="&#xe020;" horiz-adv-x="593" 
d="M464 306v-12c-88 -63 -177 -126 -265 -189v-4c118 -17 237 -34 355 -51l-16 -75c-170 29 -340 59 -510 88v8c106 74 211 149 317 223v4c-101 68 -201 137 -302 205v6c157 34 313 68 470 102l18 -73c-107 -20 -214 -39 -321 -59v-4c85 -56 169 -113 254 -169z" />
    <glyph glyph-name="Ydieresissmall.alt" unicode="&#xe02e;" horiz-adv-x="622" 
d="M609 542c-78 -79 -199 -229 -253 -325v-112c0 -46 3 -88 4 -105h-94c0 20 3 49 3 107v115c-58 98 -158 232 -244 323l69 62c83 -100 155 -206 224 -322h3c55 99 155 240 222 319zM210 688l-60 61l60 60l61 -60zM420 688l-61 61l61 60l60 -60z" />
    <glyph glyph-name="Etatonos.small" unicode="&#xe008;" horiz-adv-x="823" 
d="M223 0h-94c2 37 3 236 3 258v92c0 15 -3 225 -5 245h97c-2 -15 -5 -189 -5 -204v-62l385 16v64c0 14 -2 167 -3 186h97c-2 -20 -7 -250 -7 -270v-85c0 -11 2 -224 4 -240h-96c3 29 5 180 5 196v86l-385 -16v-52c0 -38 3 -194 4 -214zM0 431l-20 176l82 4l-18 -181z" />
    <glyph glyph-name="Theta.small" unicode="&#xe023;" horiz-adv-x="782" 
d="M370 -14c-201 0 -315 131 -315 281c0 188 145 342 366 342c175 0 306 -106 306 -290c0 -133 -95 -333 -357 -333zM379 52c137 0 256 94 256 262c0 152 -106 229 -226 229c-165 0 -262 -118 -262 -263c0 -128 87 -228 232 -228zM241 262l-2 71c69 -1 253 9 303 14l6 -70
c-89 -3 -242 -10 -307 -15z" />
    <glyph glyph-name="Eta.small" unicode="&#xe007;" horiz-adv-x="823" 
d="M223 0h-94c2 37 3 236 3 258v92c0 15 -3 225 -5 245h97c-2 -15 -5 -189 -5 -204v-62l385 16v64c0 14 -2 167 -3 186h97c-2 -20 -7 -250 -7 -270v-85c0 -11 2 -224 4 -240h-96c3 29 5 180 5 196v86l-385 -16v-52c0 -38 3 -194 4 -214z" />
    </font>
</defs>
</svg>
