<?xml version="1.0" standalone="no"?><!DOCTYPE svg PUBLIC "-//W3C//DTD SVG 1.1//EN" "http://www.w3.org/Graphics/SVG/1.1/DTD/svg11.dtd"><svg t="1618386285499" class="icon" viewBox="0 0 1024 1024" version="1.1" xmlns="http://www.w3.org/2000/svg" p-id="1119" xmlns:xlink="http://www.w3.org/1999/xlink" width="200" height="200"><defs><style type="text/css"></style></defs><path d="M758.05 932.7V807.77c0-11.92-7.22-22.39-18.05-26.72L613.61 730.5l-28.89-28.89-72.22 43.33-72.22-43.33-28.89 28.89-126.38 50.55c-10.83 4.33-18.05 15.17-18.05 26.72V932.7h491.09z" fill="#949BA6" p-id="1120"></path><path d="M739.99 781.05l-68.61-27.44v5.78c0 48.02-71.13 86.66-158.88 86.66s-158.88-38.64-158.88-86.66v-5.78l-68.61 27.44c-10.83 4.33-18.05 15.17-18.05 26.72V932.7h491.07V807.77a28.651 28.651 0 0 0-18.04-26.72z" fill="#717582" p-id="1121"></path><path d="M396.97 932.7v-28.89c0-23.83-19.5-43.33-43.33-43.33v72.22h43.33zM671.39 932.7v-72.22c-23.83 0-43.33 19.5-43.33 43.33v28.89h43.33z" fill="#515560" p-id="1122"></path><path d="M454.74 831.6l57.77-28.89 57.77 28.89-57.77-86.66z" fill="#717582" p-id="1123"></path><path d="M700.27 383.86h-28.89v-57.77H353.64V383.86h-28.89c-15.89 0-28.89 13-28.89 28.89v28.89c0 15.89 13 28.89 28.89 28.89h28.89v14.44c0 74.02 41.52 118.43 86.66 140.82v75.83l72.22 43.33 72.22-43.33v-75.83c45.13-22.39 86.66-66.44 86.66-140.82v-14.44h28.89c15.89 0 28.89-13 28.89-28.89v-28.89c-0.02-15.89-13.02-28.89-28.91-28.89z" fill="#FFC600" p-id="1124"></path><path d="M512.51 643.84c-20.58 0-46.94-5.78-72.22-18.05v47.3c24.55 9.39 49.47 14.08 72.22 14.08s47.66-4.69 72.22-14.08v-47.3c-25.28 12.27-51.64 18.05-72.22 18.05zM613.61 398.3h-57.77v-14.44c-42.61 0-79.8-23.11-100.02-57.77h-25.28c-22.75 57.41-76.91 57.77-76.91 57.77v43.33c21.3 0 62.11-10.11 92.44-44.41 28.53 27.44 67.16 44.41 109.77 44.41h115.55v-43.33h-57.77v14.44z" fill="#FFA100" p-id="1125"></path><path d="M786.93 528.29m-28.89 0a28.89 28.89 0 1 0 57.78 0 28.89 28.89 0 1 0-57.78 0Z" fill="#FFC600" p-id="1126"></path><path d="M512.51 95L180.32 239.43l173.32 57.77v28.89h317.75V297.2l173.31-57.77z" fill="#717582" p-id="1127"></path><path d="M844.7 239.43L512.51 95 180.32 239.43l173.32 57.77v-28.89c0-31.78 26-57.77 57.77-57.77h202.2c31.78 0 57.77 26 57.77 57.77v28.89l173.32-57.77z" fill="#515560" p-id="1128"></path><path d="M830.26 807.77c0-41.52-24.91-78.35-63.55-93.88l-89.91-36.11c-7.58-2.89-15.89 0.72-18.78 7.94-2.89 7.58 0.72 15.89 7.94 18.78l89.91 36.11c27.44 11.19 45.5 37.19 45.5 67.16v9.39c0 7.94 6.5 14.44 14.44 14.44s14.44-6.5 14.44-14.44v-9.39z" fill="#090418" p-id="1129"></path><path d="M815.82 874.93m-14.44 0a14.44 14.44 0 1 0 28.88 0 14.44 14.44 0 1 0-28.88 0Z" fill="#090418" p-id="1130"></path><path d="M815.82 932.7m-14.44 0a14.44 14.44 0 1 0 28.88 0 14.44 14.44 0 1 0-28.88 0Z" fill="#090418" p-id="1131"></path><path d="M382.52 658.28m-14.44 0a14.44 14.44 0 1 0 28.88 0 14.44 14.44 0 1 0-28.88 0Z" fill="#090418" p-id="1132"></path><path d="M340.64 618.56m-14.44 0a14.44 14.44 0 1 0 28.88 0 14.44 14.44 0 1 0-28.88 0Z" fill="#090418" p-id="1133"></path><path d="M311.39 569.09m-14.44 0a14.44 14.44 0 1 0 28.88 0 14.44 14.44 0 1 0-28.88 0Z" fill="#090418" p-id="1134"></path><path d="M165.87 240.15c0.36 6.14 4.33 11.19 9.75 13l163.57 54.52v61.75h-14.44c-23.83 0-43.33 19.5-43.33 43.33v28.89c0 23.83 19.5 43.33 43.33 43.33h14.44c0 74.74 39.36 123.49 86.66 149.85v60.66l-22.39 22.39-123.49 49.47c-16.61 6.5-27.08 22.39-27.08 40.08V932.7c0 7.94 6.5 14.44 14.44 14.44H758.4c7.94 0 14.44-6.5 14.44-14.44V807.77c0-17.69-10.83-33.58-27.08-40.08l-123.49-49.47-22.39-22.39v-60.66c47.3-26.36 86.66-75.1 86.66-149.85H701c23.83 0 43.33-19.5 43.33-43.33V413.1c0-23.83-19.5-43.33-43.33-43.33h-14.44v-62.11l86.66-28.89v162.85c0 7.94 6.5 14.44 14.44 14.44s14.44-6.5 14.44-14.44v-172.6l48.02-15.89c5.78-1.81 9.75-7.22 9.75-13s-3.25-11.55-8.67-13.72L519.01 82c-3.61-1.44-7.94-1.44-11.55 0l-332.2 144.43c-6.14 2.16-9.75 7.58-9.39 13.72z m491.07 71.49H368.08v-43.33c0-23.83 19.5-43.33 43.33-43.33h202.2c23.83 0 43.33 19.5 43.33 43.33v43.33z m-250.95 28.89c-11.92 16.25-27.08 23.11-37.91 26.36v-26.36h37.91z m106.52 427.52l46.58 58.13c0.36 0.36 1.08 0.72 1.44 1.08-15.17 2.89-31.05 4.33-48.02 4.33-16.97 0-32.86-1.44-48.02-4.33 0.36-0.36 1.08-0.72 1.44-1.08l46.58-58.13z m70.05-48.39l13.72 13.72-28.53 57.05-33.22-41.52 48.03-29.25z m37.91 29.25l36.11 14.44c-2.89 24.55-31.41 46.22-72.22 58.49l36.11-72.93z m-179.45 72.58c-40.8-11.92-69.69-33.94-72.22-58.49l36.11-14.44 36.11 72.93z m16.61-31.06l-28.53-57.05 13.72-13.72 48.38 28.89-33.57 41.88z m285.97 17.34v110.49h-57.77v-43.33c0-7.94-6.5-14.44-14.44-14.44s-14.44 6.5-14.44 14.44v43.33H368.08v-43.33c0-7.94-6.5-14.44-14.44-14.44-7.94 0-14.44 6.5-14.44 14.44v43.33h-57.77V807.77c0-5.78 3.61-11.19 9.03-13.36L341 774.19c11.92 49.47 82.69 86.3 171.51 86.3s159.24-36.83 171.51-86.3l50.55 20.22c5.42 2.16 9.03 7.58 9.03 13.36zM570.28 693.3l-57.77 34.66-57.77-34.66v-45.5c19.86 6.86 39.72 10.47 57.77 10.47 18.05 0 37.91-3.25 57.77-10.47v45.5z m129.99-295c7.94 0 14.44 6.5 14.44 14.44v28.89c0 7.94-6.5 14.44-14.44 14.44h-28.89c-7.94 0-14.44 6.5-14.44 14.44v14.44c0 109.05-97.13 144.43-144.43 144.43s-144.43-35.39-144.43-144.43v-14.44c0-7.94-6.5-14.44-14.44-14.44h-28.89c-7.94 0-14.44-6.5-14.44-14.44v-28.89c0-7.94 6.5-14.44 14.44-14.44h14.44v14.44c0 7.94 6.5 14.44 14.44 14.44 7.94 0 14.44-6.5 14.44-14.44V396.5c19.14-3.97 52.36-16.25 71.85-55.97h8.3c24.19 35.75 64.27 57.77 107.6 57.77 7.94 0 14.44-6.5 14.44-14.44 0-7.94-6.5-14.44-14.44-14.44-26.72 0-52-10.83-70.41-28.89h171.51v28.89h-43.33c-7.94 0-14.44 6.5-14.44 14.44 0 7.94 6.5 14.44 14.44 14.44h43.33v14.44c0 7.94 6.5 14.44 14.44 14.44s14.44-6.5 14.44-14.44V398.3h14.47zM512.51 110.88l291.75 126.74-118.43 39.72v-9.03c0-39.72-32.5-72.22-72.22-72.22h-202.2c-39.72 0-72.22 32.5-72.22 72.22v9.03l-118.43-39.72 291.75-126.74z" fill="#090418" p-id="1135"></path><path d="M786.93 484.96c-23.83 0-43.33 19.5-43.33 43.33s19.5 43.33 43.33 43.33 43.33-19.5 43.33-43.33-19.5-43.33-43.33-43.33z m0 57.77c-7.94 0-14.44-6.5-14.44-14.44 0-7.94 6.5-14.44 14.44-14.44 7.94 0 14.44 6.5 14.44 14.44 0.01 7.94-6.49 14.44-14.44 14.44z" fill="#090418" p-id="1136"></path></svg>