<?xml version="1.0" standalone="no"?><!DOCTYPE svg PUBLIC "-//W3C//DTD SVG 1.1//EN" "http://www.w3.org/Graphics/SVG/1.1/DTD/svg11.dtd"><svg t="1618386432641" class="icon" viewBox="0 0 1024 1024" version="1.1" xmlns="http://www.w3.org/2000/svg" p-id="9090" xmlns:xlink="http://www.w3.org/1999/xlink" width="200" height="200"><defs><style type="text/css"></style></defs><path d="M73.356725 425.169591h51.898636v264.48343H73.356725V425.169591z m26.947369 232.545809a54.892788 54.892788 0 1 1-54.892788 54.892787 54.886799 54.886799 0 0 1 54.892788-54.892787z m172.662768-161.684211h487.048733a29.94152 29.94152 0 0 1 29.94152 29.941521v251.508771c0 16.5377-14.202261 29.991423-29.94152 41.918129 0 0-127.161637 61.879142-251.508772 61.879142-119.057466 0-235.539961-61.879142-235.539961-61.879142-20.509942-12.715166-29.94152-29.372632-29.941521-45.910331V525.97271a29.94152 29.94152 0 0 1 29.941521-29.941521z m48.884522 38.923977h389.279688c13.214191 0 23.933255 10.210058 23.933255 22.805458v191.565848c0 12.5954-2.185731 22.64577-23.933255 31.927641 0 0-101.631501 47.127953-201.017388 47.127953-95.164133 0-188.2623-47.127953-188.2623-47.127953-20.689591-6.936452-23.933255-22.376296-23.933255-34.971696V557.760624c0-12.5954 10.719064-22.805458 23.933255-22.805458z m230.260273-395.208109l438.603353 234.74152c22.426199 12.00655 22.426199 31.468538 0 43.475088l-438.603353 234.74152c-22.426199 12.00655-58.795166 12.00655-81.221365 0L32.28694 417.963665c-22.426199-12.00655-22.426199-31.468538 0-43.475088l438.603352-234.74152c22.426199-12.00655 58.795166-12.00655 81.221365 0z m-7.235868 57.727251l355.196258 179.160078c18.164522 9.162105 18.164522 24.013099 0 33.175205L544.875789 588.969669c-18.164522 9.162105-47.616998 9.162105-65.78152 0L123.907992 409.809591c-18.164522-9.162105-18.164522-24.013099 0-33.175205l355.186277-179.160078c18.164522-9.162105 47.616998-9.162105 65.78152 0z" fill="#E61D15" p-id="9091"></path></svg>