<?xml version="1.0" standalone="no"?><!DOCTYPE svg PUBLIC "-//W3C//DTD SVG 1.1//EN" "http://www.w3.org/Graphics/SVG/1.1/DTD/svg11.dtd"><svg t="1618386347814" class="icon" viewBox="0 0 1024 1024" version="1.1" xmlns="http://www.w3.org/2000/svg" p-id="7301" xmlns:xlink="http://www.w3.org/1999/xlink" width="200" height="200"><defs><style type="text/css"></style></defs><path d="M712.3 839.8c-0.7 0-1.4-0.2-2-0.5l-21-12.1c-1.9-1.1-2.6-3.6-1.5-5.5s3.6-2.6 5.5-1.5l21 12.1c1.9 1.1 2.6 3.6 1.5 5.5-0.8 1.2-2.2 2-3.5 2z" fill="#ACD598" p-id="7302"></path><path d="M695.7 844.2c-0.7 0-1.4-0.2-2-0.5-1.9-1.1-2.6-3.5-1.5-5.5l12.1-21c1.1-1.9 3.5-2.6 5.5-1.5 1.9 1.1 2.6 3.5 1.5 5.5l-12.1 21c-0.7 1.3-2.1 2-3.5 2z" fill="#ACD598" p-id="7303"></path><path d="M115.2 842.5c-1.9 0-3.6-1.4-3.9-3.4-0.4-2.2 1.1-4.2 3.3-4.6l30-4.9c2.2-0.4 4.2 1.1 4.6 3.3 0.4 2.2-1.1 4.2-3.3 4.6l-30 4.9c-0.3 0.1-0.5 0.1-0.7 0.1z" fill="#FFF100" p-id="7304"></path><path d="M132.7 855c-1.9 0-3.6-1.4-3.9-3.4l-4.9-30c-0.4-2.2 1.1-4.2 3.3-4.6 2.2-0.4 4.2 1.1 4.6 3.3l4.9 30c0.4 2.2-1.1 4.2-3.3 4.6-0.3 0.1-0.5 0.1-0.7 0.1z" fill="#FFF100" p-id="7305"></path><path d="M886.5 843.5c-5 0-9-4-9-9s4-9 9-9 9 4 9 9-4 9-9 9z m0-13.8c-2.6 0-4.8 2.1-4.8 4.8 0 2.6 2.1 4.8 4.8 4.8s4.8-2.1 4.8-4.8c0-2.6-2.2-4.8-4.8-4.8z" fill="#FF8A8A" p-id="7306"></path><path d="M62.5 908.3c-6.6 0-12-5.4-12-12s5.4-12 12-12 12 5.4 12 12-5.4 12-12 12z m0-19.2c-4 0-7.2 3.2-7.2 7.2s3.2 7.2 7.2 7.2 7.2-3.2 7.2-7.2-3.2-7.2-7.2-7.2z" fill="#F79CAA" p-id="7307"></path><path d="M258.5 843.3c-8.2 0-14.8-6.7-14.8-14.8s6.7-14.8 14.8-14.8c8.2 0 14.8 6.7 14.8 14.8s-6.6 14.8-14.8 14.8z m0-23.5c-4.8 0-8.7 3.9-8.7 8.7s3.9 8.7 8.7 8.7 8.7-3.9 8.7-8.7-3.9-8.7-8.7-8.7z" fill="#85CEFF" p-id="7308"></path><path d="M931.5 947.5c-7.2 0-13-5.8-13-13s5.8-13 13-13 13 5.8 13 13-5.8 13-13 13z m0-20.5c-4.2 0-7.5 3.4-7.5 7.5s3.4 7.5 7.5 7.5 7.5-3.4 7.5-7.5-3.3-7.5-7.5-7.5z" fill="#FFC892" p-id="7309"></path><path d="M964.5 855.5m-8 0a8 8 0 1 0 16 0 8 8 0 1 0-16 0Z" fill="#BDF490" p-id="7310"></path><path d="M789.5 837m-3.8 0a3.8 3.8 0 1 0 7.6 0 3.8 3.8 0 1 0-7.6 0Z" fill="#A657FF" p-id="7311"></path><path d="M142.5 957.5m-6 0a6 6 0 1 0 12 0 6 6 0 1 0-12 0Z" fill="#B4DB61" p-id="7312"></path><path d="M104.5 254.9V133.5c0-22.1 17.9-40 40-40h772c22.1 0 40 17.9 40 40v606c0 22.1-17.9 40-40 40h-772c-22.1 0-40-17.9-40-40V422.8" fill="#FFDF00" p-id="7313"></path><path d="M789.5 113.5h136c11.1 0 19 9 19 20v544h-155v-564z m-21 153h172c11 0 20 8.9 20 20h-192v-20z" fill="#FFFFFF" p-id="7314"></path><path d="M803.5 103.5h125c11 0 20 9 20 20v564h-145v-584z" fill="#57EBBF" p-id="7315"></path><path d="M803.5 103.5h125c11 0 20 9 20 20v153h-145v-173z" fill="#EB6877" p-id="7316"></path><path d="M104.5 684.5h825c11 0 20 9 20 20v55c0 11-9 20-20 20h-825c-11 0-20-9-20-20v-55c0-11 9-20 20-20z" fill="#87FFFE" p-id="7317"></path><path d="M849 906.5H224c-8.6 0-15.5-6.9-15.5-15.5s6.9-15.5 15.5-15.5c0 0 44-0.4 115.5 0 118.5 0 153-105.7 153-108h88c0 8.3 38 108 155 108H849c8.6 0 15.5 6.9 15.5 15.5s-6.9 15.5-15.5 15.5z" fill="#22B4FF" p-id="7318"></path><path d="M914.5 787.5h-28c-5.5 0-10-4.5-10-10s4.5-10 10-10h28c16.5 0 30-13.5 30-30v-594c0-16.5-13.5-30-30-30h-792c-16.5 0-30 13.5-30 30v111.4c0 5.5-4.5 10-10 10s-10-4.5-10-10V143.5c0-27.6 22.4-50 50-50h792c27.6 0 50 22.4 50 50v594c0 27.6-22.4 50-50 50z m-151 0h-641c-27.6 0-50-22.4-50-50V382.8c0-5.5 4.5-10 10-10s10 4.5 10 10v354.7c0 16.5 13.5 30 30 30h641c5.5 0 10 4.5 10 10s-4.5 10-10 10z" fill="#222222" p-id="7319"></path><path d="M827.5 777.5m-16 0a16 16 0 1 0 32 0 16 16 0 1 0-32 0Z" fill="#222222" p-id="7320"></path><path d="M82.5 320.5m-16 0a16 16 0 1 0 32 0 16 16 0 1 0-32 0Z" fill="#222222" p-id="7321"></path><path d="M134.5 177.5h20c1.1 0 2 0.9 2 2v443c0 1.1-0.9 2-2 2h-20c-1.1 0-2-0.9-2-2v-443c0-1.1 0.9-2 2-2z" fill="#FFFFFF" p-id="7322"></path><path d="M144.5 177.5h20c1.1 0 2 0.9 2 2v443c0 1.1-0.9 2-2 2h-20c-1.1 0-2-0.9-2-2v-443c0-1.1 0.9-2 2-2z" fill="#358AFE" p-id="7323"></path><path d="M124.5 644.5c-6.6 0-12-5.4-12-12v-463c0-6.6 5.4-12 12-12h40c6.6 0 12 5.4 12 12v463c0 6.6-5.4 12-12 12h-40z m8-20h24v-447h-24v447zM779.5 687.5c-5.5 0-10-4.5-10-10v-574c0-5.5 4.5-10 10-10s10 4.5 10 10v574c0 5.5-4.5 10-10 10z" fill="#222222" p-id="7324"></path><path d="M954.5 286.5h-171c-5.5 0-10-4.5-10-10s4.5-10 10-10h171c5.5 0 10 4.5 10 10s-4.5 10-10 10z" fill="#222222" p-id="7325"></path><path d="M84.5 687.5H949" fill="#358AFE" p-id="7326"></path><path d="M949 697.5H84.5c-5.5 0-10-4.5-10-10s4.5-10 10-10H949c5.5 0 10 4.5 10 10s-4.5 10-10 10zM842.1 927.5H191.7c-7.6-0.2-14.7-3.3-20-8.8-5.3-5.5-8.1-12.7-7.9-20.3 0.4-15.3 12.6-27.5 27.8-27.8 3.3-0.1 18.8-0.4 90.3 0 54.7 0 100-15.3 134.7-45.4 25.6-22.3 35.9-44.8 37.7-49.2v-8.4h125v9.5c1.2 5.2 12.6 28.5 38.9 50 24.2 19.8 67.3 43.5 136 43.5h87.9c15.7 0.4 28.2 13.4 27.8 29.1-0.3 15.3-12.6 27.5-27.8 27.8z m-650-20h649.7c4.5-0.2 8.1-3.8 8.2-8.3 0.1-4.7-3.6-8.5-8.2-8.7h-87.5c-76.3 0-124.4-27.3-151.3-50.2-22.7-19.4-35.8-40-41-52.8h-90.8c-2.4 5.1-5.6 10.3-6.9 12.5-5.8 9.3-15.9 23.3-31.4 37.4-26.6 24.2-74.4 53.1-151 53.1-75-0.4-87.6-0.1-89.2 0l-0.6 0.1v-0.1c-4.6 0.1-8.2 3.8-8.3 8.3-0.1 2.3 0.8 4.4 2.4 6.1 1.6 1.6 3.7 2.5 5.9 2.6z m0.5-17z m0 0z m386.8-113.7zM449.5 643.5h-219c-5.5 0-10-4.5-10-10s4.5-10 10-10h219c5.5 0 10 4.5 10 10s-4.5 10-10 10zM563.5 587.5h-333c-5.5 0-10-4.5-10-10s4.5-10 10-10h333c5.5 0 10 4.5 10 10s-4.5 10-10 10z" fill="#222222" p-id="7327"></path><path d="M384.7 305.5c11.1 0 20.1 9.1 20 20.2 0 11.1-9.1 20.1-20.2 20-11.1 0-20-9-20-20.1 0-11.1 9-20.1 20.2-20.1-0.1 0-0.1 0 0 0z m159.6 0c11.1 0 20.1 9.1 20 20.2 0 11.1-9.1 20.1-20.2 20-11.1 0-20-9-20-20.1 0.1-11.1 9.1-20.1 20.2-20.1zM515.7 394.6c-8.9 28.4-39.1 44.2-67.5 35.3-17-5.3-30.2-18.7-35.4-35.7 7.8 0.1 76.8 0.4 102.9 0.4z" fill="#222222" p-id="7328"></path><path d="M464.3 435.4c-5.6 0-11.3-0.8-16.9-2.6-17.9-5.6-31.9-19.7-37.4-37.7-0.3-0.9-0.1-1.9 0.5-2.7 0.6-0.8 1.5-1.2 2.4-1.2 2.8 0 13.3 0 26.8 0.1 25 0.1 59.2 0.3 76.1 0.3 1 0 1.9 0.5 2.4 1.2 0.6 0.8 0.7 1.8 0.4 2.7-7.6 24.3-30.1 39.9-54.3 39.9z m-47.2-38.1c5.6 14.2 17.4 25.2 32.1 29.8 25.4 8 52.5-5.2 62.3-29.5-17.9 0-48.8-0.2-71.9-0.3h-22.5z" fill="#222222" p-id="7329"></path><path d="M464.3 407.3c15.4 0 28.9 4.5 36.2 11.1-20.5 18.6-51.9 18.6-72.4 0 7.3-6.7 20.8-11.1 36.2-11.1z" fill="#FF1834" p-id="7330"></path></svg>